<svg width="16" height="16" viewBox="0 0 16 16" fill="none" xmlns="http://www.w3.org/2000/svg">
<path d="M7.18838 8.9241L7.11772 8.85343L6.33628 8.07186L6.26579 8.00136L6.33608 7.93065L6.56948 7.69586L6.56959 7.69575L6.64051 7.76625L7.18838 8.9241ZM7.18838 8.9241L7.18871 8.92376M7.18838 8.9241L7.18871 8.92376M7.18871 8.92376C7.3762 9.11087 7.54682 9.27959 7.6757 9.40584C7.74812 9.47678 7.80755 9.53449 7.84946 9.57458C7.87034 9.59456 7.88725 9.61053 7.89939 9.62168C7.90533 9.62714 7.91086 9.63212 7.91542 9.63602C7.91752 9.63781 7.92069 9.64047 7.9242 9.64309C7.92575 9.64425 7.92924 9.64682 7.9338 9.64955C7.936 9.65086 7.94036 9.65338 7.94615 9.65586L7.94632 9.65593C7.9499 9.65747 7.96514 9.66401 7.98577 9.66401C8.00442 9.66401 8.01829 9.6587 8.02251 9.65705C8.02847 9.65471 8.03302 9.65227 8.03547 9.65089C8.04045 9.64809 8.04427 9.6454 8.04603 9.64413C8.04994 9.64131 8.05341 9.63847 8.05564 9.63659C8.06052 9.63251 8.06631 9.62735 8.07239 9.62181C8.08484 9.61046 8.10207 9.59425 8.12321 9.57407C8.16566 9.53355 8.22571 9.47525 8.29881 9.40363C8.44509 9.26031 8.64456 9.06279 8.86193 8.84561L9.65198 8.05632L9.72263 7.98574L9.65216 7.915L9.4104 7.6723L9.41033 7.67223L9.16887 7.42938L9.09826 7.35837L9.02734 7.42908L8.65919 7.7962L8.46164 7.99319V7.33547V6.43697V6.33697H8.36164H8.01753H7.67328H7.57328V6.43697V7.3512V8.02442L7.37589 7.82767C7.37588 7.82766 7.37587 7.82765 7.37587 7.82764L7.18871 8.92376ZM1.32041 5.55826L1.32041 5.55828C1.03843 6.32936 0.9 7.13437 0.9 8.00056C0.9 9.14571 1.12142 10.1053 1.62113 11.125C2.70983 13.3466 4.85781 14.8281 7.33843 15.0754V15.0763L7.42985 15.0842C7.72444 15.1096 8.34663 15.1036 8.67064 15.0719C9.81196 14.9609 10.9769 14.5476 11.9152 13.9202C12.9904 13.2013 13.796 12.2805 14.3787 11.1051C14.9747 9.90304 15.2154 8.47868 15.0483 7.14263C14.5911 3.48393 11.4095 0.764848 7.74724 0.905193C6.0633 0.969693 4.55095 1.5784 3.25501 2.71249C2.44553 3.42087 1.70214 4.51499 1.32041 5.55826ZM9.03224 14.1287L9.00588 14.1333C8.59102 14.2014 7.73518 14.2292 7.35585 14.1863L7.35582 14.1863C4.6403 13.8798 2.4555 11.8975 1.90459 9.24187C1.43961 7.00052 2.28949 4.62724 4.07605 3.17943C4.62297 2.73624 5.36835 2.32438 6.00489 2.11294C8.69384 1.22004 11.573 2.20164 13.1645 4.55412C14.5541 6.60834 14.5541 9.39292 13.1645 11.4471C12.1935 12.8824 10.7341 13.8294 9.03224 14.1287ZM5.25538 11.7747L5.36051 11.801L5.36305 11.7857C5.36337 11.7858 5.36368 11.7858 5.364 11.7858C5.41235 11.7888 5.47652 11.7916 5.5538 11.7942C5.70851 11.7994 5.91831 11.8039 6.16465 11.8077C6.65747 11.8153 7.29825 11.8201 7.94076 11.8217C8.58328 11.8234 9.22792 11.8219 9.72848 11.8169C9.9787 11.8144 10.1933 11.8111 10.3538 11.8068C10.4339 11.8047 10.5011 11.8023 10.5527 11.7997C10.6016 11.7972 10.643 11.7941 10.6671 11.7896C11.2048 11.6893 11.6522 11.2653 11.774 10.738L11.774 10.738C11.7791 10.7159 11.7817 10.6748 11.7838 10.6315C11.7861 10.5832 11.7883 10.5185 11.7902 10.4401C11.7942 10.2832 11.7974 10.0691 11.8001 9.81736C11.8053 9.31366 11.8079 8.65743 11.8079 8.00136C11.8079 7.34529 11.8053 6.68906 11.8001 6.18537C11.7974 5.93358 11.7942 5.71955 11.7902 5.5626C11.7883 5.4842 11.7861 5.4195 11.7838 5.37124C11.7817 5.32794 11.7791 5.28688 11.774 5.26476L11.774 5.26475C11.6523 4.73743 11.2048 4.31324 10.6671 4.21296L10.6488 4.31127L10.6675 4.21304C10.6443 4.2086 10.6037 4.2057 10.5563 4.20327C10.5061 4.2007 10.4403 4.19835 10.3616 4.19621C10.204 4.19192 9.99239 4.18841 9.7452 4.18565C9.25072 4.18013 8.61226 4.17761 7.9748 4.17797C7.33734 4.17834 6.70051 4.18158 6.2093 4.18759C5.96375 4.1906 5.75422 4.1943 5.59905 4.19869C5.52153 4.20089 5.45705 4.20327 5.4082 4.20586C5.36295 4.20826 5.32266 4.21115 5.29992 4.21593L5.32049 4.31379L5.29992 4.21593C4.86135 4.30813 4.50787 4.58201 4.32013 4.97804L4.32013 4.97804L4.21963 5.19009L4.20999 5.21042V5.23292V8.00056V10.7682V10.7907L4.21962 10.811L4.31671 11.0159L4.31672 11.016C4.49782 11.398 4.8352 11.6695 5.25538 11.7747ZM5.14395 5.31489C5.17846 5.25629 5.25366 5.18235 5.31866 5.14505L5.31872 5.14502L5.43154 5.08043L7.93319 5.07324C7.93319 5.07324 7.9332 5.07324 7.9332 5.07324C8.77943 5.07093 9.4211 5.07177 9.86124 5.07591C10.0814 5.07798 10.2506 5.08088 10.3695 5.08459C10.429 5.08646 10.4753 5.0885 10.5087 5.09069C10.5456 5.09312 10.5579 5.0953 10.5572 5.09505C10.6874 5.13012 10.8113 5.23628 10.8707 5.36695L10.871 5.36752C10.8882 5.40461 10.9037 5.44927 10.9113 5.80767C10.9189 6.15941 10.9195 6.79692 10.9195 8.00056C10.9195 9.20414 10.9186 9.84167 10.911 10.1934C10.9032 10.5515 10.8878 10.5968 10.8707 10.6343C10.8189 10.7483 10.7158 10.8453 10.6058 10.8903L10.5663 10.9013C10.565 10.9015 10.5614 10.9019 10.5543 10.9025C10.5427 10.9035 10.5263 10.9046 10.505 10.9056C10.4626 10.9077 10.4036 10.9097 10.33 10.9115C10.183 10.9152 9.97994 10.9183 9.73931 10.9209C9.25817 10.9259 8.62813 10.9286 7.99829 10.9289C7.36845 10.9292 6.73913 10.9271 6.25942 10.9224C6.0195 10.9201 5.81736 10.9172 5.67141 10.9136C5.59835 10.9119 5.53996 10.91 5.49818 10.9079C5.4772 10.9069 5.46121 10.9059 5.44997 10.9049C5.4448 10.9045 5.44162 10.9041 5.43996 10.9039C5.31436 10.8648 5.21899 10.7924 5.14896 10.6848L5.08262 10.5829V8.00234V5.41946L5.14392 5.31495C5.14393 5.31493 5.14394 5.31491 5.14395 5.31489Z" fill="white" stroke="white" stroke-width="0.2"/>
</svg>
