<svg width="14" height="10" viewBox="0 0 14 10" fill="none" xmlns="http://www.w3.org/2000/svg">
<g clip-path="url(#clip0_1293_587)">
<path d="M2.61383 9.90981L2.60407 9.90542C2.41488 9.8205 2.22287 9.67244 2.06124 9.49944C1.89963 9.32646 1.76545 9.12538 1.69466 8.93195L1.69466 8.93193L1.60863 8.6966H0.940316C0.622184 8.6966 0.437784 8.69311 0.319819 8.66912C0.259179 8.65679 0.212813 8.63852 0.173524 8.61057C0.134635 8.58291 0.105962 8.54805 0.0778864 8.50844L0.077884 8.50844C0.0443811 8.46117 0.0229662 8.39019 0.00685557 8.26395C-0.0094399 8.13626 -0.0210478 7.9443 -0.0293805 7.64842C-0.0460595 7.05617 -0.0497559 6.04061 -0.0497559 4.27436C-0.0497559 2.48933 -0.0463301 1.47554 -0.0296495 0.895005C-0.0213192 0.605082 -0.00964324 0.42116 0.00693669 0.302605C0.0231139 0.186929 0.0451254 0.121619 0.0846169 0.0826074L2.61383 9.90981ZM2.61383 9.90981H2.61403M2.61383 9.90981H2.61403M2.61403 9.90981C2.81895 9.99942 3.08496 10.0431 3.3481 10.043C3.61549 10.043 3.88564 9.99794 4.0914 9.90534C4.28876 9.81651 4.50454 9.64445 4.67913 9.45685C4.85262 9.27043 4.99337 9.06017 5.03088 8.89152L5.03089 8.89151L5.07418 8.69667H6.80399H8.54353L8.753 9.10192C9.06597 9.70745 9.62042 10.05 10.2901 10.05C10.4148 10.05 10.5563 10.0382 10.6841 10.0191C10.8109 10.0002 10.9282 9.97368 11.0029 9.94287C11.4092 9.7751 11.8135 9.37805 11.9598 8.99951L12.0769 8.6966H12.903C13.3022 8.6966 13.5246 8.69399 13.6604 8.67082C13.7297 8.65899 13.7808 8.6412 13.823 8.61292C13.8649 8.58475 13.894 8.54874 13.9225 8.50845C13.9225 8.50845 13.9225 8.50844 13.9225 8.50844L13.8817 8.47952M2.61403 9.90981L12.8439 2.98874C13.3839 3.76411 13.8649 4.47244 13.9129 4.56276C13.9715 4.67293 14.0002 5.31713 14.0002 6.5197C14.0002 8.02057 13.981 8.33962 13.8817 8.47952M13.8817 8.47952C13.7712 8.63545 13.7058 8.6466 12.903 8.6466H12.0426L13.8817 8.47952ZM4.64009 6.49742L4.6254 6.47393C4.60343 6.43879 4.58992 6.38523 4.58271 6.33201L4.64009 6.49742ZM4.64009 6.49742H4.64156M4.64009 6.49742H4.64156M4.64156 6.49742C4.68095 6.54991 4.7307 6.58218 4.78636 6.59201C4.8491 6.6031 4.91153 6.58428 4.96462 6.54775C5.0701 6.47517 5.14807 6.32763 5.14807 6.15138C5.14807 6.07299 5.16047 6.02886 5.18823 5.99445C5.21792 5.95764 5.27084 5.9246 5.37062 5.88342L5.37063 5.88341C5.7712 5.71803 5.97901 5.37733 5.98469 5.03102C5.99038 4.6847 5.79382 4.33791 5.39879 4.16068C5.3084 4.12013 5.20056 4.08315 5.09938 4.05613C4.99906 4.02934 4.90135 4.01127 4.83222 4.01066L4.83178 4.06066M4.64156 6.49742L5.37832 4.2063C5.20324 4.12775 4.95733 4.06176 4.83178 4.06066M4.83178 4.06066C4.55915 4.05731 4.46571 4.00302 4.34592 3.77823C4.19644 3.49773 4.47508 3.15789 4.85456 3.15789C5.06039 3.15789 5.40239 3.44129 5.40239 3.61182C5.40239 3.79856 5.63138 3.9199 5.80385 3.82452C6.12505 3.64689 5.8422 3.01203 5.35161 2.80947M4.83178 4.06066L4.8324 4.01067C4.69779 4.00901 4.61733 3.99453 4.55666 3.95926C4.4966 3.92435 4.44872 3.86484 4.39004 3.75471C4.32678 3.63601 4.35203 3.50252 4.44054 3.39457C4.52932 3.2863 4.67959 3.20789 4.85456 3.20789C4.89561 3.20789 4.94786 3.22236 5.00538 3.24993C5.06223 3.27717 5.12086 3.31558 5.17376 3.35941C5.22673 3.4033 5.27258 3.45149 5.30473 3.49757C5.33777 3.54491 5.35239 3.58432 5.35239 3.61182C5.35239 3.72725 5.42326 3.81952 5.51504 3.86815C5.60683 3.91678 5.72521 3.92514 5.82805 3.86827C5.92423 3.81508 5.97461 3.72692 5.98729 3.62568C5.99975 3.52625 5.97618 3.41452 5.92782 3.30599C5.83118 3.08907 5.62884 2.86984 5.37069 2.76325L5.35161 2.80947M5.35161 2.80947L5.37069 2.76325C5.2618 2.7183 5.21154 2.6873 5.18451 2.64904C5.15815 2.61172 5.14807 2.55906 5.14807 2.45067C5.14807 2.36828 5.13659 2.29414 5.11403 2.23537C5.09195 2.17784 5.05594 2.12714 5.00164 2.10654L5.00164 2.10654C4.88599 2.06269 4.77875 2.06745 4.70068 2.13527C4.62547 2.2006 4.59156 2.31283 4.59156 2.45067C4.59156 2.55797 4.58137 2.61124 4.55529 2.64901C4.52876 2.68743 4.47983 2.7186 4.37486 2.76278L4.37485 2.76278C4.11659 2.87151 3.92344 3.03608 3.81399 3.23306C3.70416 3.43072 3.68035 3.65817 3.7567 3.88678C3.88462 4.26978 4.24306 4.53952 4.69208 4.60203C4.92261 4.63414 5.09029 4.68644 5.19902 4.75505C5.30563 4.82233 5.35239 4.90268 5.35239 4.99639C5.35239 5.22408 5.14138 5.37744 4.89897 5.4093C4.78005 5.42494 4.66184 5.40926 4.57081 5.36219C4.48137 5.31594 4.41749 5.23946 4.40108 5.12729C4.38368 5.00833 4.329 4.91096 4.2454 4.84782C4.16177 4.78466 4.05348 4.75901 3.93502 4.77558L3.93501 4.77558C3.81437 4.79248 3.73382 4.85555 3.69902 4.95008C3.66576 5.04041 3.67759 5.15057 3.718 5.25964C3.79911 5.47861 4.00465 5.71952 4.28475 5.854L4.30639 5.80893M5.35161 2.80947L4.30639 5.80893M4.30639 5.80893L4.28476 5.854C4.42925 5.92336 4.50505 5.96868 4.54449 6.01201C4.56275 6.03207 4.5725 6.0511 4.57752 6.07221C4.58278 6.09433 4.58348 6.12134 4.57957 6.15829L4.30639 5.80893ZM10.2011 6.58783L10.2011 6.58783C11.0125 6.51163 11.6758 6.96007 12.0518 7.82143L12.0059 7.84143L12.0518 7.82144C12.0753 7.87529 12.0901 7.90771 12.1083 7.93064C12.1238 7.95028 12.1427 7.96384 12.1788 7.97325C12.2175 7.98338 12.2741 7.98812 12.3631 7.98846C12.4515 7.9888 12.5676 7.98487 12.7237 7.97944L13.3041 7.95926L13.3241 6.52189L13.344 5.08766H11.4529H9.56106V5.91035C9.56106 6.31319 9.56401 6.52502 9.58122 6.63089C9.58543 6.65679 9.59009 6.6735 9.59451 6.68398C9.59623 6.68805 9.59768 6.69062 9.59868 6.69216L10.2011 6.58783ZM10.2011 6.58783C10.0822 6.59902 9.95891 6.61513 9.85594 6.63215C9.75498 6.64883 9.66819 6.66719 9.62581 6.68396L10.2011 6.58783ZM9.56106 1.52898V0.879726C9.56106 0.65696 9.55268 0.471766 9.53677 0.334325C9.52883 0.265713 9.51888 0.207726 9.50672 0.162386C9.49529 0.11976 9.4797 0.0791888 9.45489 0.0546722C9.44117 0.0411134 9.42216 0.0342561 9.40849 0.0301272C9.39253 0.0253059 9.37269 0.0211546 9.3495 0.0174248C9.30295 0.00993712 9.23783 0.00336159 9.15252 -0.0024999C8.98161 -0.014243 8.72514 -0.0234094 8.36439 -0.030432C7.64266 -0.044482 6.50049 -0.05 4.78392 -0.05C2.76922 -0.05 1.62894 -0.0466656 0.979118 -0.030205C0.654543 -0.0219832 0.450447 -0.010455 0.320345 0.00587662C0.194016 0.0217347 0.124585 0.0431189 0.0846262 0.0825981L9.56106 1.52898ZM8.85494 0.726743L8.8331 4.04104C8.82348 5.49466 8.81368 6.34512 8.79289 6.86465C8.77202 7.38619 8.74008 7.56717 8.69026 7.68768L8.5787 7.95751H6.83883H5.10321L5.03771 7.7305L5.03771 7.73049C4.98231 7.53867 4.79705 7.29507 4.58486 7.0896C4.37246 6.88391 4.12082 6.70456 3.92284 6.65022L3.92284 6.65022C2.98573 6.39309 2.08252 6.7971 1.71299 7.64596L1.56093 7.99515H1.13929H0.734876V4.36092V0.726743H4.79511H8.85494ZM12.959 4.38153L12.959 4.38161L12.959 4.38153ZM3.81149 7.40903C4.58481 7.77896 4.60794 8.85785 3.8556 9.24231C3.60983 9.3679 3.31467 9.38234 3.04926 9.30574C2.78371 9.22909 2.55305 9.06289 2.43255 8.8335C1.95445 7.92337 2.88162 6.96421 3.81149 7.40903ZM10.898 7.44528C11.5247 7.8511 11.5177 8.7989 10.8806 9.21392C10.6721 9.34976 10.3848 9.38035 10.1099 9.31947C9.83508 9.25862 9.58152 9.10826 9.43925 8.8937C9.14018 8.44265 9.27257 7.9337 9.60013 7.6082C9.92774 7.28266 10.4416 7.14973 10.898 7.44528ZM12.2206 3.29967C12.4254 3.58891 12.6118 3.85807 12.747 4.05866C12.8147 4.15901 12.8693 4.24192 12.9071 4.30152C12.9177 4.31836 12.9269 4.33318 12.9346 4.34591C12.9171 4.34788 12.8957 4.34986 12.8706 4.35181C12.7849 4.35847 12.6601 4.36452 12.5052 4.36962C12.1955 4.37981 11.7678 4.38615 11.2967 4.38615C10.6281 4.38615 10.1988 4.38075 9.93318 4.36593C9.8 4.35849 9.71031 4.3488 9.65293 4.33685C9.62408 4.33085 9.60604 4.32479 9.5955 4.3196C9.59315 4.31844 9.59146 4.31746 9.59027 4.31671C9.58953 4.3128 9.58825 4.30522 9.58685 4.29256C9.5848 4.27399 9.58289 4.24893 9.58117 4.21784C9.57775 4.15575 9.57524 4.0717 9.57374 3.97151C9.57075 3.77123 9.57185 3.50805 9.57773 3.23043L9.59805 2.26814H10.5325H11.4901L12.2206 3.29967Z" fill="white" stroke="white" stroke-width="0.1"/>
</g>
<defs>
<clipPath id="clip0_1293_587">
<rect width="14" height="10" fill="white"/>
</clipPath>
</defs>
</svg>
