<svg width="14" height="13" viewBox="0 0 14 13" fill="none" xmlns="http://www.w3.org/2000/svg">
<g clip-path="url(#clip0_1293_579)">
<mask id="path-1-outside-1_1293_579" maskUnits="userSpaceOnUse" x="-1" y="-1" width="16" height="15" fill="black">
<rect fill="white" x="-1" y="-1" width="16" height="15"/>
<path d="M0.625369 12.9426C0.418833 12.8685 0.164616 12.6388 0.0771305 12.4476C0.00308957 12.286 0 12.0457 0 6.50136C0 0.976181 0.00279681 0.716108 0.076281 0.556608C0.170085 0.351328 0.440659 0.115156 0.6551 0.0513891C0.885295 -0.0171297 13.1148 -0.0171297 13.3449 0.0513891C13.5593 0.115211 13.8298 0.351273 13.9238 0.556608C13.9967 0.716025 14 0.976181 14 6.50136C14 12.0265 13.9972 12.2866 13.9238 12.4461C13.83 12.6514 13.5594 12.8874 13.3449 12.9512C13.1081 13.0216 0.822047 13.0134 0.625199 12.9429L0.625369 12.9426ZM13.2788 12.2812L13.3804 12.1804V7.18179V2.18339H7.00002H0.619592V7.18179V12.1804L0.721187 12.2812L0.822782 12.382H6.99985H13.1769L13.2788 12.2812ZM1.65763 11.3638C1.52263 11.2553 1.5296 11.0368 1.67156 10.9153C1.78262 10.8205 1.79573 10.8195 2.79114 10.8195C3.74732 10.8195 3.80384 10.825 3.90749 10.9048C4.04416 11.0118 4.05717 11.2318 3.93247 11.3542C3.85397 11.4321 3.79451 11.4365 2.79776 11.4365C1.85591 11.4365 1.73631 11.4283 1.65576 11.3642L1.65763 11.3638ZM5.25847 11.3318L5.15959 11.2274L5.29652 10.4018L5.43362 9.57618L4.82915 8.9713C4.43264 8.57456 4.22451 8.3364 4.22451 8.27924C4.22451 8.23117 4.26656 8.14474 4.31778 8.087C4.40268 7.99113 4.4754 7.97269 5.13614 7.87958C5.53491 7.82322 5.90451 7.76706 5.9574 7.75463C6.03422 7.73529 6.11985 7.59407 6.3845 7.0452C6.56654 6.66746 6.74521 6.32583 6.78154 6.28602C6.86977 6.18932 7.13185 6.18992 7.22054 6.2872C7.25756 6.32754 7.43649 6.66928 7.61842 7.04655C7.88313 7.59558 7.96821 7.73656 8.04451 7.75311C8.09712 7.76416 8.46615 7.82094 8.86491 7.8784C9.52215 7.97317 9.5986 7.99274 9.68311 8.08751C9.73432 8.14497 9.77638 8.23144 9.77638 8.27924C9.77638 8.33643 9.56844 8.57439 9.1719 8.97113L8.56743 9.57601L8.70453 10.4016L8.84113 11.2273L8.74225 11.3318C8.6838 11.3937 8.59783 11.4362 8.53158 11.4362C8.47007 11.4362 8.10107 11.2685 7.71169 11.0637L7.00376 10.6912L6.29633 11.0637C5.89317 11.2759 5.53921 11.4362 5.47338 11.4362C5.40323 11.4362 5.3191 11.3951 5.25898 11.3318H5.25847ZM6.37873 10.3251C6.64065 10.1889 6.89736 10.0663 6.94888 10.0531C7.01485 10.0365 7.199 10.1086 7.57391 10.2993L8.1055 10.5696L8.00883 10.0059C7.95567 9.69581 7.91227 9.42536 7.91199 9.40502C7.91174 9.38568 8.10858 9.16961 8.34946 8.92695L8.78727 8.48598L8.46329 8.43944C8.28514 8.41457 8.04614 8.38113 7.93221 8.36676C7.5833 8.32255 7.54029 8.2818 7.27065 7.73928C7.13454 7.46576 7.01299 7.24182 7.00019 7.24182C6.98627 7.24182 6.86549 7.46562 6.72938 7.73928C6.45966 8.28188 6.41676 8.3225 6.06783 8.36676C5.95398 8.38057 5.71495 8.41402 5.53675 8.43944L5.21276 8.48598L5.65057 8.92695C5.89135 9.16953 6.08795 9.39396 6.08736 9.4256C6.08681 9.45737 6.04267 9.72843 5.98951 10.0281C5.93606 10.3278 5.89447 10.573 5.89726 10.573C5.89951 10.573 6.11674 10.4613 6.37873 10.3251ZM10.066 11.3541C9.94273 11.2317 9.95563 11.0115 10.0912 10.9047C10.1947 10.8237 10.2513 10.8193 11.2075 10.8193C12.2029 10.8193 12.2159 10.8203 12.3269 10.9151C12.4695 11.0367 12.4764 11.2554 12.3409 11.3638C12.2604 11.4285 12.1408 11.4362 11.199 11.4362C10.2024 11.4362 10.1429 11.4307 10.0643 11.3539L10.066 11.3541ZM1.67411 9.82053C1.52964 9.69731 1.52162 9.47936 1.65746 9.37012C1.73873 9.30491 1.86484 9.29777 2.9578 9.29777H4.16827L4.25832 9.39288C4.36938 9.5103 4.37391 9.66861 4.26953 9.79692L4.19019 9.89388L2.9894 9.90485L1.78844 9.91597L1.67411 9.82053ZM9.83057 9.87331C9.63879 9.7965 9.59374 9.53104 9.74766 9.38732C9.84147 9.29973 9.86834 9.29777 11.048 9.29777C12.1356 9.29777 12.2614 9.30325 12.3426 9.37012C12.4776 9.4787 12.4706 9.69714 12.3286 9.81867C12.2165 9.91427 12.2129 9.91458 11.0689 9.9121C10.4378 9.91096 9.88068 9.89282 9.83091 9.87348L9.83057 9.87331ZM1.68566 8.30066C1.50974 8.16859 1.53073 7.86837 1.72168 7.78195C1.78542 7.75321 2.08406 7.73524 2.50113 7.73524C3.12238 7.73524 3.18605 7.74072 3.28637 7.82056C3.42304 7.92721 3.43622 8.14752 3.31151 8.26997C3.23469 8.34622 3.17342 8.35243 2.49077 8.35243C1.96464 8.35243 1.73329 8.33857 1.68447 8.30099L1.68566 8.30066ZM10.6875 8.26997C10.5642 8.14757 10.5771 7.92738 10.7126 7.82056C10.8129 7.74237 10.8766 7.7354 11.4979 7.7354C12.2338 7.7354 12.3576 7.76301 12.4195 7.93928C12.4657 8.07079 12.3898 8.28475 12.2826 8.32561C12.2439 8.33943 11.8878 8.35327 11.4909 8.35327C10.8245 8.35327 10.7628 8.34778 10.6863 8.27098L10.6875 8.26997ZM1.63435 6.70676C1.53749 6.60066 1.53749 6.4026 1.63435 6.29648C1.70784 6.2158 1.75855 6.21368 3.56788 6.21368C5.37061 6.21368 5.4283 6.21581 5.50871 6.29563C5.61532 6.40145 5.61532 6.60119 5.50871 6.70692C5.42827 6.78677 5.37067 6.78922 3.56788 6.78922C1.75855 6.78922 1.70786 6.78704 1.63435 6.70642V6.70676ZM8.49166 6.70726C8.44573 6.66167 8.40909 6.57022 8.40909 6.5017C8.40909 6.43318 8.44573 6.34173 8.49166 6.29614C8.5721 6.21629 8.62971 6.21401 10.4325 6.21401C12.2369 6.21401 12.2926 6.21632 12.3653 6.29614C12.4583 6.39809 12.4564 6.60773 12.3626 6.71165C12.2947 6.78624 12.2058 6.78989 10.4333 6.78989C8.63062 6.78989 8.57293 6.7875 8.49251 6.70743L8.49166 6.70726ZM1.70706 5.21757C1.55425 5.14436 1.52423 4.94178 1.5387 4.08184L1.55263 3.28658L1.66884 3.18742L1.78521 3.08827H4.04409H6.30312L6.42409 3.2085L6.54522 3.32857V4.15233C6.54522 5.02857 6.52302 5.14432 6.35239 5.22213C6.21266 5.2854 1.84038 5.28094 1.70791 5.21656L1.70706 5.21757ZM5.92291 4.17762V3.70428L4.04816 3.71541L2.17342 3.72637L2.16237 4.18909L2.15116 4.65182H4.03763H5.9241L5.92291 4.17762ZM7.6349 5.21892C7.4356 5.12333 7.42452 4.7969 7.61825 4.69465C7.70871 4.64657 12.161 4.6306 12.2852 4.67812C12.3238 4.69194 12.3789 4.76087 12.4082 4.82938C12.4758 4.98908 12.4194 5.15782 12.2802 5.22145C12.1411 5.28444 7.76784 5.28258 7.63643 5.21926L7.6349 5.21892ZM7.58648 3.63328C7.53944 3.59377 7.48877 3.51075 7.47401 3.44914C7.45175 3.35935 7.47173 3.31246 7.57255 3.21272L7.69793 3.08844H9.9568H12.2157L12.3281 3.18422C12.4707 3.30578 12.4775 3.52431 12.3419 3.63278C12.2587 3.69991 12.0851 3.70529 9.9619 3.70529C7.84096 3.70529 7.66513 3.6997 7.5858 3.63311L7.58648 3.63328ZM1.53123 1.09387V0.620856H1.17717C0.856516 0.620856 0.813463 0.629142 0.721357 0.721698C0.628388 0.813977 0.619762 0.854515 0.619762 1.19454V1.56654H1.07558H1.53123V1.09387ZM3.10561 1.09387V0.620856H2.62906H2.15269V1.06638C2.15269 1.31144 2.16385 1.52431 2.18055 1.53939C2.19447 1.5532 2.41011 1.56688 2.65692 1.56688H3.10578L3.10561 1.09387ZM13.3806 1.19471C13.3806 0.854601 13.3721 0.813977 13.2788 0.721698L13.1773 0.620856H8.45225H3.72724V1.09387V1.56671H8.55401H13.3808L13.3806 1.19471Z"/>
</mask>
<path d="M0.625369 12.9426C0.418833 12.8685 0.164616 12.6388 0.0771305 12.4476C0.00308957 12.286 0 12.0457 0 6.50136C0 0.976181 0.00279681 0.716108 0.076281 0.556608C0.170085 0.351328 0.440659 0.115156 0.6551 0.0513891C0.885295 -0.0171297 13.1148 -0.0171297 13.3449 0.0513891C13.5593 0.115211 13.8298 0.351273 13.9238 0.556608C13.9967 0.716025 14 0.976181 14 6.50136C14 12.0265 13.9972 12.2866 13.9238 12.4461C13.83 12.6514 13.5594 12.8874 13.3449 12.9512C13.1081 13.0216 0.822047 13.0134 0.625199 12.9429L0.625369 12.9426ZM13.2788 12.2812L13.3804 12.1804V7.18179V2.18339H7.00002H0.619592V7.18179V12.1804L0.721187 12.2812L0.822782 12.382H6.99985H13.1769L13.2788 12.2812ZM1.65763 11.3638C1.52263 11.2553 1.5296 11.0368 1.67156 10.9153C1.78262 10.8205 1.79573 10.8195 2.79114 10.8195C3.74732 10.8195 3.80384 10.825 3.90749 10.9048C4.04416 11.0118 4.05717 11.2318 3.93247 11.3542C3.85397 11.4321 3.79451 11.4365 2.79776 11.4365C1.85591 11.4365 1.73631 11.4283 1.65576 11.3642L1.65763 11.3638ZM5.25847 11.3318L5.15959 11.2274L5.29652 10.4018L5.43362 9.57618L4.82915 8.9713C4.43264 8.57456 4.22451 8.3364 4.22451 8.27924C4.22451 8.23117 4.26656 8.14474 4.31778 8.087C4.40268 7.99113 4.4754 7.97269 5.13614 7.87958C5.53491 7.82322 5.90451 7.76706 5.9574 7.75463C6.03422 7.73529 6.11985 7.59407 6.3845 7.0452C6.56654 6.66746 6.74521 6.32583 6.78154 6.28602C6.86977 6.18932 7.13185 6.18992 7.22054 6.2872C7.25756 6.32754 7.43649 6.66928 7.61842 7.04655C7.88313 7.59558 7.96821 7.73656 8.04451 7.75311C8.09712 7.76416 8.46615 7.82094 8.86491 7.8784C9.52215 7.97317 9.5986 7.99274 9.68311 8.08751C9.73432 8.14497 9.77638 8.23144 9.77638 8.27924C9.77638 8.33643 9.56844 8.57439 9.1719 8.97113L8.56743 9.57601L8.70453 10.4016L8.84113 11.2273L8.74225 11.3318C8.6838 11.3937 8.59783 11.4362 8.53158 11.4362C8.47007 11.4362 8.10107 11.2685 7.71169 11.0637L7.00376 10.6912L6.29633 11.0637C5.89317 11.2759 5.53921 11.4362 5.47338 11.4362C5.40323 11.4362 5.3191 11.3951 5.25898 11.3318H5.25847ZM6.37873 10.3251C6.64065 10.1889 6.89736 10.0663 6.94888 10.0531C7.01485 10.0365 7.199 10.1086 7.57391 10.2993L8.1055 10.5696L8.00883 10.0059C7.95567 9.69581 7.91227 9.42536 7.91199 9.40502C7.91174 9.38568 8.10858 9.16961 8.34946 8.92695L8.78727 8.48598L8.46329 8.43944C8.28514 8.41457 8.04614 8.38113 7.93221 8.36676C7.5833 8.32255 7.54029 8.2818 7.27065 7.73928C7.13454 7.46576 7.01299 7.24182 7.00019 7.24182C6.98627 7.24182 6.86549 7.46562 6.72938 7.73928C6.45966 8.28188 6.41676 8.3225 6.06783 8.36676C5.95398 8.38057 5.71495 8.41402 5.53675 8.43944L5.21276 8.48598L5.65057 8.92695C5.89135 9.16953 6.08795 9.39396 6.08736 9.4256C6.08681 9.45737 6.04267 9.72843 5.98951 10.0281C5.93606 10.3278 5.89447 10.573 5.89726 10.573C5.89951 10.573 6.11674 10.4613 6.37873 10.3251ZM10.066 11.3541C9.94273 11.2317 9.95563 11.0115 10.0912 10.9047C10.1947 10.8237 10.2513 10.8193 11.2075 10.8193C12.2029 10.8193 12.2159 10.8203 12.3269 10.9151C12.4695 11.0367 12.4764 11.2554 12.3409 11.3638C12.2604 11.4285 12.1408 11.4362 11.199 11.4362C10.2024 11.4362 10.1429 11.4307 10.0643 11.3539L10.066 11.3541ZM1.67411 9.82053C1.52964 9.69731 1.52162 9.47936 1.65746 9.37012C1.73873 9.30491 1.86484 9.29777 2.9578 9.29777H4.16827L4.25832 9.39288C4.36938 9.5103 4.37391 9.66861 4.26953 9.79692L4.19019 9.89388L2.9894 9.90485L1.78844 9.91597L1.67411 9.82053ZM9.83057 9.87331C9.63879 9.7965 9.59374 9.53104 9.74766 9.38732C9.84147 9.29973 9.86834 9.29777 11.048 9.29777C12.1356 9.29777 12.2614 9.30325 12.3426 9.37012C12.4776 9.4787 12.4706 9.69714 12.3286 9.81867C12.2165 9.91427 12.2129 9.91458 11.0689 9.9121C10.4378 9.91096 9.88068 9.89282 9.83091 9.87348L9.83057 9.87331ZM1.68566 8.30066C1.50974 8.16859 1.53073 7.86837 1.72168 7.78195C1.78542 7.75321 2.08406 7.73524 2.50113 7.73524C3.12238 7.73524 3.18605 7.74072 3.28637 7.82056C3.42304 7.92721 3.43622 8.14752 3.31151 8.26997C3.23469 8.34622 3.17342 8.35243 2.49077 8.35243C1.96464 8.35243 1.73329 8.33857 1.68447 8.30099L1.68566 8.30066ZM10.6875 8.26997C10.5642 8.14757 10.5771 7.92738 10.7126 7.82056C10.8129 7.74237 10.8766 7.7354 11.4979 7.7354C12.2338 7.7354 12.3576 7.76301 12.4195 7.93928C12.4657 8.07079 12.3898 8.28475 12.2826 8.32561C12.2439 8.33943 11.8878 8.35327 11.4909 8.35327C10.8245 8.35327 10.7628 8.34778 10.6863 8.27098L10.6875 8.26997ZM1.63435 6.70676C1.53749 6.60066 1.53749 6.4026 1.63435 6.29648C1.70784 6.2158 1.75855 6.21368 3.56788 6.21368C5.37061 6.21368 5.4283 6.21581 5.50871 6.29563C5.61532 6.40145 5.61532 6.60119 5.50871 6.70692C5.42827 6.78677 5.37067 6.78922 3.56788 6.78922C1.75855 6.78922 1.70786 6.78704 1.63435 6.70642V6.70676ZM8.49166 6.70726C8.44573 6.66167 8.40909 6.57022 8.40909 6.5017C8.40909 6.43318 8.44573 6.34173 8.49166 6.29614C8.5721 6.21629 8.62971 6.21401 10.4325 6.21401C12.2369 6.21401 12.2926 6.21632 12.3653 6.29614C12.4583 6.39809 12.4564 6.60773 12.3626 6.71165C12.2947 6.78624 12.2058 6.78989 10.4333 6.78989C8.63062 6.78989 8.57293 6.7875 8.49251 6.70743L8.49166 6.70726ZM1.70706 5.21757C1.55425 5.14436 1.52423 4.94178 1.5387 4.08184L1.55263 3.28658L1.66884 3.18742L1.78521 3.08827H4.04409H6.30312L6.42409 3.2085L6.54522 3.32857V4.15233C6.54522 5.02857 6.52302 5.14432 6.35239 5.22213C6.21266 5.2854 1.84038 5.28094 1.70791 5.21656L1.70706 5.21757ZM5.92291 4.17762V3.70428L4.04816 3.71541L2.17342 3.72637L2.16237 4.18909L2.15116 4.65182H4.03763H5.9241L5.92291 4.17762ZM7.6349 5.21892C7.4356 5.12333 7.42452 4.7969 7.61825 4.69465C7.70871 4.64657 12.161 4.6306 12.2852 4.67812C12.3238 4.69194 12.3789 4.76087 12.4082 4.82938C12.4758 4.98908 12.4194 5.15782 12.2802 5.22145C12.1411 5.28444 7.76784 5.28258 7.63643 5.21926L7.6349 5.21892ZM7.58648 3.63328C7.53944 3.59377 7.48877 3.51075 7.47401 3.44914C7.45175 3.35935 7.47173 3.31246 7.57255 3.21272L7.69793 3.08844H9.9568H12.2157L12.3281 3.18422C12.4707 3.30578 12.4775 3.52431 12.3419 3.63278C12.2587 3.69991 12.0851 3.70529 9.9619 3.70529C7.84096 3.70529 7.66513 3.6997 7.5858 3.63311L7.58648 3.63328ZM1.53123 1.09387V0.620856H1.17717C0.856516 0.620856 0.813463 0.629142 0.721357 0.721698C0.628388 0.813977 0.619762 0.854515 0.619762 1.19454V1.56654H1.07558H1.53123V1.09387ZM3.10561 1.09387V0.620856H2.62906H2.15269V1.06638C2.15269 1.31144 2.16385 1.52431 2.18055 1.53939C2.19447 1.5532 2.41011 1.56688 2.65692 1.56688H3.10578L3.10561 1.09387ZM13.3806 1.19471C13.3806 0.854601 13.3721 0.813977 13.2788 0.721698L13.1773 0.620856H8.45225H3.72724V1.09387V1.56671H8.55401H13.3808L13.3806 1.19471Z" fill="white"/>
<path d="M0.625369 12.9426C0.418833 12.8685 0.164616 12.6388 0.0771305 12.4476C0.00308957 12.286 0 12.0457 0 6.50136C0 0.976181 0.00279681 0.716108 0.076281 0.556608C0.170085 0.351328 0.440659 0.115156 0.6551 0.0513891C0.885295 -0.0171297 13.1148 -0.0171297 13.3449 0.0513891C13.5593 0.115211 13.8298 0.351273 13.9238 0.556608C13.9967 0.716025 14 0.976181 14 6.50136C14 12.0265 13.9972 12.2866 13.9238 12.4461C13.83 12.6514 13.5594 12.8874 13.3449 12.9512C13.1081 13.0216 0.822047 13.0134 0.625199 12.9429L0.625369 12.9426ZM13.2788 12.2812L13.3804 12.1804V7.18179V2.18339H7.00002H0.619592V7.18179V12.1804L0.721187 12.2812L0.822782 12.382H6.99985H13.1769L13.2788 12.2812ZM1.65763 11.3638C1.52263 11.2553 1.5296 11.0368 1.67156 10.9153C1.78262 10.8205 1.79573 10.8195 2.79114 10.8195C3.74732 10.8195 3.80384 10.825 3.90749 10.9048C4.04416 11.0118 4.05717 11.2318 3.93247 11.3542C3.85397 11.4321 3.79451 11.4365 2.79776 11.4365C1.85591 11.4365 1.73631 11.4283 1.65576 11.3642L1.65763 11.3638ZM5.25847 11.3318L5.15959 11.2274L5.29652 10.4018L5.43362 9.57618L4.82915 8.9713C4.43264 8.57456 4.22451 8.3364 4.22451 8.27924C4.22451 8.23117 4.26656 8.14474 4.31778 8.087C4.40268 7.99113 4.4754 7.97269 5.13614 7.87958C5.53491 7.82322 5.90451 7.76706 5.9574 7.75463C6.03422 7.73529 6.11985 7.59407 6.3845 7.0452C6.56654 6.66746 6.74521 6.32583 6.78154 6.28602C6.86977 6.18932 7.13185 6.18992 7.22054 6.2872C7.25756 6.32754 7.43649 6.66928 7.61842 7.04655C7.88313 7.59558 7.96821 7.73656 8.04451 7.75311C8.09712 7.76416 8.46615 7.82094 8.86491 7.8784C9.52215 7.97317 9.5986 7.99274 9.68311 8.08751C9.73432 8.14497 9.77638 8.23144 9.77638 8.27924C9.77638 8.33643 9.56844 8.57439 9.1719 8.97113L8.56743 9.57601L8.70453 10.4016L8.84113 11.2273L8.74225 11.3318C8.6838 11.3937 8.59783 11.4362 8.53158 11.4362C8.47007 11.4362 8.10107 11.2685 7.71169 11.0637L7.00376 10.6912L6.29633 11.0637C5.89317 11.2759 5.53921 11.4362 5.47338 11.4362C5.40323 11.4362 5.3191 11.3951 5.25898 11.3318H5.25847ZM6.37873 10.3251C6.64065 10.1889 6.89736 10.0663 6.94888 10.0531C7.01485 10.0365 7.199 10.1086 7.57391 10.2993L8.1055 10.5696L8.00883 10.0059C7.95567 9.69581 7.91227 9.42536 7.91199 9.40502C7.91174 9.38568 8.10858 9.16961 8.34946 8.92695L8.78727 8.48598L8.46329 8.43944C8.28514 8.41457 8.04614 8.38113 7.93221 8.36676C7.5833 8.32255 7.54029 8.2818 7.27065 7.73928C7.13454 7.46576 7.01299 7.24182 7.00019 7.24182C6.98627 7.24182 6.86549 7.46562 6.72938 7.73928C6.45966 8.28188 6.41676 8.3225 6.06783 8.36676C5.95398 8.38057 5.71495 8.41402 5.53675 8.43944L5.21276 8.48598L5.65057 8.92695C5.89135 9.16953 6.08795 9.39396 6.08736 9.4256C6.08681 9.45737 6.04267 9.72843 5.98951 10.0281C5.93606 10.3278 5.89447 10.573 5.89726 10.573C5.89951 10.573 6.11674 10.4613 6.37873 10.3251ZM10.066 11.3541C9.94273 11.2317 9.95563 11.0115 10.0912 10.9047C10.1947 10.8237 10.2513 10.8193 11.2075 10.8193C12.2029 10.8193 12.2159 10.8203 12.3269 10.9151C12.4695 11.0367 12.4764 11.2554 12.3409 11.3638C12.2604 11.4285 12.1408 11.4362 11.199 11.4362C10.2024 11.4362 10.1429 11.4307 10.0643 11.3539L10.066 11.3541ZM1.67411 9.82053C1.52964 9.69731 1.52162 9.47936 1.65746 9.37012C1.73873 9.30491 1.86484 9.29777 2.9578 9.29777H4.16827L4.25832 9.39288C4.36938 9.5103 4.37391 9.66861 4.26953 9.79692L4.19019 9.89388L2.9894 9.90485L1.78844 9.91597L1.67411 9.82053ZM9.83057 9.87331C9.63879 9.7965 9.59374 9.53104 9.74766 9.38732C9.84147 9.29973 9.86834 9.29777 11.048 9.29777C12.1356 9.29777 12.2614 9.30325 12.3426 9.37012C12.4776 9.4787 12.4706 9.69714 12.3286 9.81867C12.2165 9.91427 12.2129 9.91458 11.0689 9.9121C10.4378 9.91096 9.88068 9.89282 9.83091 9.87348L9.83057 9.87331ZM1.68566 8.30066C1.50974 8.16859 1.53073 7.86837 1.72168 7.78195C1.78542 7.75321 2.08406 7.73524 2.50113 7.73524C3.12238 7.73524 3.18605 7.74072 3.28637 7.82056C3.42304 7.92721 3.43622 8.14752 3.31151 8.26997C3.23469 8.34622 3.17342 8.35243 2.49077 8.35243C1.96464 8.35243 1.73329 8.33857 1.68447 8.30099L1.68566 8.30066ZM10.6875 8.26997C10.5642 8.14757 10.5771 7.92738 10.7126 7.82056C10.8129 7.74237 10.8766 7.7354 11.4979 7.7354C12.2338 7.7354 12.3576 7.76301 12.4195 7.93928C12.4657 8.07079 12.3898 8.28475 12.2826 8.32561C12.2439 8.33943 11.8878 8.35327 11.4909 8.35327C10.8245 8.35327 10.7628 8.34778 10.6863 8.27098L10.6875 8.26997ZM1.63435 6.70676C1.53749 6.60066 1.53749 6.4026 1.63435 6.29648C1.70784 6.2158 1.75855 6.21368 3.56788 6.21368C5.37061 6.21368 5.4283 6.21581 5.50871 6.29563C5.61532 6.40145 5.61532 6.60119 5.50871 6.70692C5.42827 6.78677 5.37067 6.78922 3.56788 6.78922C1.75855 6.78922 1.70786 6.78704 1.63435 6.70642V6.70676ZM8.49166 6.70726C8.44573 6.66167 8.40909 6.57022 8.40909 6.5017C8.40909 6.43318 8.44573 6.34173 8.49166 6.29614C8.5721 6.21629 8.62971 6.21401 10.4325 6.21401C12.2369 6.21401 12.2926 6.21632 12.3653 6.29614C12.4583 6.39809 12.4564 6.60773 12.3626 6.71165C12.2947 6.78624 12.2058 6.78989 10.4333 6.78989C8.63062 6.78989 8.57293 6.7875 8.49251 6.70743L8.49166 6.70726ZM1.70706 5.21757C1.55425 5.14436 1.52423 4.94178 1.5387 4.08184L1.55263 3.28658L1.66884 3.18742L1.78521 3.08827H4.04409H6.30312L6.42409 3.2085L6.54522 3.32857V4.15233C6.54522 5.02857 6.52302 5.14432 6.35239 5.22213C6.21266 5.2854 1.84038 5.28094 1.70791 5.21656L1.70706 5.21757ZM5.92291 4.17762V3.70428L4.04816 3.71541L2.17342 3.72637L2.16237 4.18909L2.15116 4.65182H4.03763H5.9241L5.92291 4.17762ZM7.6349 5.21892C7.4356 5.12333 7.42452 4.7969 7.61825 4.69465C7.70871 4.64657 12.161 4.6306 12.2852 4.67812C12.3238 4.69194 12.3789 4.76087 12.4082 4.82938C12.4758 4.98908 12.4194 5.15782 12.2802 5.22145C12.1411 5.28444 7.76784 5.28258 7.63643 5.21926L7.6349 5.21892ZM7.58648 3.63328C7.53944 3.59377 7.48877 3.51075 7.47401 3.44914C7.45175 3.35935 7.47173 3.31246 7.57255 3.21272L7.69793 3.08844H9.9568H12.2157L12.3281 3.18422C12.4707 3.30578 12.4775 3.52431 12.3419 3.63278C12.2587 3.69991 12.0851 3.70529 9.9619 3.70529C7.84096 3.70529 7.66513 3.6997 7.5858 3.63311L7.58648 3.63328ZM1.53123 1.09387V0.620856H1.17717C0.856516 0.620856 0.813463 0.629142 0.721357 0.721698C0.628388 0.813977 0.619762 0.854515 0.619762 1.19454V1.56654H1.07558H1.53123V1.09387ZM3.10561 1.09387V0.620856H2.62906H2.15269V1.06638C2.15269 1.31144 2.16385 1.52431 2.18055 1.53939C2.19447 1.5532 2.41011 1.56688 2.65692 1.56688H3.10578L3.10561 1.09387ZM13.3806 1.19471C13.3806 0.854601 13.3721 0.813977 13.2788 0.721698L13.1773 0.620856H8.45225H3.72724V1.09387V1.56671H8.55401H13.3808L13.3806 1.19471Z" stroke="white" stroke-width="0.4" mask="url(#path-1-outside-1_1293_579)"/>
</g>
<defs>
<clipPath id="clip0_1293_579">
<rect width="14" height="13" fill="white"/>
</clipPath>
</defs>
</svg>
