<svg width="16" height="15" viewBox="0 0 16 15" fill="none" xmlns="http://www.w3.org/2000/svg">
<g clip-path="url(#clip0_1293_575)">
<path d="M6.55314 14.9309C6.17593 14.7874 5.97645 14.6354 5.75542 14.324C5.18917 13.526 5.44536 12.3843 6.30018 11.896C6.6788 11.6797 7.3528 11.6573 7.7352 11.8486C8.03323 11.9975 8.37902 12.3332 8.53217 12.6218C8.68689 12.9134 8.68689 13.7994 8.53217 14.091C8.37991 14.3782 8.03202 14.7166 7.74764 14.8543C7.42148 15.0122 6.86117 15.048 6.55314 14.9311V14.9309ZM7.41212 13.7686C7.55048 13.6574 7.59157 13.5631 7.59157 13.3563C7.59157 12.7447 6.79939 12.5807 6.57048 13.145C6.50161 13.3146 6.50163 13.3982 6.5701 13.5668C6.71989 13.9358 7.09257 14.0252 7.41193 13.7688L7.41212 13.7686ZM12.277 14.9309C11.8998 14.7874 11.7003 14.6354 11.4793 14.324C10.9131 13.526 11.1693 12.3843 12.0241 11.896C12.4027 11.6797 13.0769 11.6573 13.4593 11.8486C13.7573 11.9975 14.1029 12.3332 14.2561 12.6218C14.4108 12.9134 14.4108 13.7994 14.2561 14.091C14.1038 14.3782 13.7559 14.7166 13.4715 14.8543C13.1454 15.0122 12.585 15.048 12.277 14.9311V14.9309ZM13.136 13.7686C13.2744 13.6574 13.3155 13.5631 13.3155 13.3563C13.3155 12.7447 12.5233 12.5807 12.2944 13.145C12.2255 13.3146 12.2255 13.3982 12.294 13.5668C12.4438 13.9358 12.8166 14.0252 13.136 13.7688V13.7686ZM5.854 11.3039C5.35833 11.1248 5.12459 10.7812 4.8791 9.87034C4.6203 8.91011 4.61593 8.82598 4.81482 8.59458L4.96826 8.4162L9.49671 8.36444L14.025 8.31268L14.4907 6.3998C14.7514 5.32916 14.9394 4.41715 14.9179 4.32856C14.8963 4.24154 14.8188 4.10847 14.745 4.0328C14.6138 3.89882 14.5007 3.89541 10.219 3.89541H5.82761L5.64213 3.73243C5.38673 3.50796 5.38757 3.16875 5.64421 2.9433L5.83195 2.7784L10.3404 2.79725L14.8489 2.8163L15.1526 2.99026C15.5589 3.22324 15.8769 3.66354 15.9703 4.12247C16.0422 4.47614 16.0203 4.5954 15.4694 6.85276C15.0019 8.76854 14.8654 9.23643 14.7445 9.33637C14.6055 9.45144 14.3053 9.45971 10.2373 9.45971C6.11862 9.45971 5.88103 9.46594 5.91451 9.58132C5.93304 9.64816 5.97106 9.79696 5.9967 9.91171C6.0214 10.0265 6.07361 10.1595 6.11036 10.2075C6.16255 10.2753 7.03445 10.2944 10.0565 10.2944C13.3278 10.2944 13.9661 10.3102 14.1286 10.3962C14.4558 10.569 14.5073 10.9626 14.2387 11.2367L14.0713 11.4076L10.0991 11.4045C6.85386 11.402 6.0767 11.3826 5.854 11.3031V11.3039ZM4.47609 7.63766C4.27103 7.53677 4.22937 7.40484 3.36735 4.14499C2.95342 2.57947 2.58083 1.25683 2.53947 1.20592C2.48296 1.13624 2.20594 1.11317 1.42018 1.11317C0.423575 1.11317 0.3677 1.10687 0.190615 0.950185C-0.0638638 0.726662 -0.0638638 0.386667 0.190615 0.163175C0.368812 0.00680284 0.420171 0 1.48898 0C2.57509 0 2.61041 0.00317329 2.96717 0.19454C3.22412 0.331365 3.37685 0.47086 3.48102 0.664245C3.56255 0.815257 4.0019 2.34301 4.45743 4.05897C5.35592 7.44342 5.35784 7.45776 4.96034 7.64266C4.75836 7.73661 4.67588 7.73562 4.47609 7.63631V7.63766Z" fill="white"/>
</g>
<defs>
<clipPath id="clip0_1293_575">
<rect width="16" height="15" fill="white"/>
</clipPath>
</defs>
</svg>
