<svg width="16" height="16" viewBox="0 0 16 16" fill="none" xmlns="http://www.w3.org/2000/svg">
<g clip-path="url(#clip0_1293_572)">
<path d="M0.259205 15.9392C0.163294 15.8917 0.109637 15.836 0.0598638 15.7333C-0.00584792 15.5977 -0.00749345 15.5672 0.0090044 14.8363C0.0313744 13.908 0.0733343 13.6917 0.347953 13.1478C0.5367 12.7736 0.932208 12.3205 1.26837 12.0931C1.35338 12.0358 1.4283 11.9843 1.43529 11.9787C1.44088 11.9732 1.34209 11.8582 1.21291 11.7229C0.83874 11.3311 0.636919 10.9318 0.544223 10.3998C0.454743 9.88602 0.52737 9.39569 0.767288 8.91706C1.02902 8.39269 1.36952 8.05251 1.892 7.79293C2.51042 7.48569 3.11252 7.44604 3.78916 7.66814C4.38778 7.86448 4.9012 8.32218 5.19103 8.91706C5.38006 9.3051 5.44718 9.59745 5.4455 10.0277C5.44313 10.7042 5.16483 11.3522 4.68619 11.7954L4.50324 11.9649L4.68893 12.0911C5.13725 12.3956 5.56833 12.9491 5.76448 13.4723C5.92555 13.9016 5.9538 14.1176 5.95632 14.9298C5.95822 15.6467 5.95528 15.6906 5.89385 15.7726C5.85834 15.8202 5.79051 15.8882 5.74298 15.9237C5.65741 15.9875 5.62767 15.9882 3.02336 15.9961C0.408009 16.0045 0.389337 16.0046 0.258864 15.9389L0.259205 15.9392ZM5.02685 14.6195C4.99665 13.8953 4.8434 13.5194 4.39759 13.0778C3.99032 12.6742 3.54556 12.4947 2.95868 12.4972C2.07733 12.5 1.33507 13.0417 1.0448 13.8919C0.971255 14.1073 0.957196 14.2067 0.944613 14.6038L0.930789 15.0654H2.98821H5.04579L5.02685 14.6195ZM3.40925 11.4772C4.05045 11.3024 4.51287 10.6897 4.51365 10.0135C4.51412 9.58311 4.3608 9.21803 4.05318 8.91706C3.43773 8.31507 2.50347 8.31777 1.89814 8.92269C1.29281 9.52819 1.29226 10.4614 1.89678 11.0781C2.3052 11.4947 2.83275 11.6339 3.40925 11.4769V11.4772ZM6.26335 11.4048C6.20742 11.3707 6.13322 11.2968 6.09882 11.2406C6.03703 11.1396 6.03655 11.0894 6.04438 6.35162L6.05274 1.56439L6.12238 1.36107C6.33293 0.745556 6.82709 0.264144 7.44489 0.0727226L7.67939 0H11.0423H14.405L14.6722 0.0955978C15.2975 0.319631 15.7422 0.790459 15.9429 1.44097C15.9971 1.61633 16.0002 1.81654 16.0002 4.99038V8.35388L15.9144 8.60688C15.7122 9.20343 15.2398 9.67494 14.6393 9.88003C14.4366 9.9494 14.4291 9.94945 11.5425 9.96539L8.64896 9.98212L7.70977 10.6892C7.19316 11.078 6.7401 11.4124 6.70299 11.4323C6.59757 11.4888 6.37766 11.4756 6.26352 11.407L6.26335 11.4048ZM7.68144 9.53656C8.06738 9.24856 8.34914 9.06018 8.41259 9.04748C8.46935 9.03629 9.80158 9.02785 11.373 9.02785C14.1785 9.02785 14.2333 9.0269 14.4019 8.96349C14.6289 8.87846 14.8641 8.663 14.9738 8.43958L15.0613 8.26119L15.0697 5.08529C15.0753 2.79548 15.0693 1.86133 15.0446 1.73681C14.9691 1.3717 14.6293 1.03175 14.2643 0.956319C14.1399 0.931147 13.2057 0.923394 10.9165 0.931225L7.74152 0.93959L7.56317 1.02716C7.33975 1.1368 7.12433 1.37219 7.03938 1.59921C6.97591 1.76927 6.97504 1.81152 6.97504 5.91938C6.97504 9.2337 6.98336 10.0616 7.01412 10.0369C7.03649 10.0201 7.33593 9.79535 7.68127 9.53759L7.68144 9.53656ZM10.825 7.65773C10.5473 7.5162 10.4764 7.14519 10.6852 6.92726C10.7918 6.81594 10.966 6.75845 11.1139 6.78642C11.5378 6.86585 11.6159 7.44978 11.23 7.65482C11.0935 7.72726 10.9631 7.72832 10.825 7.65756V7.65773ZM10.8774 6.1664C10.6084 6.06963 10.5571 5.95949 10.557 5.47553C10.557 5.14312 10.5655 5.08749 10.6257 4.99055C10.7188 4.84203 10.787 4.80616 11.0735 4.75582C11.3711 4.70352 11.5434 4.60226 11.6671 4.40723C12.1095 3.70948 11.3715 2.90447 10.6374 3.28413C10.4204 3.39628 10.2287 3.73317 10.2283 4.00282C10.2281 4.22517 10.0047 4.4272 9.75934 4.4272C9.45027 4.4272 9.26565 4.18046 9.30672 3.82221C9.38781 3.11528 9.85539 2.53358 10.5079 2.32781C10.7979 2.23635 11.2628 2.23813 11.5423 2.33071C12.0952 2.51558 12.5123 2.95035 12.6805 3.51697C12.7568 3.77429 12.7471 4.23409 12.6582 4.49088C12.4968 4.96459 12.1806 5.32057 11.7365 5.5288C11.4961 5.64151 11.4785 5.65632 11.4785 5.74526C11.4785 6.04791 11.1621 6.26873 10.876 6.16572L10.8774 6.1664Z" fill="white"/>
</g>
<defs>
<clipPath id="clip0_1293_572">
<rect width="16" height="16" fill="white"/>
</clipPath>
</defs>
</svg>
