<svg width="15" height="15" viewBox="0 0 15 15" fill="none" xmlns="http://www.w3.org/2000/svg">
<path d="M14.6875 14.1519H0.31251C0.14001 14.1519 0 14.2853 0 14.4498C0 14.6142 0.14001 14.7477 0.31251 14.7477H14.6875C14.86 14.7477 15 14.6142 15 14.4498C15 14.2853 14.86 14.1519 14.6875 14.1519Z" fill="white"/>
<mask id="path-2-inside-1_1212_238" fill="white">
<path d="M2.81276 10.5776H0.937754C0.765254 10.5776 0.625244 10.7111 0.625244 10.8755V14.45C0.625244 14.6143 0.765254 14.7478 0.937754 14.7478H2.81276C2.98526 14.7478 3.12527 14.6143 3.12527 14.4499V10.8755C3.12527 10.7111 2.98526 10.5776 2.81276 10.5776ZM2.50025 14.1521H1.25026V11.1734H2.50028V14.1521H2.50025Z"/>
</mask>
<path d="M2.81276 10.5776H0.937754C0.765254 10.5776 0.625244 10.7111 0.625244 10.8755V14.45C0.625244 14.6143 0.765254 14.7478 0.937754 14.7478H2.81276C2.98526 14.7478 3.12527 14.6143 3.12527 14.4499V10.8755C3.12527 10.7111 2.98526 10.5776 2.81276 10.5776ZM2.50025 14.1521H1.25026V11.1734H2.50028V14.1521H2.50025Z" fill="white"/>
<path d="M1.25026 14.1521H0.250264V15.1521H1.25026V14.1521ZM1.25026 11.1734V10.1734H0.250264V11.1734H1.25026ZM2.50028 11.1734H3.50028V10.1734H2.50028V11.1734ZM2.50028 14.1521V15.1521H3.50028V14.1521H2.50028ZM2.81276 9.57764H0.937754V11.5776H2.81276V9.57764ZM0.937754 9.57764C0.258694 9.57764 -0.374756 10.1142 -0.374756 10.8755H1.62524C1.62524 11.308 1.27181 11.5776 0.937754 11.5776V9.57764ZM-0.374756 10.8755V14.45H1.62524V10.8755H-0.374756ZM-0.374756 14.45C-0.374756 15.2113 0.258761 15.7478 0.937754 15.7478V13.7478C1.27175 13.7478 1.62524 14.0174 1.62524 14.45H-0.374756ZM0.937754 15.7478H2.81276V13.7478H0.937754V15.7478ZM2.81276 15.7478C3.49181 15.7478 4.12527 15.2113 4.12527 14.4499H2.12527C2.12527 14.0174 2.4787 13.7478 2.81276 13.7478V15.7478ZM4.12527 14.4499V10.8755H2.12527V14.4499H4.12527ZM4.12527 10.8755C4.12527 10.114 3.49169 9.57764 2.81276 9.57764V11.5776C2.47882 11.5776 2.12527 11.3081 2.12527 10.8755H4.12527ZM2.50025 13.1521H1.25026V15.1521H2.50025V13.1521ZM2.25026 14.1521V11.1734H0.250264V14.1521H2.25026ZM1.25026 12.1734H2.50028V10.1734H1.25026V12.1734ZM1.50028 11.1734V14.1521H3.50028V11.1734H1.50028ZM2.50028 13.1521H2.50025V15.1521H2.50028V13.1521Z" fill="white" mask="url(#path-2-inside-1_1212_238)"/>
<mask id="path-4-inside-2_1212_238" fill="white">
<path d="M6.56251 7.59912H4.68751C4.51501 7.59912 4.375 7.73257 4.375 7.89699V14.4499C4.375 14.6144 4.51501 14.7478 4.68751 14.7478H6.56251C6.73501 14.7478 6.87502 14.6144 6.87502 14.4499V7.89699C6.87502 7.73257 6.73501 7.59912 6.56251 7.59912ZM6.25 14.1521H4.99999V8.19483H6.25V14.1521Z"/>
</mask>
<path d="M6.56251 7.59912H4.68751C4.51501 7.59912 4.375 7.73257 4.375 7.89699V14.4499C4.375 14.6144 4.51501 14.7478 4.68751 14.7478H6.56251C6.73501 14.7478 6.87502 14.6144 6.87502 14.4499V7.89699C6.87502 7.73257 6.73501 7.59912 6.56251 7.59912ZM6.25 14.1521H4.99999V8.19483H6.25V14.1521Z" fill="white"/>
<path d="M6.25 14.1521V15.1521H7.25V14.1521H6.25ZM4.99999 14.1521H3.99999V15.1521H4.99999V14.1521ZM4.99999 8.19483V7.19483H3.99999V8.19483H4.99999ZM6.25 8.19483H7.25V7.19483H6.25V8.19483ZM6.56251 6.59912H4.68751V8.59912H6.56251V6.59912ZM4.68751 6.59912C4.00848 6.59912 3.375 7.13561 3.375 7.89699H5.375C5.375 8.32953 5.02154 8.59912 4.68751 8.59912V6.59912ZM3.375 7.89699V14.4499H5.375V7.89699H3.375ZM3.375 14.4499C3.375 15.2113 4.00849 15.7478 4.68751 15.7478V13.7478C5.02153 13.7478 5.375 14.0174 5.375 14.4499H3.375ZM4.68751 15.7478H6.56251V13.7478H4.68751V15.7478ZM6.56251 15.7478C7.24154 15.7478 7.87502 15.2113 7.87502 14.4499H5.87502C5.87502 14.0174 6.22849 13.7478 6.56251 13.7478V15.7478ZM7.87502 14.4499V7.89699H5.87502V14.4499H7.87502ZM7.87502 7.89699C7.87502 7.13561 7.24154 6.59912 6.56251 6.59912V8.59912C6.22849 8.59912 5.87502 8.32953 5.87502 7.89699H7.87502ZM6.25 13.1521H4.99999V15.1521H6.25V13.1521ZM5.99999 14.1521V8.19483H3.99999V14.1521H5.99999ZM4.99999 9.19483H6.25V7.19483H4.99999V9.19483ZM5.25 8.19483V14.1521H7.25V8.19483H5.25Z" fill="white" mask="url(#path-4-inside-2_1212_238)"/>
<mask id="path-6-inside-3_1212_238" fill="white">
<path d="M10.3125 8.79028H8.43751C8.26501 8.79028 8.125 8.92374 8.125 9.08817V14.45C8.125 14.6145 8.26501 14.7479 8.43751 14.7479H10.3125C10.485 14.7479 10.625 14.6145 10.625 14.45V9.08817C10.625 8.92372 10.485 8.79028 10.3125 8.79028ZM10 14.1521H8.74999V9.38604H10V14.1521Z"/>
</mask>
<path d="M10.3125 8.79028H8.43751C8.26501 8.79028 8.125 8.92374 8.125 9.08817V14.45C8.125 14.6145 8.26501 14.7479 8.43751 14.7479H10.3125C10.485 14.7479 10.625 14.6145 10.625 14.45V9.08817C10.625 8.92372 10.485 8.79028 10.3125 8.79028ZM10 14.1521H8.74999V9.38604H10V14.1521Z" fill="white"/>
<path d="M8.74999 14.1521H7.74999V15.1521H8.74999V14.1521ZM8.74999 9.38604V8.38604H7.74999V9.38604H8.74999ZM10 9.38604H11V8.38604H10V9.38604ZM10.3125 7.79028H8.43751V9.79028H10.3125V7.79028ZM8.43751 7.79028C7.75841 7.79028 7.125 8.32686 7.125 9.08817H9.125C9.125 9.52063 8.77161 9.79028 8.43751 9.79028V7.79028ZM7.125 9.08817V14.45H9.125V9.08817H7.125ZM7.125 14.45C7.125 15.2114 7.75842 15.7479 8.43751 15.7479V13.7479C8.7716 13.7479 9.125 14.0176 9.125 14.45H7.125ZM8.43751 15.7479H10.3125V13.7479H8.43751V15.7479ZM10.3125 15.7479C10.9916 15.7479 11.625 15.2114 11.625 14.45H9.62502C9.62502 14.0176 9.97842 13.7479 10.3125 13.7479V15.7479ZM11.625 14.45V9.08817H9.62502V14.45H11.625ZM11.625 9.08817C11.625 8.32677 10.9915 7.79028 10.3125 7.79028V9.79028C9.97847 9.79028 9.62502 9.52066 9.62502 9.08817H11.625ZM10 13.1521H8.74999V15.1521H10V13.1521ZM9.74999 14.1521V9.38604H7.74999V14.1521H9.74999ZM8.74999 10.386H10V8.38604H8.74999V10.386ZM9 9.38604V14.1521H11V9.38604H9Z" fill="white" mask="url(#path-6-inside-3_1212_238)"/>
<mask id="path-8-inside-4_1212_238" fill="white">
<path d="M14.0625 5.21606H12.1875C12.015 5.21606 11.875 5.34952 11.875 5.51394V14.45C11.875 14.6145 12.015 14.7479 12.1875 14.7479H14.0625C14.235 14.7479 14.375 14.6145 14.375 14.45V5.51394C14.375 5.34949 14.235 5.21606 14.0625 5.21606ZM13.75 14.1522H12.5V5.8118H13.75V14.1522Z"/>
</mask>
<path d="M14.0625 5.21606H12.1875C12.015 5.21606 11.875 5.34952 11.875 5.51394V14.45C11.875 14.6145 12.015 14.7479 12.1875 14.7479H14.0625C14.235 14.7479 14.375 14.6145 14.375 14.45V5.51394C14.375 5.34949 14.235 5.21606 14.0625 5.21606ZM13.75 14.1522H12.5V5.8118H13.75V14.1522Z" fill="white"/>
<path d="M12.5 14.1522H11.5V15.1522H12.5V14.1522ZM12.5 5.8118V4.8118H11.5V5.8118H12.5ZM13.75 5.8118H14.75V4.8118H13.75V5.8118ZM14.0625 4.21606H12.1875V6.21606H14.0625V4.21606ZM12.1875 4.21606C11.5084 4.21606 10.875 4.75259 10.875 5.51394H12.875C12.875 5.94645 12.5216 6.21606 12.1875 6.21606V4.21606ZM10.875 5.51394V14.45H12.875V5.51394H10.875ZM10.875 14.45C10.875 15.2114 11.5084 15.7479 12.1875 15.7479V13.7479C12.5216 13.7479 12.875 14.0175 12.875 14.45H10.875ZM12.1875 15.7479H14.0625V13.7479H12.1875V15.7479ZM14.0625 15.7479C14.7416 15.7479 15.375 15.2114 15.375 14.45H13.375C13.375 14.0175 13.7284 13.7479 14.0625 13.7479V15.7479ZM15.375 14.45V5.51394H13.375V14.45H15.375ZM15.375 5.51394C15.375 4.75251 14.7415 4.21606 14.0625 4.21606V6.21606C13.7285 6.21606 13.375 5.94648 13.375 5.51394H15.375ZM13.75 13.1522H12.5V15.1522H13.75V13.1522ZM13.5 14.1522V5.8118H11.5V14.1522H13.5ZM12.5 6.8118H13.75V4.8118H12.5V6.8118ZM12.75 5.8118V14.1522H14.75V5.8118H12.75Z" fill="white" mask="url(#path-8-inside-4_1212_238)"/>
<mask id="path-10-inside-5_1212_238" fill="white">
<path d="M1.87526 5.81201C1.18587 5.81201 0.625244 6.34638 0.625244 7.00348C0.625244 7.66058 1.18587 8.19495 1.87526 8.19495C2.56464 8.19495 3.12527 7.66058 3.12527 7.00348C3.12527 6.34638 2.56464 5.81201 1.87526 5.81201ZM1.87526 7.5992C1.53026 7.5992 1.25026 7.33171 1.25026 7.00348C1.25026 6.67522 1.53026 6.40776 1.87526 6.40776C2.22026 6.40776 2.50025 6.67525 2.50025 7.00348C2.50025 7.33171 2.22026 7.5992 1.87526 7.5992Z"/>
</mask>
<path d="M1.87526 5.81201C1.18587 5.81201 0.625244 6.34638 0.625244 7.00348C0.625244 7.66058 1.18587 8.19495 1.87526 8.19495C2.56464 8.19495 3.12527 7.66058 3.12527 7.00348C3.12527 6.34638 2.56464 5.81201 1.87526 5.81201ZM1.87526 7.5992C1.53026 7.5992 1.25026 7.33171 1.25026 7.00348C1.25026 6.67522 1.53026 6.40776 1.87526 6.40776C2.22026 6.40776 2.50025 6.67525 2.50025 7.00348C2.50025 7.33171 2.22026 7.5992 1.87526 7.5992Z" fill="white"/>
<path d="M1.87526 4.81201C0.679329 4.81201 -0.374756 5.74944 -0.374756 7.00348H1.62524C1.62524 6.96776 1.63894 6.92593 1.68168 6.88519C1.72521 6.8437 1.79182 6.81201 1.87526 6.81201V4.81201ZM-0.374756 7.00348C-0.374756 8.25752 0.679329 9.19495 1.87526 9.19495V7.19495C1.79182 7.19495 1.72521 7.16326 1.68168 7.12177C1.63894 7.08103 1.62524 7.0392 1.62524 7.00348H-0.374756ZM1.87526 9.19495C3.07118 9.19495 4.12527 8.25752 4.12527 7.00348H2.12527C2.12527 7.0392 2.11157 7.08103 2.06883 7.12177C2.0253 7.16326 1.95869 7.19495 1.87526 7.19495V9.19495ZM4.12527 7.00348C4.12527 5.74944 3.07118 4.81201 1.87526 4.81201V6.81201C1.95869 6.81201 2.0253 6.8437 2.06883 6.88519C2.11157 6.92593 2.12527 6.96776 2.12527 7.00348H4.12527ZM1.87526 6.5992C2.03748 6.5992 2.25026 6.73542 2.25026 7.00348H0.250264C0.250264 7.928 1.02303 8.5992 1.87526 8.5992V6.5992ZM2.25026 7.00348C2.25026 7.27154 2.03745 7.40776 1.87526 7.40776V5.40776C1.02306 5.40776 0.250264 6.0789 0.250264 7.00348H2.25026ZM1.87526 7.40776C1.71303 7.40776 1.50025 7.27154 1.50025 7.00348H3.50025C3.50025 6.07896 2.72748 5.40776 1.87526 5.40776V7.40776ZM1.50025 7.00348C1.50025 6.73542 1.71303 6.5992 1.87526 6.5992V8.5992C2.72748 8.5992 3.50025 7.928 3.50025 7.00348H1.50025Z" fill="white" mask="url(#path-10-inside-5_1212_238)"/>
<mask id="path-12-inside-6_1212_238" fill="white">
<path d="M5.62501 2.8335C4.93563 2.8335 4.375 3.36786 4.375 4.02496C4.375 4.68206 4.93563 5.21643 5.62501 5.21643C6.3144 5.21643 6.87502 4.68206 6.87502 4.02496C6.87502 3.36786 6.3144 2.8335 5.62501 2.8335ZM5.62501 4.62068C5.28001 4.62068 5.00002 4.35319 5.00002 4.02496C5.00002 3.69671 5.28001 3.42924 5.62501 3.42924C5.97001 3.42924 6.25 3.69674 6.25 4.02496C6.25 4.35322 5.97001 4.62068 5.62501 4.62068Z"/>
</mask>
<path d="M5.62501 2.8335C4.93563 2.8335 4.375 3.36786 4.375 4.02496C4.375 4.68206 4.93563 5.21643 5.62501 5.21643C6.3144 5.21643 6.87502 4.68206 6.87502 4.02496C6.87502 3.36786 6.3144 2.8335 5.62501 2.8335ZM5.62501 4.62068C5.28001 4.62068 5.00002 4.35319 5.00002 4.02496C5.00002 3.69671 5.28001 3.42924 5.62501 3.42924C5.97001 3.42924 6.25 3.69674 6.25 4.02496C6.25 4.35322 5.97001 4.62068 5.62501 4.62068Z" fill="white"/>
<path d="M5.62501 1.8335C4.42909 1.8335 3.375 2.77092 3.375 4.02496H5.375C5.375 3.98924 5.38869 3.94742 5.43144 3.90667C5.47496 3.86519 5.54158 3.8335 5.62501 3.8335V1.8335ZM3.375 4.02496C3.375 5.27901 4.42909 6.21643 5.62501 6.21643V4.21643C5.54158 4.21643 5.47496 4.18474 5.43144 4.14325C5.38869 4.10251 5.375 4.06068 5.375 4.02496H3.375ZM5.62501 6.21643C6.82094 6.21643 7.87502 5.27901 7.87502 4.02496H5.87502C5.87502 4.06068 5.86133 4.10251 5.81858 4.14325C5.77506 4.18474 5.70844 4.21643 5.62501 4.21643V6.21643ZM7.87502 4.02496C7.87502 2.77092 6.82094 1.8335 5.62501 1.8335V3.8335C5.70844 3.8335 5.77506 3.86519 5.81858 3.90667C5.86133 3.94742 5.87502 3.98924 5.87502 4.02496H7.87502ZM5.62501 3.62068C5.78724 3.62068 6.00002 3.7569 6.00002 4.02496H4.00002C4.00002 4.94948 4.77278 5.62068 5.62501 5.62068V3.62068ZM6.00002 4.02496C6.00002 4.29303 5.78721 4.42924 5.62501 4.42924V2.42924C4.77281 2.42924 4.00002 3.10039 4.00002 4.02496H6.00002ZM5.62501 4.42924C5.46278 4.42924 5.25 4.29303 5.25 4.02496H7.25C7.25 3.10045 6.47724 2.42924 5.62501 2.42924V4.42924ZM5.25 4.02496C5.25 3.7569 5.46282 3.62068 5.62501 3.62068V5.62068C6.47721 5.62068 7.25 4.94954 7.25 4.02496H5.25Z" fill="white" mask="url(#path-12-inside-6_1212_238)"/>
<mask id="path-14-inside-7_1212_238" fill="white">
<path d="M9.37501 4.02466C8.68562 4.02466 8.125 4.55903 8.125 5.21613C8.125 5.87322 8.68562 6.40759 9.37501 6.40759C10.0644 6.40759 10.625 5.87322 10.625 5.21613C10.625 4.55903 10.0644 4.02466 9.37501 4.02466ZM9.37501 5.81185C9.03001 5.81185 8.75002 5.54435 8.75002 5.21613C8.75002 4.88787 9.03001 4.62041 9.37501 4.62041C9.72001 4.62041 10 4.8879 10 5.21613C10 5.54435 9.72001 5.81185 9.37501 5.81185Z"/>
</mask>
<path d="M9.37501 4.02466C8.68562 4.02466 8.125 4.55903 8.125 5.21613C8.125 5.87322 8.68562 6.40759 9.37501 6.40759C10.0644 6.40759 10.625 5.87322 10.625 5.21613C10.625 4.55903 10.0644 4.02466 9.37501 4.02466ZM9.37501 5.81185C9.03001 5.81185 8.75002 5.54435 8.75002 5.21613C8.75002 4.88787 9.03001 4.62041 9.37501 4.62041C9.72001 4.62041 10 4.8879 10 5.21613C10 5.54435 9.72001 5.81185 9.37501 5.81185Z" fill="white"/>
<path d="M10.625 5.21613H11.625H10.625ZM10 5.21613H9H10ZM9.37501 3.02466C8.17908 3.02466 7.125 3.96208 7.125 5.21613H9.125C9.125 5.18041 9.13869 5.13858 9.18144 5.09783C9.22496 5.05635 9.29158 5.02466 9.37501 5.02466V3.02466ZM7.125 5.21613C7.125 6.47017 8.17908 7.40759 9.37501 7.40759V5.40759C9.29158 5.40759 9.22496 5.3759 9.18144 5.33442C9.13869 5.29367 9.125 5.25185 9.125 5.21613H7.125ZM9.37501 7.40759C10.5709 7.40759 11.625 6.47017 11.625 5.21613H9.62502C9.62502 5.25185 9.61133 5.29367 9.56858 5.33442C9.52505 5.3759 9.45844 5.40759 9.37501 5.40759V7.40759ZM11.625 5.21613C11.625 3.96208 10.5709 3.02466 9.37501 3.02466V5.02466C9.45844 5.02466 9.52505 5.05635 9.56858 5.09783C9.61133 5.13858 9.62502 5.18041 9.62502 5.21613H11.625ZM9.37501 4.81185C9.53724 4.81185 9.75002 4.94806 9.75002 5.21613H7.75002C7.75002 6.14064 8.52278 6.81185 9.37501 6.81185V4.81185ZM9.75002 5.21613C9.75002 5.48419 9.53721 5.62041 9.37501 5.62041V3.62041C8.52281 3.62041 7.75002 4.29155 7.75002 5.21613H9.75002ZM9.37501 5.62041C9.21278 5.62041 9 5.48419 9 5.21613H11C11 4.29161 10.2272 3.62041 9.37501 3.62041V5.62041ZM9 5.21613C9 4.94806 9.21278 4.81185 9.37501 4.81185V6.81185C10.2272 6.81185 11 6.14064 11 5.21613H9Z" fill="white" mask="url(#path-14-inside-7_1212_238)"/>
<mask id="path-16-inside-8_1212_238" fill="white">
<path d="M13.125 0.450195C12.4356 0.450195 11.875 0.984564 11.875 1.64166C11.875 2.29876 12.4356 2.83313 13.125 2.83313C13.8144 2.83313 14.375 2.29876 14.375 1.64166C14.375 0.984564 13.8144 0.450195 13.125 0.450195ZM13.125 2.23738C12.78 2.23738 12.5 1.96989 12.5 1.64166C12.5 1.31341 12.78 1.04594 13.125 1.04594C13.47 1.04594 13.75 1.31343 13.75 1.64166C13.75 1.96989 13.47 2.23738 13.125 2.23738Z"/>
</mask>
<path d="M13.125 0.450195C12.4356 0.450195 11.875 0.984564 11.875 1.64166C11.875 2.29876 12.4356 2.83313 13.125 2.83313C13.8144 2.83313 14.375 2.29876 14.375 1.64166C14.375 0.984564 13.8144 0.450195 13.125 0.450195ZM13.125 2.23738C12.78 2.23738 12.5 1.96989 12.5 1.64166C12.5 1.31341 12.78 1.04594 13.125 1.04594C13.47 1.04594 13.75 1.31343 13.75 1.64166C13.75 1.96989 13.47 2.23738 13.125 2.23738Z" fill="white"/>
<path d="M14.375 1.64166H15.375H14.375ZM13.75 1.64166H12.75H13.75ZM13.125 -0.549805C11.9291 -0.549805 10.875 0.387621 10.875 1.64166H12.875C12.875 1.60594 12.8887 1.56411 12.9314 1.52337C12.975 1.48188 13.0416 1.4502 13.125 1.4502V-0.549805ZM10.875 1.64166C10.875 2.8957 11.9291 3.83313 13.125 3.83313V1.83313C13.0416 1.83313 12.975 1.80144 12.9314 1.75995C12.8887 1.71921 12.875 1.67738 12.875 1.64166H10.875ZM13.125 3.83313C14.3209 3.83313 15.375 2.8957 15.375 1.64166H13.375C13.375 1.67738 13.3613 1.71921 13.3186 1.75995C13.2751 1.80144 13.2084 1.83313 13.125 1.83313V3.83313ZM15.375 1.64166C15.375 0.387621 14.3209 -0.549805 13.125 -0.549805V1.4502C13.2084 1.4502 13.2751 1.48188 13.3186 1.52337C13.3613 1.56411 13.375 1.60594 13.375 1.64166H15.375ZM13.125 1.23738C13.2872 1.23738 13.5 1.3736 13.5 1.64166H11.5C11.5 2.56618 12.2728 3.23738 13.125 3.23738V1.23738ZM13.5 1.64166C13.5 1.90973 13.2872 2.04594 13.125 2.04594V0.0459429C12.2728 0.0459429 11.5 0.717087 11.5 1.64166H13.5ZM13.125 2.04594C12.9628 2.04594 12.75 1.90972 12.75 1.64166H14.75C14.75 0.717145 13.9772 0.0459429 13.125 0.0459429V2.04594ZM12.75 1.64166C12.75 1.3736 12.9628 1.23738 13.125 1.23738V3.23738C13.9772 3.23738 14.75 2.56618 14.75 1.64166H12.75Z" fill="white" mask="url(#path-16-inside-8_1212_238)"/>
<mask id="path-18-inside-9_1212_238" fill="white">
<path d="M12.6841 2.06223C12.5622 1.94605 12.3641 1.94605 12.2422 2.06223L9.81724 4.37376C9.69536 4.48993 9.69536 4.6788 9.81724 4.79497C9.8785 4.85275 9.95848 4.88196 10.0385 4.88196C10.1179 4.88196 10.1979 4.85336 10.2591 4.79497L12.6841 2.48344C12.806 2.36726 12.806 2.1784 12.6841 2.06223Z"/>
</mask>
<path d="M12.6841 2.06223C12.5622 1.94605 12.3641 1.94605 12.2422 2.06223L9.81724 4.37376C9.69536 4.48993 9.69536 4.6788 9.81724 4.79497C9.8785 4.85275 9.95848 4.88196 10.0385 4.88196C10.1179 4.88196 10.1979 4.85336 10.2591 4.79497L12.6841 2.48344C12.806 2.36726 12.806 2.1784 12.6841 2.06223Z" fill="white"/>
<path d="M12.2422 2.06223L11.5523 1.33839L11.5523 1.33839L12.2422 2.06223ZM9.81724 4.37376L10.5072 5.0976L10.5072 5.0976L9.81724 4.37376ZM9.81724 4.79497L9.12726 5.51882L9.1311 5.52244L9.81724 4.79497ZM10.2591 4.79497L9.56915 4.07113H9.56915L10.2591 4.79497ZM12.6841 2.48344L13.3741 3.20728L12.6841 2.48344ZM13.3741 1.33839C12.8659 0.854 12.0604 0.854 11.5523 1.33839L12.9322 2.78607C12.6678 3.03811 12.2586 3.03811 11.9941 2.78607L13.3741 1.33839ZM11.5523 1.33839L9.12727 3.64992L10.5072 5.0976L12.9322 2.78607L11.5523 1.33839ZM9.12727 3.64992C8.59202 4.16012 8.59202 5.0086 9.12727 5.51881L10.5072 4.07113C10.7987 4.34899 10.7987 4.81974 10.5072 5.0976L9.12727 3.64992ZM9.1311 5.52244C9.38816 5.76489 9.71778 5.88196 10.0385 5.88196V3.88196C10.1992 3.88196 10.3688 3.9406 10.5034 4.0675L9.1311 5.52244ZM10.0385 5.88196C10.3548 5.88196 10.6879 5.7678 10.9491 5.51881L9.56915 4.07113C9.70784 3.93893 9.88091 3.88196 10.0385 3.88196V5.88196ZM10.9491 5.51881L13.3741 3.20728L11.9941 1.7596L9.56915 4.07113L10.9491 5.51881ZM13.3741 3.20728C13.9093 2.69707 13.9093 1.84859 13.3741 1.33839L11.9941 2.78607C11.7026 2.50821 11.7026 2.03746 11.9941 1.7596L13.3741 3.20728Z" fill="white" mask="url(#path-18-inside-9_1212_238)"/>
<mask id="path-20-inside-10_1212_238" fill="white">
<path d="M8.61962 4.52886L6.61212 3.98318C6.44398 3.93671 6.27336 4.02964 6.22648 4.18812C6.17899 4.34659 6.27523 4.51102 6.44085 4.55628L8.44835 5.10197C8.4771 5.10971 8.50586 5.11328 8.53399 5.11328C8.67025 5.11328 8.79523 5.02808 8.8346 4.89703C8.88212 4.73917 8.78588 4.57413 8.61962 4.52886Z"/>
</mask>
<path d="M8.61962 4.52886L6.61212 3.98318C6.44398 3.93671 6.27336 4.02964 6.22648 4.18812C6.17899 4.34659 6.27523 4.51102 6.44085 4.55628L8.44835 5.10197C8.4771 5.10971 8.50586 5.11328 8.53399 5.11328C8.67025 5.11328 8.79523 5.02808 8.8346 4.89703C8.88212 4.73917 8.78588 4.57413 8.61962 4.52886Z" fill="white"/>
<path d="M8.61962 4.52886L8.88233 3.56399L8.88193 3.56388L8.61962 4.52886ZM6.61212 3.98318L6.34573 4.94705L6.34981 4.94816L6.61212 3.98318ZM6.22648 4.18812L7.1844 4.47518L7.18541 4.47176L6.22648 4.18812ZM6.44085 4.55628L6.17719 5.5209L6.17854 5.52127L6.44085 4.55628ZM8.44835 5.10197L8.18605 6.06696L8.18846 6.06761L8.44835 5.10197ZM8.8346 4.89703L7.87705 4.60878L7.8769 4.60928L8.8346 4.89703ZM8.88193 3.56388L6.87442 3.01819L6.34981 4.94816L8.35732 5.49385L8.88193 3.56388ZM6.8785 3.01931C6.21226 2.83518 5.47706 3.19619 5.26755 3.90448L7.18541 4.47176C7.06966 4.8631 6.6757 5.03824 6.34573 4.94704L6.8785 3.01931ZM5.26857 3.90106C5.04812 4.63671 5.50975 5.33847 6.17719 5.5209L6.7045 3.59167C7.04072 3.68356 7.30987 4.05648 7.1844 4.47517L5.26857 3.90106ZM6.17854 5.52127L8.18605 6.06696L8.71066 4.13699L6.70315 3.5913L6.17854 5.52127ZM8.18846 6.06761C8.30463 6.09888 8.42092 6.11328 8.53399 6.11328V4.11328C8.59081 4.11328 8.64956 4.12054 8.70825 4.13634L8.18846 6.06761ZM8.53399 6.11328C9.07259 6.11328 9.615 5.77492 9.79231 5.18477L7.8769 4.60928C7.97546 4.28124 8.26791 4.11328 8.53399 4.11328V6.11328ZM9.79216 5.18527C10.0139 4.4487 9.55044 3.74589 8.88233 3.56399L8.35692 5.49374C8.02133 5.40237 7.75036 5.02963 7.87705 4.60878L9.79216 5.18527Z" fill="white" mask="url(#path-20-inside-10_1212_238)"/>
<path d="M2.34221 6.13934C2.20721 6.24242 2.18471 6.42947 2.29284 6.55815L4.69847 4.34846L2.34221 6.13934Z" fill="white" stroke="white"/>
</svg>
