<svg width="18" height="18" viewBox="0 0 18 18" fill="none" xmlns="http://www.w3.org/2000/svg">
<path d="M17.3115 7.21165L16.9192 6.79627L15.5423 3.08473C15.3077 2.4578 14.7077 2.04242 14.0385 2.03857H4.20385C3.53462 2.03857 2.93462 2.4578 2.7 3.08473L1.34231 6.75011L0.776923 7.27319C0.284615 7.69242 0 8.30781 0 8.95396V14.3617C0.00384615 15.2463 0.723077 15.9617 1.60769 15.9617H2.62308C3.50769 15.9617 4.22692 15.2463 4.23077 14.3617V13.577H13.7692V14.3617C13.7731 15.2463 14.4923 15.9617 15.3769 15.9617H16.3923C17.2769 15.9617 17.9962 15.2463 18 14.3617V8.81165C17.9962 8.20781 17.75 7.63088 17.3115 7.21165ZM3.42308 3.34627C3.54615 3.01934 3.85769 2.80781 4.20385 2.80781H14.0423C14.3885 2.80781 14.7 3.02319 14.8231 3.34627L16.0231 6.57704H15.1269C14.9154 5.13473 13.5731 4.13857 12.1308 4.35396C10.9808 4.52319 10.0769 5.42704 9.90769 6.57704H2.22308L3.42308 3.34627ZM14.3423 6.57704H10.6846C10.8962 5.5655 11.8885 4.91934 12.9 5.13088C13.6231 5.28473 14.1885 5.85011 14.3423 6.57704ZM3.46154 14.3617C3.45769 14.8232 3.08462 15.1924 2.62308 15.1924H1.60769C1.14615 15.1924 0.773077 14.8232 0.769231 14.3617V13.354C1 13.504 1.30385 13.577 1.60769 13.577H3.46154V14.3617ZM17.2308 14.3617C17.2269 14.8232 16.8538 15.1924 16.3923 15.1924H15.3769C14.9154 15.1924 14.5423 14.8193 14.5385 14.3617V13.577H16.3923C16.6962 13.577 17 13.504 17.2308 13.354V14.3617ZM16.3923 12.8078H1.60769C1.15 12.8117 0.773077 12.4463 0.769231 11.9847V8.95396C0.769231 8.53088 0.957692 8.12704 1.28077 7.85396C1.28462 7.85011 1.29231 7.84242 1.29615 7.83857L1.81923 7.34627H16.3846L16.7538 7.74242C16.7577 7.75011 16.7692 7.75396 16.7731 7.76165C17.0615 8.03473 17.2269 8.4155 17.2269 8.81165V11.9847H17.2308C17.2269 12.4424 16.85 12.8117 16.3923 12.8078Z" fill="white"/>
<path d="M5.07685 8.88452H2.19223C1.98069 8.88452 1.80762 9.0576 1.80762 9.26914V11.2691C1.80762 11.4807 1.98069 11.6538 2.19223 11.6538H5.07685C5.28839 11.6538 5.46146 11.4807 5.46146 11.2691V9.26914C5.46146 9.0576 5.28839 8.88452 5.07685 8.88452ZM4.69223 10.8845H2.57685V9.65375H4.69223V10.8845Z" fill="white"/>
<path d="M15.8078 8.88452H12.9232C12.7117 8.88452 12.5386 9.0576 12.5386 9.26914V11.2691C12.5386 11.4807 12.7117 11.6538 12.9232 11.6538H15.8078C16.0193 11.6538 16.1924 11.4807 16.1924 11.2691V9.26914C16.1924 9.0576 16.0193 8.88452 15.8078 8.88452ZM15.4232 10.8845H13.3078V9.65375H15.4232V10.8845Z" fill="white"/>
<path d="M10.8578 10.5H7.14243C6.93089 10.5 6.75781 10.6731 6.75781 10.8846C6.75781 11.0962 6.93089 11.2692 7.14243 11.2692H10.8578C11.0694 11.2692 11.2424 11.0962 11.2424 10.8846C11.2424 10.6731 11.0694 10.5 10.8578 10.5Z" fill="white"/>
<path d="M10.8578 9.30762H7.14243C6.93089 9.30762 6.75781 9.48069 6.75781 9.69223C6.75781 9.90377 6.93089 10.0768 7.14243 10.0768H10.8578C11.0694 10.0768 11.2424 9.90377 11.2424 9.69223C11.2424 9.48069 11.0694 9.30762 10.8578 9.30762Z" fill="white"/>
</svg>
