<svg width="17" height="17" viewBox="0 0 17 17" fill="none" xmlns="http://www.w3.org/2000/svg">
<path d="M7.7093 2.77637H2.49095C2.09553 2.77637 1.7163 2.92609 1.43669 3.19261C1.15708 3.45913 1 3.8206 1 4.19752V14.1456C1 14.5225 1.15708 14.8839 1.43669 15.1505C1.7163 15.417 2.09553 15.5667 2.49095 15.5667H12.9276C13.3231 15.5667 13.7023 15.417 13.9819 15.1505C14.2615 14.8839 14.4186 14.5225 14.4186 14.1456V9.17154" stroke="white" stroke-linecap="round" stroke-linejoin="round"/>
<path d="M13.3004 1.71054C13.597 1.42785 13.9992 1.26904 14.4186 1.26904C14.838 1.26904 15.2403 1.42785 15.5368 1.71054C15.8334 1.99322 16 2.37663 16 2.7764C16 3.17618 15.8334 3.55958 15.5368 3.84227L8.45481 10.5927L5.4729 11.3033L6.21838 8.46101L13.3004 1.71054Z" stroke="white" stroke-linecap="round" stroke-linejoin="round"/>
</svg>
