<svg width="20" height="20" viewBox="0 0 20 20" fill="none" xmlns="http://www.w3.org/2000/svg">
<g clip-path="url(#clip0_1208_182)">
<path d="M19.9713 10.8628L18.5285 4.56342C18.388 3.95018 17.7747 3.56549 17.1615 3.70592L16.002 3.97147C15.3887 4.11194 15.004 4.72514 15.1445 5.33842L15.1734 5.46495L14.7255 5.65987C14.3679 5.81538 13.9931 5.79389 13.6418 5.5976C13.2908 5.40147 12.9792 5.21866 12.7042 5.05737C11.4192 4.30346 10.7112 3.88819 9.63923 4.28897C9.33795 4.40163 9.03888 4.62178 8.73158 4.91194H4.87104C4.80205 4.46292 4.46709 4.07889 3.99807 3.97147L2.83854 3.70592C2.22506 3.56549 1.61198 3.95014 1.47155 4.56342L0.0288131 10.8628C-0.0390775 11.1591 0.0129146 11.4647 0.17518 11.7234C0.337446 11.9821 0.589984 12.162 0.886273 12.2298L2.0458 12.4953C2.13065 12.5148 2.21623 12.5244 2.30131 12.5244C2.51326 12.5244 2.72182 12.4647 2.90639 12.3489C3.11518 12.218 3.27248 12.0282 3.36111 11.8042L7.52592 15.9224C7.78404 16.1806 8.1283 16.3228 8.49525 16.3228H8.49549C8.86244 16.3227 9.2067 16.1805 9.46486 15.9223C9.61134 15.7759 9.72052 15.6016 9.78752 15.4112L10.2141 15.8378C10.4722 16.0959 10.8165 16.2382 11.1834 16.2381H11.1836C11.5506 16.2381 11.8949 16.0959 12.153 15.8377C12.3011 15.6896 12.4111 15.5131 12.4779 15.3203C12.7224 15.5227 13.0278 15.6328 13.3508 15.6328H13.3511C13.718 15.6328 14.0623 15.4906 14.3204 15.2324C14.5786 14.9743 14.7208 14.63 14.7208 14.2631C14.7208 14.2177 14.7186 14.1727 14.7143 14.1282C15.0465 14.1064 15.3551 13.9672 15.5915 13.7308C15.9445 13.3778 16.0642 12.8787 15.9511 12.4265L16.7811 12.0601C16.865 12.1735 16.9702 12.2716 17.0936 12.349C17.2783 12.4648 17.4867 12.5244 17.6987 12.5244C17.7838 12.5244 17.8693 12.5148 17.9542 12.4954L19.1137 12.2298C19.41 12.162 19.6625 11.9822 19.8248 11.7235C19.9871 11.4647 20.0391 11.1591 19.9713 10.8628ZM9.91283 5.02073C10.6035 4.76245 11.0384 4.98585 12.3089 5.7312C12.5872 5.89444 12.9026 6.07948 13.2608 6.27963C13.8249 6.59475 14.4558 6.62909 15.0372 6.37624L15.3509 6.23971L16.5153 11.3235L15.5495 11.7498L11.9908 8.19108C11.2987 7.49909 10.2126 7.40116 9.4081 7.95835C8.1765 8.81116 7.36209 9.13292 6.58221 8.4346C7.14728 7.90878 7.67396 7.28503 8.1472 6.7246C8.80955 5.94022 9.43521 5.19932 9.91283 5.02073ZM2.49123 11.6871C2.40932 11.7385 2.31315 11.7551 2.22022 11.7338L1.06069 11.4683C0.967836 11.447 0.888383 11.3902 0.836976 11.3083C0.785648 11.2264 0.769047 11.1301 0.790336 11.0373L2.23311 4.73784C2.27123 4.57139 2.41979 4.45834 2.58381 4.45834C2.61033 4.45834 2.63721 4.46131 2.66416 4.46745L3.82369 4.73299C4.01705 4.77729 4.13834 4.97065 4.09404 5.16401L2.65123 11.4635C2.62998 11.5563 2.57319 11.6357 2.49123 11.6871ZM15.0392 13.1783C14.9285 13.2889 14.7804 13.3499 14.622 13.3499C14.4637 13.35 14.3156 13.2891 14.2051 13.1784L11.4307 10.4039C11.2782 10.2513 11.0309 10.2513 10.8783 10.4039C10.7257 10.5564 10.7257 10.8037 10.8783 10.9563C10.8783 10.9563 13.7547 13.8327 13.7681 13.8461C13.8787 13.9567 13.9396 14.1047 13.9396 14.263C13.9395 14.4213 13.8786 14.5694 13.768 14.68C13.6574 14.7907 13.5093 14.8516 13.3509 14.8516C13.3509 14.8516 13.3509 14.8516 13.3508 14.8516C13.1926 14.8516 13.0445 14.7907 12.934 14.6801L9.94947 11.6955C9.79697 11.5429 9.5497 11.5429 9.39701 11.6955C9.24447 11.848 9.24447 12.0953 9.39701 12.2479L11.6105 14.4616C11.7149 14.571 11.7721 14.7148 11.7721 14.8684C11.7721 15.0267 11.7112 15.1748 11.6006 15.2853C11.4899 15.396 11.3418 15.4569 11.1835 15.4569C11.1834 15.4569 11.1834 15.4569 11.1834 15.4569C11.0251 15.4569 10.8771 15.396 10.7665 15.2855L8.34299 12.8619C8.19049 12.7093 7.94322 12.7093 7.79052 12.8619C7.63799 13.0144 7.63799 13.2618 7.79052 13.4143L8.92037 14.5441C9.02591 14.6538 9.08392 14.7985 9.08388 14.953C9.08388 15.1113 9.02295 15.2594 8.91236 15.37C8.80174 15.4807 8.65361 15.5416 8.49525 15.5416C8.49521 15.5416 8.49521 15.5416 8.49517 15.5416C8.33689 15.5416 8.18888 15.4807 8.07674 15.3685L3.57736 10.9193L4.77432 5.69319H7.99947C7.85334 5.86182 7.70396 6.03862 7.55029 6.22057C6.98533 6.8896 6.40119 7.58139 5.76939 8.11112C5.60451 8.2494 5.58252 8.49499 5.72018 8.66038C6.29506 9.35085 6.90693 9.59272 7.49478 9.59268C8.42013 9.59265 9.28591 8.99323 9.85287 8.60061C10.3547 8.25311 11.0067 8.31182 11.4383 8.7435L15.0392 12.3443C15.2691 12.5742 15.2691 12.9484 15.0392 13.1783ZM19.163 11.3083C19.1116 11.3902 19.0322 11.447 18.9393 11.4683L17.7798 11.7338C17.6868 11.7551 17.5906 11.7385 17.5088 11.6871C17.4268 11.6357 17.37 11.5563 17.3488 11.4634L15.906 5.16401C15.8617 4.97065 15.983 4.77729 16.1764 4.73299L17.3359 4.46745C17.5291 4.42323 17.7227 4.54448 17.7669 4.73784L19.2097 11.0373C19.231 11.1301 19.2144 11.2264 19.163 11.3083Z" fill="white"/>
</g>
<defs>
<clipPath id="clip0_1208_182">
<rect width="20" height="20" fill="white"/>
</clipPath>
</defs>
</svg>
