<svg width="20" height="20" viewBox="0 0 20 20" fill="none" xmlns="http://www.w3.org/2000/svg">
<g clip-path="url(#clip0_1212_280)">
<path d="M12.8455 14.4036C12.6352 14.2772 12.4194 14.1502 12.2036 14.0257C12.2543 13.5932 12.2544 13.1558 12.2038 12.7242C12.4204 12.5992 12.6362 12.4723 12.8454 12.3465C13.1978 12.1348 13.3446 11.688 13.187 11.3073C13.187 11.3073 13.187 11.3073 13.1869 11.3073L12.7271 10.1972C12.5694 9.81656 12.1499 9.60441 11.7508 9.70382C11.5137 9.76284 11.2714 9.82562 11.0299 9.89038C10.7604 9.54929 10.451 9.24003 10.1095 8.97031C10.1743 8.72882 10.2371 8.4864 10.2962 8.24917C10.3956 7.85031 10.1835 7.43062 9.80283 7.27292L8.69275 6.81312C8.31213 6.65538 7.86529 6.80214 7.65349 7.15456C7.52736 7.36449 7.40029 7.58031 7.2756 7.79648C6.8433 7.74574 6.40595 7.74562 5.9742 7.7962C5.84912 7.57937 5.72212 7.36363 5.59646 7.15456C5.38459 6.80222 4.93787 6.65542 4.5572 6.81312L3.44712 7.27292C3.06658 7.43058 2.85439 7.85031 2.9538 8.24917C3.01298 8.48687 3.07572 8.72921 3.14037 8.97007C2.79931 9.23956 2.49001 9.54898 2.22033 9.8905C1.97829 9.82554 1.73587 9.76281 1.49911 9.70382C1.10013 9.60433 0.680521 9.81663 0.522825 10.1972L0.0630986 11.3073C-0.0945186 11.6879 0.0523174 12.1347 0.404583 12.3464C0.614544 12.4726 0.830365 12.5996 1.0465 12.7243C0.995794 13.1566 0.995677 13.5939 1.04626 14.0257C0.829935 14.1505 0.614232 14.2775 0.404505 14.4035C0.0522392 14.6153 -0.0945968 15.062 0.0630595 15.4427L0.522904 16.5528C0.68056 16.9334 1.10005 17.1456 1.49919 17.0462C1.73607 16.9872 1.97841 16.9244 2.22001 16.8596C2.48958 17.2007 2.79892 17.5099 3.14044 17.7796C3.0756 18.0214 3.01283 18.2638 2.9538 18.5008C2.85439 18.8996 3.0665 19.3194 3.44712 19.477L4.55724 19.9369C4.66037 19.9796 4.7683 20 4.87509 20C5.16267 20 5.44205 19.8523 5.59662 19.5955C5.72181 19.3871 5.8488 19.1714 5.97451 18.9536C6.40673 19.0042 6.8442 19.0043 7.27591 18.9538C7.40009 19.1691 7.52709 19.3848 7.65365 19.5955C7.86545 19.9478 8.31216 20.0946 8.69291 19.9369L9.80299 19.4771C10.1835 19.3195 10.3957 18.8998 10.2963 18.5009C10.2376 18.2652 10.1749 18.0229 10.1097 17.78C10.4507 17.5105 10.7601 17.2011 11.0298 16.8596C11.2712 16.9243 11.5136 16.9871 11.7509 17.0462C12.1498 17.1457 12.5695 16.9335 12.7272 16.5528L13.187 15.4427C13.3446 15.0621 13.1978 14.6153 12.8455 14.4036ZM11.9186 16.1653C11.6906 16.1082 11.4582 16.0478 11.2271 15.9856C10.8999 15.8976 10.5546 16.0126 10.3474 16.2788C10.1093 16.5847 9.83373 16.8603 9.52838 17.0981C9.26248 17.3052 9.1476 17.6503 9.23568 17.9773C9.2983 18.2099 9.35865 18.4422 9.41541 18.6686L8.39502 19.0912C8.27365 18.8887 8.15213 18.6818 8.03334 18.4754C7.86431 18.1819 7.539 18.0192 7.20459 18.0606C6.82056 18.1083 6.43076 18.1083 6.04623 18.0604C5.71088 18.0188 5.38584 18.1814 5.21685 18.475C5.09662 18.6838 4.97505 18.8908 4.85501 19.0912L3.83462 18.6685C3.89169 18.4409 3.95208 18.2085 4.01443 17.9771C4.10251 17.6499 3.9874 17.3046 3.72119 17.0974C3.41533 16.8593 3.13974 16.5837 2.90193 16.2784C2.6949 16.0125 2.34974 15.8976 2.02263 15.9857C1.79126 16.048 1.55896 16.1084 1.33142 16.1654L0.908763 15.145C1.11033 15.0242 1.31732 14.9026 1.52458 14.7833C1.81814 14.6143 1.98095 14.2891 1.93939 13.9546C1.89162 13.5705 1.89173 13.1808 1.93951 12.7962C1.98122 12.4614 1.81853 12.1359 1.52482 11.9668C1.31763 11.8475 1.1106 11.7259 0.908724 11.6049L1.33138 10.5845C1.55872 10.6415 1.79107 10.7019 2.02287 10.7643C2.3499 10.8524 2.69521 10.7373 2.90255 10.471C3.14064 10.1652 3.41622 9.88956 3.7215 9.65183C3.98744 9.44476 4.10232 9.09956 4.01423 8.77245C3.95212 8.54183 3.89173 8.30956 3.83451 8.08128L4.8549 7.65866C4.97537 7.85968 5.09693 8.06663 5.21658 8.27449C5.38564 8.56804 5.71123 8.73109 6.04533 8.68925C6.42919 8.64148 6.81892 8.64148 7.20381 8.68945C7.53877 8.73116 7.86416 8.56827 8.03314 8.27472C8.1524 8.06753 8.274 7.8605 8.39494 7.65866L9.41533 8.08128C9.35822 8.30913 9.29783 8.54152 9.23553 8.77281C9.14744 9.09991 9.26256 9.44523 9.52877 9.65245C9.83459 9.89054 10.1102 10.1661 10.348 10.4714C10.5551 10.7373 10.9001 10.8522 11.2274 10.7641C11.4586 10.7019 11.6908 10.6415 11.9185 10.5844L12.3412 11.6048C12.1399 11.7254 11.9329 11.8469 11.7253 11.9665C11.4318 12.1355 11.2689 12.4608 11.3105 12.7952C11.3583 13.1791 11.3582 13.5689 11.3103 13.9537C11.2687 14.2885 11.4315 14.614 11.7251 14.783C11.9319 14.9021 12.139 15.0237 12.3412 15.1449L11.9186 16.1653Z" fill="white"/>
<path d="M9.44383 12.2075C9.44383 12.2075 9.44383 12.2075 9.44379 12.2075C8.80004 10.6532 7.01192 9.91245 5.45743 10.5562C3.90321 11.2001 3.16243 12.9884 3.80625 14.5426C4.11809 15.2956 4.70457 15.8819 5.45747 16.1939C5.83391 16.3498 6.22946 16.4277 6.62501 16.4277C7.02055 16.4277 7.4161 16.3498 7.79262 16.1939C9.34684 15.55 10.0876 13.7618 9.44383 12.2075ZM7.45 15.3668C6.91805 15.5871 6.33215 15.5871 5.80004 15.3668C5.26809 15.1464 4.85375 14.732 4.63336 14.2C4.1784 13.1018 4.70184 11.8382 5.80008 11.3833C6.06903 11.2719 6.34778 11.2192 6.62223 11.2192C7.4686 11.2192 8.27321 11.7208 8.61676 12.5501C9.07165 13.6483 8.54821 14.9118 7.45 15.3668Z" fill="white"/>
<path d="M19.3967 3.94281C19.2422 3.91969 19.0835 3.89723 18.9236 3.8759C18.8431 3.60805 18.7355 3.34836 18.6028 3.10172C18.7006 2.97379 18.797 2.84562 18.8902 2.71973C19.097 2.44 19.0671 2.04328 18.8206 1.79695L18.2031 1.17953C17.9567 0.933047 17.56 0.903164 17.2803 1.11008C17.154 1.20355 17.0259 1.29992 16.8983 1.39738C16.6517 1.26465 16.3921 1.15707 16.1241 1.07648C16.1028 0.916641 16.0804 0.75793 16.0573 0.603437C16.0058 0.259453 15.7042 0 15.3557 0H14.4824C14.1339 0 13.8322 0.259453 13.7808 0.603398C13.7577 0.757812 13.7353 0.916562 13.7139 1.07645C13.446 1.15703 13.1863 1.26461 12.9397 1.39734C12.8123 1.29984 12.6841 1.20344 12.5578 1.11004C12.278 0.903125 11.8813 0.933008 11.635 1.17945L11.0175 1.79684C10.7711 2.04324 10.7411 2.44 10.948 2.71977C11.0411 2.84562 11.1375 2.97383 11.2353 3.10172C11.1026 3.34832 10.995 3.60797 10.9144 3.8759C10.7546 3.89727 10.5959 3.91969 10.4414 3.94281C10.0973 3.9943 9.83789 4.2959 9.83789 4.64445V5.5177C9.83789 5.86621 10.0973 6.16785 10.4413 6.21934C10.5958 6.24246 10.7545 6.26492 10.9144 6.28625C10.995 6.55414 11.1025 6.81379 11.2352 7.06043C11.1375 7.18824 11.0411 7.31637 10.9479 7.44242C10.7411 7.72207 10.7709 8.11887 11.0174 8.36516L11.6349 8.98266C11.8813 9.22914 12.278 9.25898 12.5577 9.05211C12.684 8.95871 12.8122 8.86227 12.9397 8.76484C13.1863 8.89758 13.446 9.00516 13.7139 9.0857C13.7352 9.24551 13.7576 9.40426 13.7807 9.55879C13.8322 9.90277 14.1339 10.1622 14.4824 10.1622H15.3557C15.7042 10.1622 16.0058 9.90285 16.0573 9.55875C16.0804 9.40422 16.1028 9.24551 16.1241 9.08566C16.392 9.00516 16.6517 8.8975 16.8983 8.76477C17.0258 8.86227 17.154 8.95867 17.2803 9.05211C17.5599 9.25902 17.9567 9.22914 18.2031 8.9827L18.8206 8.36527C19.067 8.11887 19.097 7.72211 18.89 7.44238C18.7968 7.31637 18.7004 7.18816 18.6028 7.06047C18.7354 6.81387 18.8431 6.55426 18.9236 6.28629C19.0834 6.26492 19.2422 6.2425 19.3967 6.21938C19.7407 6.16789 20.0002 5.86629 20.0002 5.51773V4.64449C20.0001 4.29594 19.7407 3.9943 19.3967 3.94281ZM19.1497 5.39617C19.0093 5.41652 18.8662 5.43629 18.7225 5.455C18.4384 5.49207 18.2059 5.69371 18.1302 5.96863C18.0576 6.23187 17.9524 6.4859 17.8173 6.72363C17.6763 6.9718 17.698 7.27891 17.8727 7.50613C17.9608 7.62066 18.0482 7.73594 18.1333 7.84984L17.6878 8.29535C17.5735 8.21008 17.4583 8.12273 17.344 8.03484C17.1168 7.86004 16.8097 7.83844 16.5615 7.97934C16.3237 8.11441 16.0697 8.21969 15.8066 8.29223C15.5315 8.36801 15.3298 8.60059 15.2929 8.88461C15.2742 9.02824 15.2545 9.17144 15.2341 9.31176H14.604C14.5836 9.17144 14.5639 9.02828 14.5452 8.88477C14.5081 8.60063 14.3065 8.36805 14.0315 8.29227C13.7683 8.21977 13.5144 8.11449 13.2765 7.97941C13.0283 7.8384 12.7211 7.86008 12.4941 8.03484C12.3797 8.12277 12.2645 8.21008 12.1502 8.29535L11.7047 7.84984C11.7898 7.73582 11.8771 7.62063 11.9653 7.50598C12.1399 7.27883 12.1617 6.97172 12.0207 6.72355C11.8856 6.48582 11.7804 6.23176 11.7078 5.96859C11.6321 5.69359 11.3995 5.49199 11.1154 5.45492C10.9718 5.43617 10.8286 5.41648 10.6883 5.39606V4.76605C10.8286 4.7457 10.9718 4.72594 11.1154 4.70723C11.3995 4.67016 11.6321 4.46852 11.7078 4.19359C11.7803 3.93039 11.8855 3.67637 12.0206 3.43859C12.1617 3.19043 12.1399 2.88328 11.9653 2.65613C11.877 2.54145 11.7897 2.42621 11.7047 2.31238L12.1502 1.86687C12.2645 1.95215 12.3797 2.03949 12.4939 2.12734C12.721 2.30215 13.0281 2.32395 13.2765 2.18289C13.5142 2.04785 13.7683 1.94258 14.0314 1.87C14.3065 1.79422 14.5081 1.56164 14.5451 1.27762C14.5638 1.13398 14.5836 0.99082 14.604 0.850508H15.234C15.2544 0.990781 15.2741 1.13395 15.2928 1.2775C15.3299 1.56164 15.5315 1.79422 15.8065 1.86996C16.0697 1.9425 16.3238 2.04781 16.5615 2.18285C16.8097 2.32391 17.1169 2.30199 17.3439 2.12738C17.4583 2.03949 17.5734 1.95215 17.6878 1.86687L18.1333 2.31238C18.0483 2.42625 17.9609 2.54152 17.8727 2.65625C17.6981 2.88336 17.6763 3.19047 17.8173 3.43863C17.9523 3.67645 18.0576 3.93051 18.1301 4.19363C18.2059 4.46863 18.4384 4.67023 18.7225 4.7073C18.8661 4.72605 19.0093 4.74578 19.1497 4.76617V5.39617Z" fill="white"/>
<path d="M14.919 3.26855C13.9196 3.26855 13.1064 4.08164 13.1064 5.08109C13.1064 6.08059 13.9195 6.89367 14.919 6.89367C15.9184 6.89367 16.7315 6.08059 16.7315 5.08109C16.7315 4.08164 15.9184 3.26855 14.919 3.26855ZM14.919 6.08793C14.3639 6.08793 13.9121 5.63625 13.9121 5.08105C13.9121 4.52586 14.3638 4.07422 14.919 4.07422C15.4741 4.07422 15.9258 4.5259 15.9258 5.08105C15.9258 5.63625 15.4741 6.08793 14.919 6.08793Z" fill="white"/>
</g>
<defs>
<clipPath id="clip0_1212_280">
<rect width="20" height="20" fill="white"/>
</clipPath>
</defs>
</svg>
