<svg width="19" height="19" viewBox="0 0 19 19" fill="none" xmlns="http://www.w3.org/2000/svg">
<g clip-path="url(#clip0_1212_349)">
<path d="M8.86671 2.21659H10.1334C10.3083 2.21659 10.45 2.07481 10.45 1.89992C10.45 1.72503 10.3083 1.58325 10.1334 1.58325H8.86671C8.69182 1.58325 8.55005 1.72503 8.55005 1.89992C8.55005 2.07481 8.69182 2.21659 8.86671 2.21659Z" fill="white"/>
<path d="M14.5668 2.21667H13.3001C13.297 1.91318 13.1494 1.62937 12.9027 1.45255L11.1151 0.175436C10.9542 0.0608934 10.7616 -0.000449896 10.5641 2.48419e-06H8.4361C8.23853 -0.000109039 8.04587 0.0615633 7.8851 0.176386L6.09846 1.45287C5.85148 1.62938 5.7035 1.91311 5.7001 2.21667H4.43343C3.55941 2.21772 2.85114 2.92599 2.8501 3.8V17.4167C2.85114 18.2907 3.55941 18.999 4.43343 19H14.5668C15.4408 18.999 16.1491 18.2907 16.1501 17.4167V3.8C16.1491 2.92599 15.4408 2.21772 14.5668 2.21667ZM6.33343 2.22617C6.33304 2.12344 6.38281 2.02699 6.46675 1.96777L8.2518 0.692552C8.30544 0.653846 8.36995 0.633117 8.4361 0.633336H10.5641C10.6297 0.633042 10.6938 0.65343 10.7471 0.691602L12.5331 1.96745C12.617 2.02688 12.6669 2.12335 12.6668 2.22617V2.53334C12.6668 2.70823 12.525 2.85 12.3501 2.85H6.6501C6.47521 2.85 6.33343 2.70823 6.33343 2.53334V2.22617ZM15.5168 17.4167C15.5168 17.9413 15.0914 18.3667 14.5668 18.3667H4.43343C3.90876 18.3667 3.48343 17.9413 3.48343 17.4167V3.8C3.48343 3.27533 3.90876 2.85 4.43343 2.85H5.75425C5.88894 3.22927 6.24762 3.48284 6.6501 3.48334H12.3501C12.7526 3.48284 13.1113 3.22927 13.2459 2.85H14.5668C15.0914 2.85 15.5168 3.27533 15.5168 3.8V17.4167Z" fill="white"/>
<path d="M5.06668 8.55H7.60002C7.9498 8.55 8.23335 8.26645 8.23335 7.91667V7.277C8.23335 7.10211 8.09157 6.96033 7.91668 6.96033C7.74179 6.96033 7.60002 7.10211 7.60002 7.277V7.91667H5.06668V5.38333H6.60252C6.77741 5.38333 6.91918 5.24156 6.91918 5.06667C6.91918 4.89178 6.77741 4.75 6.60252 4.75H5.06668C4.7169 4.75 4.43335 5.03355 4.43335 5.38333V7.91667C4.43335 8.26645 4.7169 8.55 5.06668 8.55Z" fill="white"/>
<path d="M8.34437 4.8263L6.34937 6.53629L5.92313 6.11038C5.79888 5.99037 5.60137 5.99209 5.47922 6.11423C5.35708 6.23638 5.35536 6.43389 5.47537 6.55814L6.1087 7.19147C6.22568 7.30829 6.41284 7.31546 6.53842 7.20794L8.75509 5.30794C8.84596 5.23588 8.89016 5.1199 8.8703 5.00563C8.85045 4.89136 8.76972 4.79709 8.65986 4.75989C8.55 4.7227 8.42861 4.74854 8.34342 4.82725L8.34437 4.8263Z" fill="white"/>
<path d="M5.06668 12.9833H7.60002C7.9498 12.9833 8.23335 12.6998 8.23335 12.35V11.7103C8.23335 11.5355 8.09157 11.3937 7.91668 11.3937C7.74179 11.3937 7.60002 11.5355 7.60002 11.7103V12.35H5.06668V9.81668H6.60252C6.77741 9.81668 6.91918 9.67491 6.91918 9.50002C6.91918 9.32513 6.77741 9.18335 6.60252 9.18335H5.06668C4.7169 9.18335 4.43335 9.4669 4.43335 9.81668V12.35C4.43335 12.6998 4.7169 12.9833 5.06668 12.9833Z" fill="white"/>
<path d="M8.34437 9.25965L6.34937 10.9696L5.92313 10.5437C5.79888 10.4237 5.60137 10.4254 5.47922 10.5476C5.35708 10.6697 5.35536 10.8672 5.47537 10.9915L6.1087 11.6248C6.22568 11.7416 6.41284 11.7488 6.53842 11.6413L8.75509 9.74129C8.84596 9.66922 8.89016 9.55324 8.8703 9.43898C8.85045 9.32471 8.76972 9.23044 8.65986 9.19324C8.55 9.15605 8.42861 9.18189 8.34342 9.2606L8.34437 9.25965Z" fill="white"/>
<path d="M7.91668 15.827C7.74179 15.827 7.60002 15.9688 7.60002 16.1437V16.7834H5.06668V14.25H6.60252C6.77741 14.25 6.91918 14.1083 6.91918 13.9334C6.91918 13.7585 6.77741 13.6167 6.60252 13.6167H5.06668C4.7169 13.6167 4.43335 13.9003 4.43335 14.25V16.7834C4.43335 17.1332 4.7169 17.4167 5.06668 17.4167H7.60002C7.9498 17.4167 8.23335 17.1332 8.23335 16.7834V16.1437C8.23335 15.9688 8.09157 15.827 7.91668 15.827Z" fill="white"/>
<path d="M8.34437 13.6929L6.34937 15.4029L5.92313 14.977C5.79888 14.8569 5.60137 14.8587 5.47922 14.9808C5.35708 15.103 5.35536 15.3005 5.47537 15.4247L6.1087 16.0581C6.22568 16.1749 6.41284 16.1821 6.53842 16.0745L8.75508 14.1745C8.88013 14.059 8.89145 13.8653 8.78071 13.7359C8.66997 13.6066 8.47681 13.588 8.34342 13.6938L8.34437 13.6929Z" fill="white"/>
<path d="M13.9335 5.06665H10.7669C10.592 5.06665 10.4502 5.20843 10.4502 5.38332C10.4502 5.55821 10.592 5.69998 10.7669 5.69998H13.9335C14.1084 5.69998 14.2502 5.55821 14.2502 5.38332C14.2502 5.20843 14.1084 5.06665 13.9335 5.06665Z" fill="white"/>
<path d="M13.9335 6.33325H10.7669C10.592 6.33325 10.4502 6.47503 10.4502 6.64992C10.4502 6.82481 10.592 6.96659 10.7669 6.96659H13.9335C14.1084 6.96659 14.2502 6.82481 14.2502 6.64992C14.2502 6.47503 14.1084 6.33325 13.9335 6.33325Z" fill="white"/>
<path d="M10.7669 8.23343H12.3502C12.5251 8.23343 12.6669 8.09165 12.6669 7.91676C12.6669 7.74187 12.5251 7.6001 12.3502 7.6001H10.7669C10.592 7.6001 10.4502 7.74187 10.4502 7.91676C10.4502 8.09165 10.592 8.23343 10.7669 8.23343Z" fill="white"/>
<path d="M13.9335 9.5H10.7669C10.592 9.5 10.4502 9.64178 10.4502 9.81667C10.4502 9.99156 10.592 10.1333 10.7669 10.1333H13.9335C14.1084 10.1333 14.2502 9.99156 14.2502 9.81667C14.2502 9.64178 14.1084 9.5 13.9335 9.5Z" fill="white"/>
<path d="M13.9335 10.7666H10.7669C10.592 10.7666 10.4502 10.9084 10.4502 11.0833C10.4502 11.2582 10.592 11.3999 10.7669 11.3999H13.9335C14.1084 11.3999 14.2502 11.2582 14.2502 11.0833C14.2502 10.9084 14.1084 10.7666 13.9335 10.7666Z" fill="white"/>
<path d="M10.7669 12.6668H12.3502C12.5251 12.6668 12.6669 12.525 12.6669 12.3501C12.6669 12.1752 12.5251 12.0334 12.3502 12.0334H10.7669C10.592 12.0334 10.4502 12.1752 10.4502 12.3501C10.4502 12.525 10.592 12.6668 10.7669 12.6668Z" fill="white"/>
<path d="M13.9335 13.9333H10.7669C10.592 13.9333 10.4502 14.0751 10.4502 14.25C10.4502 14.4249 10.592 14.5667 10.7669 14.5667H13.9335C14.1084 14.5667 14.2502 14.4249 14.2502 14.25C14.2502 14.0751 14.1084 13.9333 13.9335 13.9333Z" fill="white"/>
<path d="M13.9335 15.2H10.7669C10.592 15.2 10.4502 15.3417 10.4502 15.5166C10.4502 15.6915 10.592 15.8333 10.7669 15.8333H13.9335C14.1084 15.8333 14.2502 15.6915 14.2502 15.5166C14.2502 15.3417 14.1084 15.2 13.9335 15.2Z" fill="white"/>
<path d="M12.3502 16.4666H10.7669C10.592 16.4666 10.4502 16.6083 10.4502 16.7832C10.4502 16.9581 10.592 17.0999 10.7669 17.0999H12.3502C12.5251 17.0999 12.6669 16.9581 12.6669 16.7832C12.6669 16.6083 12.5251 16.4666 12.3502 16.4666Z" fill="white"/>
</g>
<defs>
<clipPath id="clip0_1212_349">
<rect width="19" height="19" fill="white"/>
</clipPath>
</defs>
</svg>
