<?xml version="1.0" standalone="no"?>
<!DOCTYPE svg PUBLIC "-//W3C//DTD SVG 20010904//EN"
 "http://www.w3.org/TR/2001/REC-SVG-20010904/DTD/svg10.dtd">
<svg version="1.0" xmlns="http://www.w3.org/2000/svg"
 width="256.000000pt" height="256.000000pt" viewBox="0 0 256.000000 256.000000"
 preserveAspectRatio="xMidYMid meet">
<metadata>
Created by potrace 1.14, written by Peter Selinger 2001-2017
</metadata>
<g transform="translate(0.000000,256.000000) scale(0.100000,-0.100000)"
fill="#000000" stroke="none">
<path d="M0 1280 l0 -1280 1280 0 1280 0 0 1280 0 1280 -1280 0 -1280 0 0
-1280z m1525 986 c369 -95 656 -387 740 -752 80 -340 -12 -678 -253 -935 -221
-236 -581 -359 -890 -305 -94 17 -235 62 -307 98 -141 72 -323 243 -408 384
-89 149 -147 362 -147 537 0 164 59 366 149 512 157 254 412 428 705 480 118
21 286 13 411 -19z"/>
<path d="M1189 2249 c-146 -12 -262 -49 -397 -126 -334 -194 -525 -568 -482
-943 15 -133 34 -199 95 -325 96 -197 241 -347 425 -440 214 -108 409 -135
645 -90 301 57 574 281 699 572 61 142 71 199 70 383 -1 197 -17 271 -93 425
-184 374 -542 576 -962 544z m-380 -817 c24 -86 47 -164 52 -172 5 -10 12 3
23 40 9 30 30 107 48 170 l33 115 43 3 42 3 0 -311 0 -311 -42 3 -43 3 0 167
c0 92 -3 161 -6 155 -3 -7 -21 -69 -39 -139 -30 -115 -35 -128 -55 -128 -20 0
-25 12 -48 103 -15 56 -30 117 -33 135 -14 69 -19 25 -16 -133 l3 -165 -46 0
-45 0 0 310 0 310 43 0 42 0 44 -158z m450 -9 c25 -89 49 -164 52 -167 3 -3
27 70 54 164 l48 170 44 0 43 0 0 -310 0 -310 -45 0 -45 0 -2 167 -3 167 -35
-137 c-32 -124 -37 -137 -57 -137 -24 0 -26 5 -65 165 -11 50 -24 93 -27 97
-3 4 -6 -66 -6 -155 l0 -162 -42 -3 -43 -3 0 311 0 311 42 -3 41 -3 46 -162z
m611 157 c0 -6 -7 -24 -15 -40 -15 -30 -16 -30 -105 -30 l-90 0 0 -230 0 -230
65 0 65 0 0 85 0 85 -35 0 c-19 0 -35 2 -35 5 0 2 8 20 17 40 17 35 17 35 80
35 l63 0 0 -149 c0 -187 5 -181 -157 -181 -164 0 -153 -23 -153 310 0 336 -14
310 170 310 84 0 130 -4 130 -10z"/>
</g>
</svg>
