<svg width="172" height="22" viewBox="0 0 172 22" fill="none" xmlns="http://www.w3.org/2000/svg">
<path d="M38.494 4.4H41.41V14.624H47.728V17H38.494V4.4ZM58.575 12.194C58.575 12.23 58.557 12.482 58.521 12.95H51.195C51.327 13.55 51.639 14.024 52.131 14.372C52.623 14.72 53.235 14.894 53.967 14.894C54.471 14.894 54.915 14.822 55.299 14.678C55.695 14.522 56.061 14.282 56.397 13.958L57.891 15.578C56.979 16.622 55.647 17.144 53.895 17.144C52.803 17.144 51.837 16.934 50.997 16.514C50.157 16.082 49.509 15.488 49.053 14.732C48.597 13.976 48.369 13.118 48.369 12.158C48.369 11.21 48.591 10.358 49.035 9.602C49.491 8.834 50.109 8.24 50.889 7.82C51.681 7.388 52.563 7.172 53.535 7.172C54.483 7.172 55.341 7.376 56.109 7.784C56.877 8.192 57.477 8.78 57.909 9.548C58.353 10.304 58.575 11.186 58.575 12.194ZM53.553 9.296C52.917 9.296 52.383 9.476 51.951 9.836C51.519 10.196 51.255 10.688 51.159 11.312H55.929C55.833 10.7 55.569 10.214 55.137 9.854C54.705 9.482 54.177 9.296 53.553 9.296ZM64.0868 7.172C65.5868 7.172 66.7388 7.532 67.5428 8.252C68.3468 8.96 68.7488 10.034 68.7488 11.474V17H66.1208V15.794C65.5928 16.694 64.6088 17.144 63.1688 17.144C62.4248 17.144 61.7768 17.018 61.2248 16.766C60.6848 16.514 60.2708 16.166 59.9828 15.722C59.6948 15.278 59.5508 14.774 59.5508 14.21C59.5508 13.31 59.8868 12.602 60.5588 12.086C61.2428 11.57 62.2928 11.312 63.7088 11.312H65.9408C65.9408 10.7 65.7548 10.232 65.3828 9.908C65.0108 9.572 64.4528 9.404 63.7088 9.404C63.1928 9.404 62.6828 9.488 62.1788 9.656C61.6868 9.812 61.2668 10.028 60.9188 10.304L59.9108 8.342C60.4388 7.97 61.0688 7.682 61.8008 7.478C62.5448 7.274 63.3068 7.172 64.0868 7.172ZM63.8708 15.254C64.3508 15.254 64.7768 15.146 65.1488 14.93C65.5208 14.702 65.7848 14.372 65.9408 13.94V12.95H64.0148C62.8628 12.95 62.2868 13.328 62.2868 14.084C62.2868 14.444 62.4248 14.732 62.7008 14.948C62.9888 15.152 63.3788 15.254 63.8708 15.254ZM77.1761 7.172C78.3761 7.172 79.3421 7.532 80.0741 8.252C80.8181 8.972 81.1901 10.04 81.1901 11.456V17H78.3821V11.888C78.3821 11.12 78.2141 10.55 77.8781 10.178C77.5421 9.794 77.0561 9.602 76.4201 9.602C75.7121 9.602 75.1481 9.824 74.7281 10.268C74.3081 10.7 74.0981 11.348 74.0981 12.212V17H71.2901V7.316H73.9721V8.45C74.3441 8.042 74.8061 7.73 75.3581 7.514C75.9101 7.286 76.5161 7.172 77.1761 7.172ZM89.0311 4.4H94.7551C96.1231 4.4 97.3291 4.664 98.3731 5.192C99.4291 5.708 100.245 6.44 100.821 7.388C101.409 8.336 101.703 9.44 101.703 10.7C101.703 11.96 101.409 13.064 100.821 14.012C100.245 14.96 99.4291 15.698 98.3731 16.226C97.3291 16.742 96.1231 17 94.7551 17H89.0311V4.4ZM94.6111 14.606C95.8711 14.606 96.8731 14.258 97.6171 13.562C98.3731 12.854 98.7511 11.9 98.7511 10.7C98.7511 9.5 98.3731 8.552 97.6171 7.856C96.8731 7.148 95.8711 6.794 94.6111 6.794H91.9471V14.606H94.6111ZM103.704 7.316H106.512V17H103.704V7.316ZM105.108 5.966C104.592 5.966 104.172 5.816 103.848 5.516C103.524 5.216 103.362 4.844 103.362 4.4C103.362 3.956 103.524 3.584 103.848 3.284C104.172 2.984 104.592 2.834 105.108 2.834C105.624 2.834 106.044 2.978 106.368 3.266C106.692 3.554 106.854 3.914 106.854 4.346C106.854 4.814 106.692 5.204 106.368 5.516C106.044 5.816 105.624 5.966 105.108 5.966ZM112.376 17.144C111.572 17.144 110.786 17.048 110.018 16.856C109.25 16.652 108.638 16.4 108.182 16.1L109.118 14.084C109.55 14.36 110.072 14.588 110.684 14.768C111.296 14.936 111.896 15.02 112.484 15.02C113.672 15.02 114.266 14.726 114.266 14.138C114.266 13.862 114.104 13.664 113.78 13.544C113.456 13.424 112.958 13.322 112.286 13.238C111.494 13.118 110.84 12.98 110.324 12.824C109.808 12.668 109.358 12.392 108.974 11.996C108.602 11.6 108.416 11.036 108.416 10.304C108.416 9.692 108.59 9.152 108.938 8.684C109.298 8.204 109.814 7.832 110.486 7.568C111.17 7.304 111.974 7.172 112.898 7.172C113.582 7.172 114.26 7.25 114.932 7.406C115.616 7.55 116.18 7.754 116.624 8.018L115.688 10.016C114.836 9.536 113.906 9.296 112.898 9.296C112.298 9.296 111.848 9.38 111.548 9.548C111.248 9.716 111.098 9.932 111.098 10.196C111.098 10.496 111.26 10.706 111.584 10.826C111.908 10.946 112.424 11.06 113.132 11.168C113.924 11.3 114.572 11.444 115.076 11.6C115.58 11.744 116.018 12.014 116.39 12.41C116.762 12.806 116.948 13.358 116.948 14.066C116.948 14.666 116.768 15.2 116.408 15.668C116.048 16.136 115.52 16.502 114.824 16.766C114.14 17.018 113.324 17.144 112.376 17.144ZM124.405 7.172C125.305 7.172 126.121 7.382 126.853 7.802C127.597 8.21 128.179 8.792 128.599 9.548C129.019 10.292 129.229 11.162 129.229 12.158C129.229 13.154 129.019 14.03 128.599 14.786C128.179 15.53 127.597 16.112 126.853 16.532C126.121 16.94 125.305 17.144 124.405 17.144C123.169 17.144 122.197 16.754 121.489 15.974V20.492H118.681V7.316H121.363V8.432C122.059 7.592 123.073 7.172 124.405 7.172ZM123.919 14.84C124.639 14.84 125.227 14.6 125.683 14.12C126.151 13.628 126.385 12.974 126.385 12.158C126.385 11.342 126.151 10.694 125.683 10.214C125.227 9.722 124.639 9.476 123.919 9.476C123.199 9.476 122.605 9.722 122.137 10.214C121.681 10.694 121.453 11.342 121.453 12.158C121.453 12.974 121.681 13.628 122.137 14.12C122.605 14.6 123.199 14.84 123.919 14.84ZM134.856 7.172C136.356 7.172 137.508 7.532 138.312 8.252C139.116 8.96 139.518 10.034 139.518 11.474V17H136.89V15.794C136.362 16.694 135.378 17.144 133.938 17.144C133.194 17.144 132.546 17.018 131.994 16.766C131.454 16.514 131.04 16.166 130.752 15.722C130.464 15.278 130.32 14.774 130.32 14.21C130.32 13.31 130.656 12.602 131.328 12.086C132.012 11.57 133.062 11.312 134.478 11.312H136.71C136.71 10.7 136.524 10.232 136.152 9.908C135.78 9.572 135.222 9.404 134.478 9.404C133.962 9.404 133.452 9.488 132.948 9.656C132.456 9.812 132.036 10.028 131.688 10.304L130.68 8.342C131.208 7.97 131.838 7.682 132.57 7.478C133.314 7.274 134.076 7.172 134.856 7.172ZM134.64 15.254C135.12 15.254 135.546 15.146 135.918 14.93C136.29 14.702 136.554 14.372 136.71 13.94V12.95H134.784C133.632 12.95 133.056 13.328 133.056 14.084C133.056 14.444 133.194 14.732 133.47 14.948C133.758 15.152 134.148 15.254 134.64 15.254ZM148.306 16.532C148.03 16.736 147.688 16.892 147.28 17C146.884 17.096 146.464 17.144 146.02 17.144C144.868 17.144 143.974 16.85 143.338 16.262C142.714 15.674 142.402 14.81 142.402 13.67V9.692H140.908V7.532H142.402V5.174H145.21V7.532H147.622V9.692H145.21V13.634C145.21 14.042 145.312 14.36 145.516 14.588C145.732 14.804 146.032 14.912 146.416 14.912C146.86 14.912 147.238 14.792 147.55 14.552L148.306 16.532ZM154.263 17.144C153.231 17.144 152.301 16.934 151.473 16.514C150.657 16.082 150.015 15.488 149.547 14.732C149.091 13.976 148.863 13.118 148.863 12.158C148.863 11.198 149.091 10.34 149.547 9.584C150.015 8.828 150.657 8.24 151.473 7.82C152.301 7.388 153.231 7.172 154.263 7.172C155.283 7.172 156.171 7.388 156.927 7.82C157.695 8.24 158.253 8.846 158.601 9.638L156.423 10.808C155.919 9.92 155.193 9.476 154.245 9.476C153.513 9.476 152.907 9.716 152.427 10.196C151.947 10.676 151.707 11.33 151.707 12.158C151.707 12.986 151.947 13.64 152.427 14.12C152.907 14.6 153.513 14.84 154.245 14.84C155.205 14.84 155.931 14.396 156.423 13.508L158.601 14.696C158.253 15.464 157.695 16.064 156.927 16.496C156.171 16.928 155.283 17.144 154.263 17.144ZM166.034 7.172C167.234 7.172 168.2 7.532 168.932 8.252C169.676 8.972 170.048 10.04 170.048 11.456V17H167.24V11.888C167.24 11.12 167.072 10.55 166.736 10.178C166.4 9.794 165.914 9.602 165.278 9.602C164.57 9.602 164.006 9.824 163.586 10.268C163.166 10.7 162.956 11.348 162.956 12.212V17H160.148V3.644H162.956V8.324C163.328 7.952 163.778 7.67 164.306 7.478C164.834 7.274 165.41 7.172 166.034 7.172Z" fill="white"/>
<path d="M8.14539 20.8919C7.11816 20.6058 6.1547 19.7046 5.78533 18.6845L5.66682 18.3573L4.39976 18.3386C2.99609 18.318 2.90532 18.2972 2.65826 17.9394C2.47772 17.678 2.47772 17.1538 2.65826 16.8923C2.90513 16.5349 2.99676 16.5138 4.39315 16.4932L5.65359 16.4747L5.77566 16.1232C6.16572 14.9999 7.17815 14.0947 8.34779 13.8235C8.69031 13.7441 9.42375 13.7459 9.81737 13.8271C10.2796 13.9224 11.0685 14.3354 11.4324 14.6725C11.8799 15.0871 12.4615 16.0608 12.4615 16.3956C12.4615 16.4755 12.7292 16.4831 15.0938 16.4699L17.7262 16.4553L17.8531 16.0932C18.1283 15.3081 18.7608 14.5775 19.5157 14.1726C20.0743 13.873 20.5152 13.7634 21.1553 13.7653C22.0787 13.7679 22.8458 14.0765 23.5119 14.7135C23.9581 15.1401 24.2107 15.5187 24.4195 16.0738L24.5737 16.4835H25.4115H26.2494V14.1483V11.8131L25.6143 10.9698L24.9792 10.1264L21.3833 10.0981L17.7875 10.0699L17.5865 9.91154C17.2048 9.61079 17.2216 9.78499 17.2216 6.11712V2.80862H10.2298H3.23796L2.99703 2.68147C2.64039 2.49327 2.53084 2.30639 2.53084 1.88622C2.53084 1.61566 2.55828 1.49747 2.65287 1.36051C2.91952 0.974434 2.33637 1.00036 10.7518 1.00036H18.3544L18.5353 1.12751C18.8901 1.37689 18.9431 1.50866 18.9636 2.19097L18.9821 2.80862H20.9487C23.1205 2.80862 23.1706 2.81566 23.4188 3.15579C23.4949 3.2601 24.1483 4.56601 24.8708 6.05782L26.1845 8.7702L27.0382 9.90035C27.5233 10.5425 27.9152 11.1159 27.9458 11.2283C27.9781 11.3469 27.9998 12.654 28 14.4934C28.0004 17.8208 28.003 17.7883 27.697 18.0814C27.4598 18.3085 27.1786 18.3483 25.8097 18.3483H24.543L24.5109 18.4752C24.4932 18.545 24.381 18.8056 24.2615 19.0544C23.8347 19.9428 22.9224 20.6879 21.9817 20.9162C21.5256 21.0269 20.7285 21.0281 20.3108 20.9188C19.8249 20.7917 19.1497 20.4271 18.7972 20.1014C18.4157 19.7491 17.9708 19.0759 17.8434 18.6583L17.7487 18.3483H15.1051C12.8771 18.3483 12.4615 18.3607 12.4615 18.4273C12.4615 18.4708 12.3491 18.7382 12.2117 19.0216C11.8027 19.8654 11.1339 20.4734 10.2314 20.8219C9.71214 21.0224 8.73196 21.0553 8.1454 20.8919L8.14539 20.8919ZM9.69071 19.081C10.1036 18.9215 10.4729 18.5691 10.6636 18.1528C11.0661 17.2741 10.7109 16.2147 9.86253 15.763C9.4693 15.5537 8.88257 15.5238 8.45301 15.6912C7.84995 15.9262 7.39154 16.5502 7.33312 17.2156C7.26095 18.0376 7.7474 18.8214 8.50905 19.1104C8.81841 19.2277 9.34485 19.2146 9.69071 19.081ZM21.893 19.0256C22.2618 18.8328 22.5678 18.5093 22.7391 18.131C22.8551 17.8748 22.8838 17.7273 22.8841 17.3865C22.8845 17.0186 22.86 16.9101 22.7021 16.5788C22.3749 15.8924 21.78 15.5411 21.0308 15.5919C20.5362 15.6254 20.1707 15.8107 19.8321 16.1995C19.0317 17.1191 19.3625 18.5735 20.4825 19.059C20.9151 19.2465 21.4967 19.2328 21.893 19.0256ZM23.9514 8.26128C23.9514 8.24554 23.5574 7.41913 23.0758 6.42478L22.2002 4.61687H20.5863H18.9724V6.45337V8.28988H21.4619C22.8311 8.28988 23.9514 8.27702 23.9514 8.26128ZM1.9837 13.6345C1.31047 13.3242 1.26341 12.3435 1.90552 12.0054C2.07516 11.916 2.30961 11.9066 4.3528 11.9065C6.84521 11.9064 6.80017 11.9004 7.06914 12.2646C7.39244 12.7024 7.25353 13.3223 6.77337 13.5845C6.53591 13.7142 6.52778 13.7146 4.34148 13.7124C2.63066 13.7107 2.11172 13.6936 1.9837 13.6345ZM0.423794 9.97099C0.161967 9.78695 0.0327514 9.58 0.00444549 9.29935C-0.0319874 8.93814 0.158183 8.58305 0.47698 8.41702L0.721107 8.28988H4.63733H8.55357L8.79769 8.41702C9.11649 8.58305 9.30666 8.93814 9.27023 9.29935C9.24192 9.58 9.11271 9.78695 8.85088 9.97099L8.67 10.0981H4.63733H0.604674L0.423794 9.97099ZM1.92899 6.42599C1.34046 6.12148 1.27635 5.28785 1.80987 4.87706C1.96318 4.75901 1.99407 4.75803 6.01356 4.74294C10.0612 4.72776 10.0629 4.7278 10.2708 4.84849C10.8353 5.17616 10.8537 5.97139 10.3066 6.39337C10.1576 6.50824 10.099 6.51009 6.15166 6.52455C2.23969 6.53888 2.14282 6.53662 1.92899 6.42599Z" fill="white"/>
</svg>
