<svg width="17" height="17" viewBox="0 0 17 17" fill="none" xmlns="http://www.w3.org/2000/svg">
<g clip-path="url(#clip0_1293_584)">
<path d="M6.64819 16.5373C5.41549 16.3022 3.90756 15.4777 2.93879 14.5089C-0.0177854 11.5523 -0.0213538 6.99774 2.93118 4.04574C5.89349 1.08342 10.3984 1.08342 13.3606 4.04574C15.7053 6.39033 16.2248 9.67873 14.7221 12.6625C13.2681 15.5499 9.91337 17.1599 6.64865 16.5373H6.64819ZM9.90706 14.7345C10.9761 14.3667 11.6451 13.9452 12.3417 13.2004C13.3927 12.0768 13.8781 10.832 13.8781 9.26035C13.8781 7.6686 13.3875 6.42889 12.3039 5.28313C11.2008 4.11676 9.80518 3.52762 8.14533 3.52762C6.48555 3.52762 5.09034 4.11676 3.98725 5.28313C2.90362 6.42889 2.41283 7.6686 2.41283 9.26035C2.41283 12.493 4.86686 14.9684 8.0925 14.9892C8.82369 14.9967 9.38061 14.9158 9.90706 14.7347V14.7345ZM9.21455 11.2482L7.36492 10.1077L7.36423 7.5985L7.36331 5.08912H7.94994H8.53657V7.29907V9.5088L10.105 10.4468C10.9677 10.9626 11.7046 11.4351 11.7426 11.4966C11.8182 11.6191 11.3156 12.3889 11.1601 12.3889C11.1072 12.3889 10.2318 11.8755 9.21455 11.2482ZM0.404954 3.83743C0.11771 3.50143 -0.0512523 3.19788 0.0139446 3.13454C0.0770627 3.07331 0.920584 2.37118 1.88848 1.57442L3.64837 0.125953L4.2087 0.716505L4.76904 1.30729L2.88319 2.87225C1.84586 3.73303 0.97768 4.4354 0.953982 4.43306C0.931305 4.4306 0.683241 4.16247 0.404954 3.83743ZM13.4248 2.85771C12.4211 1.99776 11.6072 1.26216 11.6162 1.22286C11.6238 1.18355 11.8491 0.892357 12.1138 0.575557L12.5948 0L14.2481 1.39195C16.6924 3.44986 16.489 3.1516 15.8986 3.8109C15.6223 4.11969 15.363 4.38311 15.3228 4.39661C15.2828 4.41173 14.4285 3.71759 13.4248 2.85771Z" fill="white"/>
</g>
<defs>
<clipPath id="clip0_1293_584">
<rect width="16.2804" height="16.6703" fill="white"/>
</clipPath>
</defs>
</svg>
