<svg width="45" height="43" viewBox="0 0 45 43" fill="none" xmlns="http://www.w3.org/2000/svg">
<path d="M28.9683 6.7732C28.8933 7.22112 28.8558 7.66903 28.8558 8.11695C28.8558 12.1482 32.2683 15.4072 36.4683 15.4072C36.937 15.4072 37.387 15.3553 37.8558 15.2836V29.7406C37.8558 35.8161 34.1058 39.4174 27.7308 39.4174H13.8764C7.49951 39.4174 3.74951 35.8161 3.74951 29.7406V16.484C3.74951 10.3924 7.49951 6.7732 13.8764 6.7732H28.9683ZM29.3451 17.6665C28.837 17.6128 28.3326 17.8278 28.0308 18.2219L23.4951 23.8299L18.2995 19.924C17.9808 19.6911 17.6058 19.5997 17.2308 19.6374C16.8576 19.6911 16.5201 19.8864 16.2933 20.1731L10.7451 27.0728L10.6308 27.234C10.312 27.8056 10.462 28.5402 11.0245 28.9361C11.287 29.0974 11.5683 29.2049 11.887 29.2049C12.3201 29.2228 12.7308 29.006 12.9933 28.6674L17.6995 22.8785L23.0433 26.7145L23.212 26.8202C23.812 27.1247 24.562 26.9832 24.9933 26.4439L30.412 19.7628L30.337 19.7986C30.637 19.4044 30.6933 18.9028 30.487 18.4549C30.2826 18.0069 29.8308 17.7024 29.3451 17.6665ZM36.7309 3.5835C39.2247 3.5835 41.2497 5.5185 41.2497 7.90141C41.2497 10.2843 39.2247 12.2193 36.7309 12.2193C34.2372 12.2193 32.2122 10.2843 32.2122 7.90141C32.2122 5.5185 34.2372 3.5835 36.7309 3.5835Z" fill="#173969"/>
</svg>
