<svg width="22" height="22" viewBox="0 0 22 22" fill="none" xmlns="http://www.w3.org/2000/svg">
<g clip-path="url(#clip0_1212_243)">
<path d="M18.8936 6.68254H13.1344V2.57438C13.1344 1.90441 12.8738 1.27741 12.4026 0.810945C11.9306 0.338977 11.3043 0.0791016 10.6388 0.0791016H2.71877C1.34274 0.0791016 0.223145 1.1987 0.223145 2.57473V7.85473C0.223145 9.23076 1.34274 10.3504 2.71877 10.3504H2.86315V11.8147C2.86315 12.2967 3.15086 12.7246 3.59568 12.9048C3.73902 12.9625 3.88786 12.9907 4.03533 12.9907C4.34333 12.9907 4.64343 12.8687 4.86308 12.6408L6.5399 10.9732V15.8796C6.5399 17.4694 7.83343 18.7629 9.42327 18.7629H13.6139L16.3925 21.5264C16.6424 21.7842 16.9775 21.9213 17.3202 21.9213C17.4839 21.9213 17.6489 21.89 17.807 21.8261C18.301 21.6264 18.6196 21.1506 18.6196 20.6151V18.7629H18.8932C20.4831 18.7629 21.7766 17.4694 21.7766 15.8796V9.56591C21.777 7.97607 20.4834 6.68254 18.8936 6.68254ZM6.5423 9.51676L4.12883 11.9165C4.0869 11.9601 4.03774 11.9715 3.9824 11.9484C3.94218 11.9323 3.8944 11.8959 3.8944 11.8144V9.83438C3.8944 9.54941 3.66374 9.31876 3.37877 9.31876H2.71877C1.9113 9.31876 1.25439 8.66185 1.25439 7.85438V2.57438C1.25439 1.76691 1.9113 1.11001 2.71877 1.11001H10.6388C11.0286 1.11001 11.3961 1.26263 11.6752 1.54176C11.9512 1.81504 12.1031 2.18182 12.1031 2.57438V6.68254H9.42327C8.65465 6.68254 7.93105 6.98298 7.38552 7.52816C6.85202 8.06166 6.55502 8.76635 6.5423 9.51676ZM20.7457 15.8792C20.7457 16.9005 19.9149 17.7314 18.8936 17.7314H18.1043C17.8197 17.7314 17.5887 17.9624 17.5887 18.247V20.6147C17.5887 20.7835 17.4708 20.8499 17.4203 20.8701C17.3711 20.8897 17.2446 20.9234 17.1267 20.8017L14.1907 17.8816C14.0942 17.7857 13.9635 17.7314 13.8271 17.7314H9.42327C8.40199 17.7314 7.57115 16.9005 7.57115 15.8792V9.56591C7.57115 9.07229 7.76433 8.60788 8.11462 8.2576C8.46524 7.90698 8.92999 7.71379 9.42327 7.71379H18.8936C19.9149 7.71379 20.7457 8.54463 20.7457 9.56591V15.8792Z" fill="white"/>
<path d="M10.9663 11.9702C10.5469 11.9702 10.2056 12.3119 10.2056 12.7309C10.2056 13.15 10.5473 13.4917 10.9663 13.4917C11.386 13.4917 11.7277 13.15 11.7277 12.7309C11.7277 12.3119 11.386 11.9702 10.9663 11.9702Z" fill="white"/>
<path d="M14.1582 11.9702C13.7388 11.9702 13.3975 12.3119 13.3975 12.7309C13.3975 13.15 13.7391 13.4917 14.1582 13.4917C14.5779 13.4917 14.9196 13.15 14.9196 12.7309C14.9196 12.3119 14.5782 11.9702 14.1582 11.9702Z" fill="white"/>
<path d="M17.3501 11.9702C16.9307 11.9702 16.5894 12.3119 16.5894 12.7309C16.5894 13.15 16.931 13.4917 17.3501 13.4917C17.7698 13.4917 18.1115 13.15 18.1115 12.7309C18.1115 12.3119 17.7698 11.9702 17.3501 11.9702Z" fill="white"/>
</g>
<defs>
<clipPath id="clip0_1212_243">
<rect width="22" height="22" fill="white"/>
</clipPath>
</defs>
</svg>
