<svg width="24" height="24" viewBox="0 0 24 24" fill="none" xmlns="http://www.w3.org/2000/svg">
<path d="M23.7568 7.15681L15.6943 2.72969C15.5539 2.6526 15.3836 2.6526 15.2432 2.72969L12.2113 4.39449C12.1428 4.41353 12.0789 4.4485 12.0247 4.49684L7.18066 7.15681C7.0307 7.23921 6.9375 7.39668 6.9375 7.5677V8.52608H1.5293C1.27039 8.52608 1.06055 8.7361 1.06055 8.99483C1.06055 9.25374 1.27039 9.46358 1.5293 9.46358H6.9375V11.1511H4.25006C3.99115 11.1511 3.78131 11.3611 3.78131 11.6198C3.78131 11.8787 3.99115 12.0886 4.25006 12.0886H6.9375V14.5261H3C2.74109 14.5261 2.53125 14.7361 2.53125 14.9948C2.53125 15.2537 2.74109 15.4636 3 15.4636H6.9375V16.4221C6.9375 16.5932 7.0307 16.7506 7.18066 16.833L15.2432 21.2601C15.3135 21.2988 15.3911 21.318 15.4688 21.318C15.5464 21.318 15.624 21.2988 15.6943 21.2601L23.7568 16.833C23.9068 16.7506 24 16.5932 24 16.4221V14.323C24 14.0643 23.7902 13.8543 23.5312 13.8543C23.2723 13.8543 23.0625 14.0643 23.0625 14.323V16.1447L15.9375 20.0571V12.2722L18.2034 11.028V13.0026C18.2034 13.1685 18.291 13.322 18.4336 13.4062C18.507 13.4496 18.5896 13.4714 18.6722 13.4714C18.7498 13.4714 18.8276 13.4522 18.8981 13.4133L20.6259 12.4625C20.7755 12.3801 20.8685 12.2228 20.8685 12.0518V9.56465L23.0625 8.36V10.573C23.0625 10.8319 23.2723 11.0418 23.5312 11.0418C23.7902 11.0418 24 10.8319 24 10.573V7.5677C24 7.39668 23.9068 7.23921 23.7568 7.15681ZM15 20.0571L7.875 16.1447V8.36L15 12.2722V20.0571ZM15.4688 11.4602L8.38019 7.5677L10.608 6.34438L17.6968 10.2368L15.4688 11.4602ZM18.6707 9.70198L11.582 5.80952L12.3505 5.38765L19.439 9.28011L18.6707 9.70198ZM19.931 11.7747L19.1409 12.2096V10.5133L19.931 10.0794V11.7747ZM20.413 8.74525L13.3244 4.8528L15.4688 3.67543L22.5573 7.5677L20.413 8.74525Z" fill="white"/>
<path d="M23.5312 11.9795C23.408 11.9795 23.287 12.0291 23.1998 12.1168C23.1127 12.204 23.0625 12.3245 23.0625 12.4482C23.0625 12.5715 23.1127 12.6925 23.1998 12.7797C23.287 12.8668 23.408 12.917 23.5312 12.917C23.6545 12.917 23.7755 12.8668 23.8627 12.7797C23.9498 12.6925 24 12.5715 24 12.4482C24 12.3245 23.9498 12.204 23.8627 12.1168C23.7755 12.0291 23.6545 11.9795 23.5312 11.9795Z" fill="white"/>
<path d="M1.14056 14.5264H0.46875C0.209839 14.5264 0 14.7364 0 14.9951C0 15.254 0.209839 15.4639 0.46875 15.4639H1.14056C1.39948 15.4639 1.60931 15.254 1.60931 14.9951C1.60931 14.7364 1.39948 14.5264 1.14056 14.5264Z" fill="white"/>
<path d="M2.84399 11.6201C2.84399 11.4969 2.79382 11.376 2.70648 11.2889C2.61932 11.2015 2.49847 11.1514 2.37524 11.1514C2.25183 11.1514 2.13098 11.2015 2.04382 11.2889C1.95612 11.376 1.90649 11.4969 1.90649 11.6201C1.90649 11.7435 1.95612 11.8644 2.04382 11.9515C2.13098 12.0387 2.25183 12.0889 2.37524 12.0889C2.49847 12.0889 2.61932 12.0389 2.70648 11.9515C2.79382 11.8644 2.84399 11.7435 2.84399 11.6201Z" fill="white"/>
</svg>
