<svg width="14" height="14" viewBox="0 0 14 14" fill="none" xmlns="http://www.w3.org/2000/svg">
<g clip-path="url(#clip0_1293_593)">
<mask id="path-1-outside-1_1293_593" maskUnits="userSpaceOnUse" x="-1" y="-1" width="16" height="16" fill="black">
<rect fill="white" x="-1" y="-1" width="16" height="16"/>
<path d="M0.0401101 13.9121C-0.136429 13.6264 0.196942 13.5822 2.52565 13.5822H4.94398L4.87864 13.116C4.84272 12.8596 4.75698 12.0927 4.68815 11.4119C4.57317 10.275 4.57894 10.1565 4.758 9.95845C4.88743 9.81524 5.09477 9.74286 5.37465 9.74286H5.79618V9.13952C5.79618 8.8077 5.75918 8.53697 5.71387 8.53794C5.66857 8.53892 5.2632 8.72413 4.81287 8.94939C3.61585 9.54815 3.5595 9.65829 3.49342 11.5316C3.44522 12.8993 3.41564 13.0905 3.24674 13.1228C3.072 13.1562 3.05481 13.0329 3.05481 11.7418C3.05481 10.962 3.11086 10.1562 3.17909 9.95117C3.36648 9.38851 3.98247 8.8122 4.70203 8.52626L5.34226 8.27188L4.96733 8.01694C4.12058 7.44133 4.00938 6.50901 4.66138 5.45226C5.0648 4.79841 5.08207 4.72973 5.13909 3.55616C5.21003 2.09621 5.43039 1.54701 6.23588 0.822517C7.8154 -0.59818 10.3004 -0.108143 11.238 1.80898C11.4883 2.32067 11.5429 2.60027 11.5855 3.58405C11.633 4.6817 11.6615 4.79995 12.0605 5.55631C12.2939 5.99884 12.4849 6.48175 12.4849 6.6294C12.4849 7.07542 12.2058 7.60146 11.7854 7.94816L11.3876 8.27618L11.988 8.52505C12.7655 8.84744 13.0989 9.11719 13.3651 9.63914C13.5535 10.0086 13.5813 10.2879 13.5813 11.8099C13.5813 13.4935 13.5904 13.5587 13.8123 13.6169C13.9395 13.6502 14.0214 13.7421 13.9949 13.8217C13.9559 13.9386 12.6316 13.9714 7.0276 13.9943C2.46851 14.0129 0.084983 13.9854 0.0399999 13.9122L0.0401101 13.9121ZM11.7312 11.9642C11.8243 11.0743 11.8811 10.3091 11.8573 10.2639C11.8335 10.2185 10.2874 10.1815 8.42141 10.1815H5.0287V10.5063C5.0287 10.9014 5.23603 12.9923 5.3092 13.3353L5.36187 13.5821H8.46185H11.5618L11.7312 11.9642ZM7.83099 12.3512C7.45473 11.8138 7.78844 11.1323 8.42791 11.1323C9.06735 11.1323 9.401 11.8138 9.02473 12.3512C8.89819 12.532 8.744 12.5949 8.42791 12.5949C8.11182 12.5949 7.9576 12.5319 7.83099 12.3512ZM8.62931 12.1694C8.71 12.1183 8.75933 11.9586 8.73894 11.8146C8.71114 11.6183 8.63333 11.5528 8.4278 11.5528C8.22229 11.5528 8.14441 11.6183 8.11667 11.8146C8.08508 12.0385 8.24067 12.2625 8.4278 12.2625C8.45795 12.2625 8.54859 12.2205 8.62931 12.1694ZM13.2366 11.8544C13.1877 9.68108 13.1241 9.53934 11.9366 8.95259C11.4843 8.7291 11.0526 8.54401 10.9772 8.54125C10.8836 8.53764 10.8402 8.72732 10.8402 9.13952V9.74286H11.3807C11.7258 9.74286 11.9834 9.80519 12.0934 9.91535C12.3312 10.1532 12.3265 10.3053 11.9957 13.116L11.9408 13.5822H12.6082H13.2755L13.2366 11.8544ZM10.4016 9.45684C10.4016 9.25356 10.3561 9.18832 10.2444 9.23122C9.70857 9.4369 8.22055 9.53108 7.34567 9.41463C6.83141 9.34618 6.37104 9.26565 6.3227 9.23585C6.27432 9.20605 6.23478 9.30791 6.23478 9.46224V9.74286H8.31818H10.4016V9.45684ZM10.0178 8.8891C10.5077 8.75041 10.5236 8.31661 10.0467 8.0974C9.84986 8.00693 9.59012 7.77435 9.4695 7.58058C9.2519 7.23103 9.24317 7.22833 8.34837 7.22414C7.45623 7.22052 7.44476 7.22336 7.27703 7.54785C7.18371 7.72825 6.91106 7.97612 6.67107 8.09861C6.34516 8.26493 6.23478 8.38797 6.23478 8.5849C6.23478 8.8155 6.30678 8.8627 6.81044 8.96119C7.43912 9.08416 9.49203 9.03808 10.0177 8.8891H10.0178ZM6.66501 7.59403C7.02083 7.2945 7.10595 6.954 6.84955 6.85557C6.76544 6.82324 6.55574 6.61213 6.38352 6.38636C6.09627 6.0098 6.06584 5.88 6.01553 4.81641C5.96932 3.84077 5.93122 3.65141 5.77502 3.62163C5.62321 3.59274 5.57559 3.70812 5.5138 4.2544C5.46055 4.72543 5.32865 5.10458 5.06682 5.53955C4.59647 6.32099 4.53776 6.56445 4.7006 7.05804C4.96183 7.84993 6.01855 8.13822 6.66501 7.59403ZM11.6874 7.51908C12.1143 7.09204 12.1455 6.40208 11.7629 5.84872C11.3644 5.27232 11.1799 4.74832 11.174 4.17593C11.1704 3.79594 11.1314 3.7097 10.9648 3.7097C10.7839 3.7097 10.7543 3.82671 10.7072 4.72812C10.6485 5.85107 10.559 6.09559 9.98842 6.69299C9.60719 7.09208 9.60403 7.10294 9.78846 7.38451C10.0351 7.76106 10.3515 7.88509 10.9354 7.8342C11.2612 7.80585 11.5016 7.70505 11.6875 7.51908H11.6874ZM9.45804 6.58244C9.83585 6.36206 10.2255 5.86884 10.165 5.68747C10.1398 5.61198 9.91132 5.74374 9.61449 6.00512C9.21264 6.35899 9.02088 6.45205 8.69376 6.45205C7.99135 6.45205 7.64669 5.90402 8.06103 5.44598C8.29315 5.1894 9.04697 5.1763 9.32066 5.42415C9.50519 5.59119 9.54323 5.57763 9.90502 5.21573C10.2515 4.86908 10.292 4.76728 10.292 4.24117V3.6536L9.74373 3.40197C9.44219 3.26364 9.19539 3.07879 9.19539 2.99129C9.19539 2.78435 9.46527 2.78844 9.78846 3.00033C9.92944 3.09279 10.2979 3.19835 10.6071 3.23499C11.1508 3.29945 11.1692 3.29259 11.1692 3.02844C11.1692 2.62065 10.9548 2.06818 10.5868 1.52682L10.2586 1.04395L10.0365 1.36226C9.36153 2.32957 7.82436 3.35432 6.75568 3.54944L6.34451 3.62461L6.34628 4.51738C6.34989 5.89595 6.73613 6.54903 7.68985 6.78976C8.17425 6.91202 9.07341 6.80593 9.45749 6.58255L9.45804 6.58244ZM9.08576 5.84872C9.08576 5.73387 8.9701 5.68427 8.70203 5.68427C8.43399 5.68427 8.31818 5.73387 8.31818 5.84872C8.31818 5.96357 8.43395 6.01327 8.70203 6.01327C8.97007 6.01327 9.08576 5.96357 9.08576 5.84872ZM7.38291 2.93365C8.11293 2.66041 9.00599 2.00764 9.49407 1.39058C9.69166 1.1408 9.85335 0.901937 9.85335 0.859771C9.85335 0.697066 9.21927 0.498809 8.53335 0.446891C7.95204 0.402829 7.70859 0.439681 7.24585 0.638231C6.30283 1.04407 5.57693 2.0346 5.57693 2.91546V3.30112L6.17771 3.23047C6.50815 3.19164 7.05055 3.05802 7.38291 2.93365ZM1.34766 4.48928C0.786943 4.23451 0.266394 3.61125 0.0910107 2.98457C-0.394958 1.24814 1.25232 -0.399799 2.98805 0.0863653C4.44498 0.494446 5.14457 2.1818 4.4212 3.54283C4.16186 4.0308 4.15515 4.08034 4.32237 4.2652C4.64279 4.6194 4.41742 4.69701 3.07586 4.6945C2.06666 4.6927 1.69895 4.649 1.34755 4.48928H1.34766ZM3.60326 4.10704C3.60326 3.96366 3.68515 3.7785 3.78549 3.6957C3.88567 3.61281 4.06327 3.32979 4.17992 3.06657C4.72701 1.83204 3.7618 0.425444 2.36424 0.420659C1.765 0.418853 1.3724 0.591263 0.957533 1.03976C0.535826 1.4956 0.423297 1.76991 0.423297 2.3421C0.423297 3.6387 1.28542 4.35282 2.86311 4.36308C3.57069 4.36849 3.60326 4.35581 3.60326 4.10704ZM1.42357 2.46434C1.29035 2.30362 1.36601 2.17391 1.59291 2.17391C1.75627 2.17391 1.79306 2.45673 1.64183 2.5502C1.5884 2.58324 1.49 2.54477 1.42346 2.46423L1.42357 2.46434ZM2.24988 2.53873C2.21017 2.49901 2.17772 2.40075 2.17772 2.32028C2.17772 2.15685 2.46042 2.12003 2.55385 2.27134C2.6284 2.39215 2.34905 2.63793 2.24988 2.53873ZM3.06837 2.46434C2.93515 2.30362 3.01069 2.17391 3.23759 2.17391C3.40095 2.17391 3.43785 2.45673 3.28662 2.5502C3.23319 2.58324 3.13481 2.54477 3.06826 2.46423L3.06837 2.46434Z"/>
</mask>
<path d="M0.0401101 13.9121C-0.136429 13.6264 0.196942 13.5822 2.52565 13.5822H4.94398L4.87864 13.116C4.84272 12.8596 4.75698 12.0927 4.68815 11.4119C4.57317 10.275 4.57894 10.1565 4.758 9.95845C4.88743 9.81524 5.09477 9.74286 5.37465 9.74286H5.79618V9.13952C5.79618 8.8077 5.75918 8.53697 5.71387 8.53794C5.66857 8.53892 5.2632 8.72413 4.81287 8.94939C3.61585 9.54815 3.5595 9.65829 3.49342 11.5316C3.44522 12.8993 3.41564 13.0905 3.24674 13.1228C3.072 13.1562 3.05481 13.0329 3.05481 11.7418C3.05481 10.962 3.11086 10.1562 3.17909 9.95117C3.36648 9.38851 3.98247 8.8122 4.70203 8.52626L5.34226 8.27188L4.96733 8.01694C4.12058 7.44133 4.00938 6.50901 4.66138 5.45226C5.0648 4.79841 5.08207 4.72973 5.13909 3.55616C5.21003 2.09621 5.43039 1.54701 6.23588 0.822517C7.8154 -0.59818 10.3004 -0.108143 11.238 1.80898C11.4883 2.32067 11.5429 2.60027 11.5855 3.58405C11.633 4.6817 11.6615 4.79995 12.0605 5.55631C12.2939 5.99884 12.4849 6.48175 12.4849 6.6294C12.4849 7.07542 12.2058 7.60146 11.7854 7.94816L11.3876 8.27618L11.988 8.52505C12.7655 8.84744 13.0989 9.11719 13.3651 9.63914C13.5535 10.0086 13.5813 10.2879 13.5813 11.8099C13.5813 13.4935 13.5904 13.5587 13.8123 13.6169C13.9395 13.6502 14.0214 13.7421 13.9949 13.8217C13.9559 13.9386 12.6316 13.9714 7.0276 13.9943C2.46851 14.0129 0.084983 13.9854 0.0399999 13.9122L0.0401101 13.9121ZM11.7312 11.9642C11.8243 11.0743 11.8811 10.3091 11.8573 10.2639C11.8335 10.2185 10.2874 10.1815 8.42141 10.1815H5.0287V10.5063C5.0287 10.9014 5.23603 12.9923 5.3092 13.3353L5.36187 13.5821H8.46185H11.5618L11.7312 11.9642ZM7.83099 12.3512C7.45473 11.8138 7.78844 11.1323 8.42791 11.1323C9.06735 11.1323 9.401 11.8138 9.02473 12.3512C8.89819 12.532 8.744 12.5949 8.42791 12.5949C8.11182 12.5949 7.9576 12.5319 7.83099 12.3512ZM8.62931 12.1694C8.71 12.1183 8.75933 11.9586 8.73894 11.8146C8.71114 11.6183 8.63333 11.5528 8.4278 11.5528C8.22229 11.5528 8.14441 11.6183 8.11667 11.8146C8.08508 12.0385 8.24067 12.2625 8.4278 12.2625C8.45795 12.2625 8.54859 12.2205 8.62931 12.1694ZM13.2366 11.8544C13.1877 9.68108 13.1241 9.53934 11.9366 8.95259C11.4843 8.7291 11.0526 8.54401 10.9772 8.54125C10.8836 8.53764 10.8402 8.72732 10.8402 9.13952V9.74286H11.3807C11.7258 9.74286 11.9834 9.80519 12.0934 9.91535C12.3312 10.1532 12.3265 10.3053 11.9957 13.116L11.9408 13.5822H12.6082H13.2755L13.2366 11.8544ZM10.4016 9.45684C10.4016 9.25356 10.3561 9.18832 10.2444 9.23122C9.70857 9.4369 8.22055 9.53108 7.34567 9.41463C6.83141 9.34618 6.37104 9.26565 6.3227 9.23585C6.27432 9.20605 6.23478 9.30791 6.23478 9.46224V9.74286H8.31818H10.4016V9.45684ZM10.0178 8.8891C10.5077 8.75041 10.5236 8.31661 10.0467 8.0974C9.84986 8.00693 9.59012 7.77435 9.4695 7.58058C9.2519 7.23103 9.24317 7.22833 8.34837 7.22414C7.45623 7.22052 7.44476 7.22336 7.27703 7.54785C7.18371 7.72825 6.91106 7.97612 6.67107 8.09861C6.34516 8.26493 6.23478 8.38797 6.23478 8.5849C6.23478 8.8155 6.30678 8.8627 6.81044 8.96119C7.43912 9.08416 9.49203 9.03808 10.0177 8.8891H10.0178ZM6.66501 7.59403C7.02083 7.2945 7.10595 6.954 6.84955 6.85557C6.76544 6.82324 6.55574 6.61213 6.38352 6.38636C6.09627 6.0098 6.06584 5.88 6.01553 4.81641C5.96932 3.84077 5.93122 3.65141 5.77502 3.62163C5.62321 3.59274 5.57559 3.70812 5.5138 4.2544C5.46055 4.72543 5.32865 5.10458 5.06682 5.53955C4.59647 6.32099 4.53776 6.56445 4.7006 7.05804C4.96183 7.84993 6.01855 8.13822 6.66501 7.59403ZM11.6874 7.51908C12.1143 7.09204 12.1455 6.40208 11.7629 5.84872C11.3644 5.27232 11.1799 4.74832 11.174 4.17593C11.1704 3.79594 11.1314 3.7097 10.9648 3.7097C10.7839 3.7097 10.7543 3.82671 10.7072 4.72812C10.6485 5.85107 10.559 6.09559 9.98842 6.69299C9.60719 7.09208 9.60403 7.10294 9.78846 7.38451C10.0351 7.76106 10.3515 7.88509 10.9354 7.8342C11.2612 7.80585 11.5016 7.70505 11.6875 7.51908H11.6874ZM9.45804 6.58244C9.83585 6.36206 10.2255 5.86884 10.165 5.68747C10.1398 5.61198 9.91132 5.74374 9.61449 6.00512C9.21264 6.35899 9.02088 6.45205 8.69376 6.45205C7.99135 6.45205 7.64669 5.90402 8.06103 5.44598C8.29315 5.1894 9.04697 5.1763 9.32066 5.42415C9.50519 5.59119 9.54323 5.57763 9.90502 5.21573C10.2515 4.86908 10.292 4.76728 10.292 4.24117V3.6536L9.74373 3.40197C9.44219 3.26364 9.19539 3.07879 9.19539 2.99129C9.19539 2.78435 9.46527 2.78844 9.78846 3.00033C9.92944 3.09279 10.2979 3.19835 10.6071 3.23499C11.1508 3.29945 11.1692 3.29259 11.1692 3.02844C11.1692 2.62065 10.9548 2.06818 10.5868 1.52682L10.2586 1.04395L10.0365 1.36226C9.36153 2.32957 7.82436 3.35432 6.75568 3.54944L6.34451 3.62461L6.34628 4.51738C6.34989 5.89595 6.73613 6.54903 7.68985 6.78976C8.17425 6.91202 9.07341 6.80593 9.45749 6.58255L9.45804 6.58244ZM9.08576 5.84872C9.08576 5.73387 8.9701 5.68427 8.70203 5.68427C8.43399 5.68427 8.31818 5.73387 8.31818 5.84872C8.31818 5.96357 8.43395 6.01327 8.70203 6.01327C8.97007 6.01327 9.08576 5.96357 9.08576 5.84872ZM7.38291 2.93365C8.11293 2.66041 9.00599 2.00764 9.49407 1.39058C9.69166 1.1408 9.85335 0.901937 9.85335 0.859771C9.85335 0.697066 9.21927 0.498809 8.53335 0.446891C7.95204 0.402829 7.70859 0.439681 7.24585 0.638231C6.30283 1.04407 5.57693 2.0346 5.57693 2.91546V3.30112L6.17771 3.23047C6.50815 3.19164 7.05055 3.05802 7.38291 2.93365ZM1.34766 4.48928C0.786943 4.23451 0.266394 3.61125 0.0910107 2.98457C-0.394958 1.24814 1.25232 -0.399799 2.98805 0.0863653C4.44498 0.494446 5.14457 2.1818 4.4212 3.54283C4.16186 4.0308 4.15515 4.08034 4.32237 4.2652C4.64279 4.6194 4.41742 4.69701 3.07586 4.6945C2.06666 4.6927 1.69895 4.649 1.34755 4.48928H1.34766ZM3.60326 4.10704C3.60326 3.96366 3.68515 3.7785 3.78549 3.6957C3.88567 3.61281 4.06327 3.32979 4.17992 3.06657C4.72701 1.83204 3.7618 0.425444 2.36424 0.420659C1.765 0.418853 1.3724 0.591263 0.957533 1.03976C0.535826 1.4956 0.423297 1.76991 0.423297 2.3421C0.423297 3.6387 1.28542 4.35282 2.86311 4.36308C3.57069 4.36849 3.60326 4.35581 3.60326 4.10704ZM1.42357 2.46434C1.29035 2.30362 1.36601 2.17391 1.59291 2.17391C1.75627 2.17391 1.79306 2.45673 1.64183 2.5502C1.5884 2.58324 1.49 2.54477 1.42346 2.46423L1.42357 2.46434ZM2.24988 2.53873C2.21017 2.49901 2.17772 2.40075 2.17772 2.32028C2.17772 2.15685 2.46042 2.12003 2.55385 2.27134C2.6284 2.39215 2.34905 2.63793 2.24988 2.53873ZM3.06837 2.46434C2.93515 2.30362 3.01069 2.17391 3.23759 2.17391C3.40095 2.17391 3.43785 2.45673 3.28662 2.5502C3.23319 2.58324 3.13481 2.54477 3.06826 2.46423L3.06837 2.46434Z" fill="white"/>
<path d="M0.0401101 13.9121C-0.136429 13.6264 0.196942 13.5822 2.52565 13.5822H4.94398L4.87864 13.116C4.84272 12.8596 4.75698 12.0927 4.68815 11.4119C4.57317 10.275 4.57894 10.1565 4.758 9.95845C4.88743 9.81524 5.09477 9.74286 5.37465 9.74286H5.79618V9.13952C5.79618 8.8077 5.75918 8.53697 5.71387 8.53794C5.66857 8.53892 5.2632 8.72413 4.81287 8.94939C3.61585 9.54815 3.5595 9.65829 3.49342 11.5316C3.44522 12.8993 3.41564 13.0905 3.24674 13.1228C3.072 13.1562 3.05481 13.0329 3.05481 11.7418C3.05481 10.962 3.11086 10.1562 3.17909 9.95117C3.36648 9.38851 3.98247 8.8122 4.70203 8.52626L5.34226 8.27188L4.96733 8.01694C4.12058 7.44133 4.00938 6.50901 4.66138 5.45226C5.0648 4.79841 5.08207 4.72973 5.13909 3.55616C5.21003 2.09621 5.43039 1.54701 6.23588 0.822517C7.8154 -0.59818 10.3004 -0.108143 11.238 1.80898C11.4883 2.32067 11.5429 2.60027 11.5855 3.58405C11.633 4.6817 11.6615 4.79995 12.0605 5.55631C12.2939 5.99884 12.4849 6.48175 12.4849 6.6294C12.4849 7.07542 12.2058 7.60146 11.7854 7.94816L11.3876 8.27618L11.988 8.52505C12.7655 8.84744 13.0989 9.11719 13.3651 9.63914C13.5535 10.0086 13.5813 10.2879 13.5813 11.8099C13.5813 13.4935 13.5904 13.5587 13.8123 13.6169C13.9395 13.6502 14.0214 13.7421 13.9949 13.8217C13.9559 13.9386 12.6316 13.9714 7.0276 13.9943C2.46851 14.0129 0.084983 13.9854 0.0399999 13.9122L0.0401101 13.9121ZM11.7312 11.9642C11.8243 11.0743 11.8811 10.3091 11.8573 10.2639C11.8335 10.2185 10.2874 10.1815 8.42141 10.1815H5.0287V10.5063C5.0287 10.9014 5.23603 12.9923 5.3092 13.3353L5.36187 13.5821H8.46185H11.5618L11.7312 11.9642ZM7.83099 12.3512C7.45473 11.8138 7.78844 11.1323 8.42791 11.1323C9.06735 11.1323 9.401 11.8138 9.02473 12.3512C8.89819 12.532 8.744 12.5949 8.42791 12.5949C8.11182 12.5949 7.9576 12.5319 7.83099 12.3512ZM8.62931 12.1694C8.71 12.1183 8.75933 11.9586 8.73894 11.8146C8.71114 11.6183 8.63333 11.5528 8.4278 11.5528C8.22229 11.5528 8.14441 11.6183 8.11667 11.8146C8.08508 12.0385 8.24067 12.2625 8.4278 12.2625C8.45795 12.2625 8.54859 12.2205 8.62931 12.1694ZM13.2366 11.8544C13.1877 9.68108 13.1241 9.53934 11.9366 8.95259C11.4843 8.7291 11.0526 8.54401 10.9772 8.54125C10.8836 8.53764 10.8402 8.72732 10.8402 9.13952V9.74286H11.3807C11.7258 9.74286 11.9834 9.80519 12.0934 9.91535C12.3312 10.1532 12.3265 10.3053 11.9957 13.116L11.9408 13.5822H12.6082H13.2755L13.2366 11.8544ZM10.4016 9.45684C10.4016 9.25356 10.3561 9.18832 10.2444 9.23122C9.70857 9.4369 8.22055 9.53108 7.34567 9.41463C6.83141 9.34618 6.37104 9.26565 6.3227 9.23585C6.27432 9.20605 6.23478 9.30791 6.23478 9.46224V9.74286H8.31818H10.4016V9.45684ZM10.0178 8.8891C10.5077 8.75041 10.5236 8.31661 10.0467 8.0974C9.84986 8.00693 9.59012 7.77435 9.4695 7.58058C9.2519 7.23103 9.24317 7.22833 8.34837 7.22414C7.45623 7.22052 7.44476 7.22336 7.27703 7.54785C7.18371 7.72825 6.91106 7.97612 6.67107 8.09861C6.34516 8.26493 6.23478 8.38797 6.23478 8.5849C6.23478 8.8155 6.30678 8.8627 6.81044 8.96119C7.43912 9.08416 9.49203 9.03808 10.0177 8.8891H10.0178ZM6.66501 7.59403C7.02083 7.2945 7.10595 6.954 6.84955 6.85557C6.76544 6.82324 6.55574 6.61213 6.38352 6.38636C6.09627 6.0098 6.06584 5.88 6.01553 4.81641C5.96932 3.84077 5.93122 3.65141 5.77502 3.62163C5.62321 3.59274 5.57559 3.70812 5.5138 4.2544C5.46055 4.72543 5.32865 5.10458 5.06682 5.53955C4.59647 6.32099 4.53776 6.56445 4.7006 7.05804C4.96183 7.84993 6.01855 8.13822 6.66501 7.59403ZM11.6874 7.51908C12.1143 7.09204 12.1455 6.40208 11.7629 5.84872C11.3644 5.27232 11.1799 4.74832 11.174 4.17593C11.1704 3.79594 11.1314 3.7097 10.9648 3.7097C10.7839 3.7097 10.7543 3.82671 10.7072 4.72812C10.6485 5.85107 10.559 6.09559 9.98842 6.69299C9.60719 7.09208 9.60403 7.10294 9.78846 7.38451C10.0351 7.76106 10.3515 7.88509 10.9354 7.8342C11.2612 7.80585 11.5016 7.70505 11.6875 7.51908H11.6874ZM9.45804 6.58244C9.83585 6.36206 10.2255 5.86884 10.165 5.68747C10.1398 5.61198 9.91132 5.74374 9.61449 6.00512C9.21264 6.35899 9.02088 6.45205 8.69376 6.45205C7.99135 6.45205 7.64669 5.90402 8.06103 5.44598C8.29315 5.1894 9.04697 5.1763 9.32066 5.42415C9.50519 5.59119 9.54323 5.57763 9.90502 5.21573C10.2515 4.86908 10.292 4.76728 10.292 4.24117V3.6536L9.74373 3.40197C9.44219 3.26364 9.19539 3.07879 9.19539 2.99129C9.19539 2.78435 9.46527 2.78844 9.78846 3.00033C9.92944 3.09279 10.2979 3.19835 10.6071 3.23499C11.1508 3.29945 11.1692 3.29259 11.1692 3.02844C11.1692 2.62065 10.9548 2.06818 10.5868 1.52682L10.2586 1.04395L10.0365 1.36226C9.36153 2.32957 7.82436 3.35432 6.75568 3.54944L6.34451 3.62461L6.34628 4.51738C6.34989 5.89595 6.73613 6.54903 7.68985 6.78976C8.17425 6.91202 9.07341 6.80593 9.45749 6.58255L9.45804 6.58244ZM9.08576 5.84872C9.08576 5.73387 8.9701 5.68427 8.70203 5.68427C8.43399 5.68427 8.31818 5.73387 8.31818 5.84872C8.31818 5.96357 8.43395 6.01327 8.70203 6.01327C8.97007 6.01327 9.08576 5.96357 9.08576 5.84872ZM7.38291 2.93365C8.11293 2.66041 9.00599 2.00764 9.49407 1.39058C9.69166 1.1408 9.85335 0.901937 9.85335 0.859771C9.85335 0.697066 9.21927 0.498809 8.53335 0.446891C7.95204 0.402829 7.70859 0.439681 7.24585 0.638231C6.30283 1.04407 5.57693 2.0346 5.57693 2.91546V3.30112L6.17771 3.23047C6.50815 3.19164 7.05055 3.05802 7.38291 2.93365ZM1.34766 4.48928C0.786943 4.23451 0.266394 3.61125 0.0910107 2.98457C-0.394958 1.24814 1.25232 -0.399799 2.98805 0.0863653C4.44498 0.494446 5.14457 2.1818 4.4212 3.54283C4.16186 4.0308 4.15515 4.08034 4.32237 4.2652C4.64279 4.6194 4.41742 4.69701 3.07586 4.6945C2.06666 4.6927 1.69895 4.649 1.34755 4.48928H1.34766ZM3.60326 4.10704C3.60326 3.96366 3.68515 3.7785 3.78549 3.6957C3.88567 3.61281 4.06327 3.32979 4.17992 3.06657C4.72701 1.83204 3.7618 0.425444 2.36424 0.420659C1.765 0.418853 1.3724 0.591263 0.957533 1.03976C0.535826 1.4956 0.423297 1.76991 0.423297 2.3421C0.423297 3.6387 1.28542 4.35282 2.86311 4.36308C3.57069 4.36849 3.60326 4.35581 3.60326 4.10704ZM1.42357 2.46434C1.29035 2.30362 1.36601 2.17391 1.59291 2.17391C1.75627 2.17391 1.79306 2.45673 1.64183 2.5502C1.5884 2.58324 1.49 2.54477 1.42346 2.46423L1.42357 2.46434ZM2.24988 2.53873C2.21017 2.49901 2.17772 2.40075 2.17772 2.32028C2.17772 2.15685 2.46042 2.12003 2.55385 2.27134C2.6284 2.39215 2.34905 2.63793 2.24988 2.53873ZM3.06837 2.46434C2.93515 2.30362 3.01069 2.17391 3.23759 2.17391C3.40095 2.17391 3.43785 2.45673 3.28662 2.5502C3.23319 2.58324 3.13481 2.54477 3.06826 2.46423L3.06837 2.46434Z" stroke="white" stroke-width="0.2" mask="url(#path-1-outside-1_1293_593)"/>
</g>
<defs>
<clipPath id="clip0_1293_593">
<rect width="14" height="14" fill="white"/>
</clipPath>
</defs>
</svg>
