<svg width="17" height="17" viewBox="0 0 17 17" fill="none" xmlns="http://www.w3.org/2000/svg">
<g clip-path="url(#clip0_1274_5426)">
<path d="M12.3959 17.0003C9.85725 17.0003 7.79175 14.9348 7.79175 12.3962C7.79175 9.85749 9.85725 7.79199 12.3959 7.79199C14.9346 7.79199 17.0001 9.85749 17.0001 12.3962C17.0001 14.9348 14.9346 17.0003 12.3959 17.0003ZM12.3959 8.85449C10.443 8.85449 8.85425 10.4433 8.85425 12.3962C8.85425 14.349 10.443 15.9378 12.3959 15.9378C14.3488 15.9378 15.9376 14.349 15.9376 12.3962C15.9376 10.4433 14.3488 8.85449 12.3959 8.85449Z" fill="white"/>
<path d="M12.3958 14.8753C12.1025 14.8753 11.8645 14.6373 11.8645 14.3441V10.4482C11.8645 10.155 12.1025 9.91699 12.3958 9.91699C12.689 9.91699 12.927 10.155 12.927 10.4482V14.3441C12.927 14.6373 12.689 14.8753 12.3958 14.8753Z" fill="white"/>
<path d="M14.3438 12.9268H10.448C10.1547 12.9268 9.91675 12.6888 9.91675 12.3955C9.91675 12.1023 10.1547 11.8643 10.448 11.8643H14.3438C14.6371 11.8643 14.8751 12.1023 14.8751 12.3955C14.8751 12.6888 14.6371 12.9268 14.3438 12.9268Z" fill="white"/>
<path d="M6.50958 14.875H1.94792C0.873375 14.875 0 14.0016 0 12.9271V1.94792C0 0.873375 0.873375 0 1.94792 0H10.0938C11.1683 0 12.0417 0.873375 12.0417 1.94792V6.26167C12.0417 6.55492 11.8037 6.79292 11.5104 6.79292C11.2172 6.79292 10.9792 6.55492 10.9792 6.26167V1.94792C10.9792 1.45987 10.5818 1.0625 10.0938 1.0625H1.94792C1.45988 1.0625 1.0625 1.45987 1.0625 1.94792V12.9271C1.0625 13.4151 1.45988 13.8125 1.94792 13.8125H6.50958C6.80283 13.8125 7.04083 14.0505 7.04083 14.3438C7.04083 14.637 6.80283 14.875 6.50958 14.875Z" fill="white"/>
<path d="M9.38542 6.72949H2.65625C2.363 6.72949 2.125 6.49149 2.125 6.19824C2.125 5.90499 2.363 5.66699 2.65625 5.66699H9.38542C9.67867 5.66699 9.91667 5.90499 9.91667 6.19824C9.91667 6.49149 9.67867 6.72949 9.38542 6.72949Z" fill="white"/>
<path d="M6.55208 9.5625H2.65625C2.363 9.5625 2.125 9.3245 2.125 9.03125C2.125 8.738 2.363 8.5 2.65625 8.5H6.55208C6.84533 8.5 7.08333 8.738 7.08333 9.03125C7.08333 9.3245 6.84533 9.5625 6.55208 9.5625Z" fill="white"/>
<path d="M5.84375 3.89551H2.65625C2.363 3.89551 2.125 3.65751 2.125 3.36426C2.125 3.07101 2.363 2.83301 2.65625 2.83301H5.84375C6.137 2.83301 6.375 3.07101 6.375 3.36426C6.375 3.65751 6.137 3.89551 5.84375 3.89551Z" fill="white"/>
</g>
<defs>
<clipPath id="clip0_1274_5426">
<rect width="17" height="17" fill="white"/>
</clipPath>
</defs>
</svg>
