<svg width="10" height="14" viewBox="0 0 10 14" fill="none" xmlns="http://www.w3.org/2000/svg">
<path d="M8.1337 13.9748C8.07717 13.9528 7.89575 13.8394 7.73075 13.7196L7.43039 13.5024L6.80608 13.7168C6.46265 13.8349 6.14485 13.9315 6.09987 13.9315C6.05494 13.9317 5.76945 13.8286 5.46556 13.7028L4.91298 13.4738L4.28667 13.6896C3.9422 13.8082 3.6244 13.9051 3.58027 13.9051C3.53624 13.9051 3.26695 13.8201 2.98211 13.7161L2.46421 13.5266L1.92924 13.7292C1.63499 13.841 1.35324 13.9318 1.30329 13.9318C1.17595 13.9318 0.175534 13.442 0.0769951 13.3314L0 13.2447V6.96298V0.681261L0.0769951 0.614565C0.119243 0.577681 0.450608 0.424334 0.812989 0.273524C1.6171 -0.0612934 1.64859 -0.0651086 1.94177 0.134587C2.05096 0.208905 2.21042 0.318962 2.29587 0.378692L2.45113 0.487388L3.07708 0.2705C3.42128 0.15104 3.73491 0.0536106 3.77403 0.0536106C3.81301 0.0536106 4.09599 0.157613 4.4027 0.28478L4.96056 0.516117L5.60139 0.295532C6.06951 0.134784 6.26743 0.0791639 6.33503 0.0898988C6.3859 0.0981564 6.64916 0.185292 6.91994 0.284108L7.41223 0.463532L7.95047 0.258404C8.24651 0.14555 8.51781 0.0534426 8.55336 0.0534426C8.62744 0.0534426 9.11656 0.237534 9.57917 0.439844C9.81808 0.54444 9.90724 0.599194 9.94726 0.665805C9.99427 0.744527 9.99992 1.42766 9.99992 6.9828C9.99977 13.0101 9.99818 13.2142 9.936 13.2931C9.8878 13.3547 9.69445 13.4484 9.1399 13.6785C8.73712 13.8455 8.36911 13.989 8.32201 13.9972C8.275 14.0054 8.19005 13.9952 8.13352 13.9725L8.1337 13.9748ZM9.23832 6.96818L9.24722 0.977782L8.89966 0.839518L8.55209 0.701421L8.03782 0.89647C7.74298 1.00822 7.47841 1.09169 7.41786 1.09169C7.35985 1.09169 7.09072 1.01108 6.82024 0.912262C6.5498 0.813722 6.30945 0.733005 6.28618 0.733005C6.26238 0.733005 5.97569 0.825846 5.64788 0.938974C5.32004 1.0521 5.00302 1.145 4.94349 1.14528C4.87387 1.1455 4.64186 1.06557 4.29284 0.921334L3.75042 0.696885L3.10614 0.918814C2.71299 1.05396 2.41591 1.14074 2.34417 1.14074C2.2216 1.14074 2.1651 1.10852 1.74092 0.795334L1.54662 0.651861L1.15874 0.813814L0.771041 0.975599L0.761961 6.98851L0.753063 13.0016L1.04797 13.1449L1.34287 13.2884L1.84425 13.094C2.1559 12.9732 2.3877 12.8997 2.45658 12.9C2.52025 12.9003 2.78438 12.9798 3.07708 13.0871L3.58681 13.2738L4.19914 13.0612C4.5512 12.939 4.86043 12.8482 4.92642 12.8474C5.00526 12.8467 5.21014 12.9165 5.58142 13.0701L6.12184 13.2939L6.7743 13.0701C7.13317 12.9471 7.45768 12.8464 7.4954 12.8464C7.62393 12.8464 7.72235 12.8964 8.02674 13.116L8.33091 13.3357L8.78017 13.1474L9.22943 12.9591L9.23832 6.96818ZM6.59834 10.2099C6.49837 10.1474 6.43771 10.0093 6.46359 9.90232C6.47252 9.86323 6.53353 9.7943 6.59779 9.74944L6.7151 9.66779H7.50484C8.38854 9.66779 8.44274 9.67606 8.54827 9.8536C8.61879 9.9714 8.56917 10.1261 8.43678 10.2093C8.35198 10.2621 8.30259 10.2649 7.51756 10.2649C6.73344 10.2649 6.68269 10.2625 6.59852 10.2093L6.59834 10.2099ZM1.62107 8.28094C1.47826 8.24736 1.33579 8.11061 1.33579 8.00794C1.33579 7.96362 1.35946 7.89126 1.38773 7.8475C1.49246 7.68703 1.50886 7.68538 2.99682 7.68538C4.48487 7.68538 4.5013 7.68681 4.60591 7.8475C4.67285 7.95044 4.67203 8.05186 4.603 8.14503C4.48875 8.29834 4.51162 8.29621 3.06582 8.30144C2.30676 8.3038 1.68327 8.29319 1.62162 8.27943L1.62107 8.28094ZM6.71256 8.28917C6.61616 8.26 6.50894 8.164 6.47086 8.07262C6.43932 7.9972 6.44407 7.96382 6.49465 7.87959C6.60532 7.70012 6.69373 7.68303 7.51629 7.68303C8.33875 7.68303 8.42722 7.69963 8.53792 7.87992C8.61706 8.00847 8.59137 8.11146 8.45421 8.21576L8.35106 8.29405L7.55696 8.29959C7.12023 8.30193 6.73973 8.29821 6.71147 8.29136L6.71256 8.28917ZM1.46472 6.54465C1.36565 6.47474 1.35268 6.44938 1.35268 6.32525C1.35268 6.20111 1.36476 6.17575 1.46472 6.10584L1.57658 6.02654H3.14917C4.08788 6.02654 4.75705 6.03758 4.80947 6.05409C5.0463 6.12566 5.09762 6.4096 4.89918 6.55037L4.79385 6.62529H3.18531H1.57677L1.46472 6.54465ZM6.62049 6.57204C6.45328 6.49111 6.40922 6.304 6.52407 6.16178C6.62582 6.03572 6.68647 6.02755 7.50938 6.02755C8.38752 6.02755 8.44234 6.03571 8.54392 6.20664C8.5942 6.29031 8.59753 6.32366 8.5648 6.41009C8.54397 6.46706 8.48562 6.53835 8.43623 6.56918C8.35174 6.62176 8.30205 6.62479 7.53808 6.62479C6.79746 6.62471 6.72015 6.61921 6.62013 6.57187L6.62049 6.57204ZM1.55189 4.92899C1.26746 4.8299 1.26995 4.49467 1.55497 4.38702C1.66357 4.34628 1.84385 4.3424 3.35383 4.34956L5.0321 4.35796L5.14396 4.44649C5.23679 4.51999 5.25582 4.55575 5.25582 4.65649C5.25582 4.75724 5.23798 4.79245 5.14396 4.8665L5.0321 4.9552L3.34602 4.96343C1.96302 4.96894 1.64026 4.96275 1.5508 4.93151L1.55189 4.92899ZM6.71256 4.951C6.61616 4.92182 6.50894 4.82566 6.47086 4.73428C6.43932 4.65886 6.44407 4.62564 6.49465 4.54141C6.60532 4.36195 6.69373 4.34485 7.51629 4.34485C8.33875 4.34485 8.42722 4.36146 8.53792 4.54175C8.61706 4.67029 8.59137 4.77312 8.45421 4.87742L8.35106 4.95587L7.55696 4.96142C7.12023 4.96376 6.73973 4.96004 6.71147 4.95318L6.71256 4.951Z" fill="white"/>
</svg>
