<svg width="12" height="14" viewBox="0 0 12 14" fill="none" xmlns="http://www.w3.org/2000/svg">
<g clip-path="url(#clip0_1293_599)">
<path d="M0.000340948 13.6727V7.00094V0.329116C-0.00777222 0.0697674 0.129741 -0.0142322 0.323982 0.00191487H4.05516H7.78633L7.94812 0.165551C8.16418 0.384005 8.16536 0.729218 7.95045 0.981372L7.79136 1.1684L4.48901 1.18692L1.18667 1.20544V7.01946L1.1866 12.8335L4.13708 12.8117C5.75985 12.7998 7.24735 12.8094 7.4426 12.8343C7.88949 12.8901 8.10955 13.0878 8.10955 13.4334C8.10955 13.5987 8.05946 13.7234 7.94769 13.8364L7.78584 14H4.05473H0.323558C0.126524 13.993 -0.00743611 13.9006 0.000340948 13.6727ZM7.11316 11.5331C6.95494 11.4396 6.83557 11.0971 6.88735 10.885C6.91633 10.7661 7.47566 10.1488 8.45887 9.15059L9.98532 7.60084H6.68298C3.48926 7.60084 3.37518 7.5961 3.21433 7.46853C3.005 7.30206 2.93656 7.03677 3.03868 6.78753C3.19766 6.39948 3.18347 6.40103 6.73809 6.40103H9.98794L8.49551 4.88454C7.67468 4.05049 6.97025 3.30258 6.93015 3.2225C6.81645 2.99542 6.84289 2.82902 7.02799 2.60665C7.16742 2.43912 7.24814 2.4016 7.46871 2.4016C7.73533 2.4016 7.76532 2.42851 9.86938 4.56034L12 6.71915V7.00888V7.2986L9.87256 9.4494C7.78608 11.5588 7.74005 11.6002 7.4825 11.5982C7.33807 11.5971 7.17194 11.5679 7.11323 11.5332L7.11316 11.5331Z" fill="white"/>
</g>
<defs>
<clipPath id="clip0_1293_599">
<rect width="12" height="14" fill="white"/>
</clipPath>
</defs>
</svg>
