<svg width="15" height="16" viewBox="0 0 15 16" fill="none" xmlns="http://www.w3.org/2000/svg">
<path d="M7.34704 15.6708C7.63772 15.6641 7.91668 15.5548 8.13455 15.3622C8.35243 15.1697 8.49519 14.9063 8.53758 14.6187H6.11035C6.15395 14.9141 6.30339 15.1837 6.53087 15.3772C6.75836 15.5708 7.0484 15.6751 7.34704 15.6708Z" fill="white"/>
<path d="M14.0426 12.694C13.5976 12.2973 13.208 11.8425 12.8843 11.3419C12.531 10.6509 12.3192 9.89633 12.2614 9.12237V6.8428C12.2595 6.56591 12.2348 6.28964 12.1875 6.01681C11.8243 5.9442 11.4753 5.8133 11.1539 5.62919C11.2764 6.02366 11.3386 6.43436 11.3385 6.84742V9.12698C11.395 10.0711 11.6548 10.9919 12.0999 11.8265C12.4185 12.3313 12.7965 12.7961 13.2258 13.2108H1.40806C1.8374 12.7961 2.21541 12.3313 2.534 11.8265C2.97912 10.9919 3.23883 10.0711 3.29539 9.12698V6.8428C3.29296 6.30876 3.3959 5.77948 3.59831 5.28528C3.80072 4.79107 4.09862 4.34165 4.47496 3.96273C4.8513 3.58382 5.29869 3.28286 5.7915 3.07709C6.28432 2.87132 6.81288 2.76479 7.34693 2.76358C8.12852 2.7642 8.89257 2.99534 9.54344 3.42807C9.47168 3.16457 9.43141 2.8935 9.42346 2.62053V2.32981C8.94164 2.09279 8.42402 1.93688 7.89144 1.86836V1.28694C7.89144 1.12355 7.82654 0.966861 7.71101 0.851331C7.59548 0.735802 7.43879 0.670898 7.2754 0.670898C7.11202 0.670898 6.95533 0.735802 6.8398 0.851331C6.72427 0.966861 6.65937 1.12355 6.65937 1.28694V1.89144C5.46685 2.05966 4.37545 2.65363 3.58667 3.5637C2.79789 4.47377 2.36498 5.63848 2.36788 6.8428V9.12237C2.31008 9.89633 2.09829 10.6509 1.74492 11.3419C1.42692 11.8414 1.0436 12.2961 0.605136 12.694C0.555913 12.7372 0.516464 12.7905 0.489412 12.8501C0.46236 12.9098 0.448325 12.9746 0.448242 13.0401V13.6677C0.448242 13.79 0.496859 13.9074 0.583398 13.994C0.669937 14.0805 0.787309 14.1291 0.909693 14.1291H13.738C13.8604 14.1291 13.9778 14.0805 14.0643 13.994C14.1509 13.9074 14.1995 13.79 14.1995 13.6677V13.0401C14.1994 12.9746 14.1854 12.9098 14.1583 12.8501C14.1313 12.7905 14.0918 12.7372 14.0426 12.694Z" fill="white"/>
<path d="M7.30091 15.6708C7.01022 15.6641 6.73127 15.5548 6.5134 15.3622C6.29552 15.1697 6.15276 14.9063 6.11037 14.6187H8.5376C8.494 14.9141 8.34456 15.1837 8.11708 15.3772C7.88959 15.5708 7.59955 15.6751 7.30091 15.6708Z" fill="white"/>
<path d="M0.605125 12.694C1.05011 12.2973 1.43968 11.8425 1.76337 11.3419C2.11673 10.6509 2.32853 9.89633 2.38632 9.12237V6.8428C2.3882 6.56591 2.41289 6.28964 2.46016 6.01681C2.82336 5.9442 3.17242 5.8133 3.49381 5.62919C3.3713 6.02366 3.30907 6.43436 3.30923 6.84742V9.12698C3.25267 10.0711 2.99295 10.9919 2.54783 11.8265C2.22925 12.3313 1.85123 12.7961 1.42189 13.2108H13.2396C12.8103 12.7961 12.4323 12.3313 12.1137 11.8265C11.6686 10.9919 11.4089 10.0711 11.3523 9.12698V6.8428C11.3547 6.30876 11.2518 5.77948 11.0494 5.28528C10.847 4.79107 10.5491 4.34165 10.1727 3.96273C9.7964 3.58382 9.34902 3.28286 8.8562 3.07709C8.36339 2.87132 7.83482 2.76479 7.30077 2.76358C6.51918 2.7642 5.75514 2.99534 5.10427 3.42807C5.17602 3.16457 5.2163 2.8935 5.22425 2.62053V2.32981C5.70607 2.09279 6.22369 1.93688 6.75626 1.86836V1.28694C6.75626 1.12355 6.82117 0.966861 6.9367 0.851331C7.05223 0.735802 7.20892 0.670898 7.3723 0.670898C7.53568 0.670898 7.69237 0.735802 7.8079 0.851331C7.92343 0.966861 7.98834 1.12355 7.98834 1.28694V1.89144C9.18086 2.05966 10.2723 2.65363 11.061 3.5637C11.8498 4.47377 12.2827 5.63848 12.2798 6.8428V9.12237C12.3376 9.89633 12.5494 10.6509 12.9028 11.3419C13.2208 11.8414 13.6041 12.2961 14.0426 12.694C14.0918 12.7372 14.1312 12.7905 14.1583 12.8501C14.1853 12.9098 14.1994 12.9746 14.1995 13.0401V13.6677C14.1995 13.79 14.1508 13.9074 14.0643 13.994C13.9778 14.0805 13.8604 14.1291 13.738 14.1291H0.909681C0.787297 14.1291 0.669927 14.0805 0.583387 13.994C0.496849 13.9074 0.448233 13.79 0.448233 13.6677V13.0401C0.448316 12.9746 0.462347 12.9098 0.4894 12.8501C0.516452 12.7905 0.555903 12.7372 0.605125 12.694Z" fill="white"/>
</svg>
