<svg width="17" height="17" viewBox="0 0 17 17" fill="none" xmlns="http://www.w3.org/2000/svg">
<g clip-path="url(#clip0_1293_538)">
<mask id="path-1-outside-1_1293_538" maskUnits="userSpaceOnUse" x="-1" y="-1" width="19" height="19" fill="black">
<rect fill="white" x="-1" y="-1" width="19" height="19"/>
<path d="M5.61229 16.9562C5.3925 16.8806 5.19087 16.7407 5.03167 16.5537C4.95115 16.4591 4.61001 15.8775 4.27364 15.2616C3.93724 14.6457 3.55232 13.942 3.41846 13.6977L3.1752 13.2535L2.96781 13.3261C2.65342 13.4361 1.98815 13.4342 1.6468 13.3229C0.872622 13.0689 0.278444 12.4205 0.0633781 11.5951C-0.0273985 11.2469 -0.0193004 10.6359 0.0789372 10.296C0.26391 9.66537 0.575871 9.2342 1.10508 8.8777C1.2285 8.79456 1.9238 8.3652 2.64999 7.92368L3.97023 7.12089L6.17773 4.14935C7.39181 2.51494 8.42807 1.13177 8.48067 1.07574C8.7415 0.798094 9.21519 0.718782 9.56601 0.894047C9.66674 0.944319 9.80719 1.05303 9.87758 1.13551C9.94814 1.21798 10.2826 1.79633 10.6208 2.42103L11.2358 3.55693L11.6181 3.53387C11.8283 3.52073 12.1425 3.50094 12.3162 3.49075C12.605 3.47104 12.6395 3.47431 12.7207 3.5443C12.8059 3.6156 13.4829 4.81825 13.5275 4.97702C13.5592 5.09005 13.4918 5.22964 13.1167 5.82634L12.7778 6.36582L12.9423 6.66985C13.0328 6.8371 13.2955 7.31985 13.526 7.74299C13.7564 8.16613 13.9617 8.5772 13.982 8.65649C14.0662 8.98628 13.9458 9.4177 13.6987 9.67127C13.5087 9.86611 13.4285 9.90059 12.9376 9.99916C12.5704 10.0728 7.45402 11.1304 6.90578 11.246C6.80972 11.2657 6.73141 11.2955 6.73141 11.311C6.73141 11.3274 6.82877 11.5183 6.94753 11.7371C7.1754 12.1566 7.21164 12.3136 7.11526 12.4591C7.08728 12.4992 6.86355 12.6548 6.6149 12.8054C6.31926 12.9845 6.1685 13.0953 6.17944 13.1255C6.18877 13.1518 6.41064 13.5638 6.67259 14.043C6.93466 14.5223 7.18199 14.9955 7.22209 15.0947C7.49255 15.7636 7.18348 16.5779 6.54033 16.8908C6.30904 17.0032 5.84309 17.0358 5.61058 16.956L5.61229 16.9562ZM6.39044 16.1765C6.63106 15.9741 6.72565 15.6417 6.61889 15.3721C6.58221 15.2794 4.96029 12.2829 4.91991 12.2333C4.90747 12.2168 3.77583 12.907 3.77499 12.9302C3.77356 12.9785 5.45237 16.0162 5.52615 16.0983C5.67008 16.2583 5.79499 16.3059 6.04112 16.2938C6.23013 16.2839 6.28274 16.2675 6.39025 16.1765H6.39044ZM2.89893 12.6063C3.05935 12.5376 5.43016 11.1197 5.67567 10.9456C5.72572 10.9101 5.64163 10.7401 4.91725 9.41416C4.46925 8.59393 4.09253 7.91219 4.07991 7.89902C4.05815 7.87602 1.81628 9.22526 1.38761 9.51664C0.958443 9.80842 0.648703 10.4148 0.650071 10.9606C0.651345 11.4213 0.813081 11.839 1.12216 12.1791C1.33355 12.4118 1.68037 12.6228 1.95077 12.6831C2.2116 12.7413 2.6705 12.7029 2.89893 12.6063ZM2.00258 11.9653C1.69294 11.8484 1.41418 11.5479 1.41418 11.3304C1.41418 11.2023 1.51891 11.0419 1.63238 10.9963C1.75269 10.948 1.91571 11.0193 2.05343 11.177C2.17094 11.313 2.18819 11.3212 2.32249 11.3051C2.41544 11.2953 2.57092 11.2226 2.76288 11.1024C3.14536 10.8632 3.29653 10.8379 3.44028 10.9901C3.56307 11.1199 3.57619 11.2927 3.47329 11.4307C3.40117 11.5273 2.82508 11.8881 2.61716 11.9665C2.4583 12.0263 2.16295 12.026 2.00239 11.9653H2.00258ZM4.16245 10.7849C4.04991 10.6913 4.01743 10.513 4.08769 10.37C4.15204 10.2389 4.23242 10.1891 4.38008 10.1891C4.51843 10.1891 4.61725 10.26 4.67134 10.3977C4.79632 10.7164 4.42234 11.0008 4.16264 10.7847L4.16245 10.7849ZM6.07887 12.3273C6.21007 12.2472 6.33488 12.1675 6.35571 12.1501C6.38369 12.127 6.35257 12.0394 6.24376 11.8386C6.16138 11.6845 6.08334 11.5522 6.07091 11.544C6.05225 11.5341 5.5709 11.8044 5.50698 11.8613C5.49144 11.8744 5.80669 12.4729 5.82689 12.4729C5.83311 12.4729 5.94718 12.4075 6.07868 12.3273H6.07887ZM9.25104 10.0487C10.8337 9.72045 12.1335 9.44678 12.1393 9.44063C12.1518 9.42749 8.3749 2.50019 8.32963 2.4485C8.31098 2.4255 4.79813 7.10326 4.64421 7.35814C4.60349 7.4255 4.67534 7.56764 5.47529 9.03793C5.95681 9.92148 6.35569 10.6447 6.36197 10.6451C6.36819 10.6455 7.66832 10.3772 9.25104 10.0487ZM13.1875 9.21221C13.2873 9.15175 13.3482 9.03412 13.3482 8.90236C13.3482 8.84913 12.5627 7.37562 11.38 5.21006C9.2933 1.38931 9.32983 1.44905 9.111 1.49248C9.01246 1.5122 8.84888 1.6508 8.79071 1.76383C8.76584 1.81049 9.19592 2.62211 10.7417 5.45292C11.8316 7.44901 12.7525 9.13252 12.7879 9.19396C12.846 9.29516 12.8636 9.30376 12.9755 9.28601C13.0433 9.27615 13.1389 9.24198 13.1877 9.21241L13.1875 9.21221ZM12.6274 5.34322L12.8207 5.03077L12.5915 4.61463L12.3625 4.19849L12.016 4.21153C11.8254 4.2181 11.659 4.23466 11.6464 4.24682C11.6339 4.25996 11.6744 4.35655 11.7335 4.46301C11.7941 4.56914 11.9664 4.88156 12.1164 5.15691C12.2665 5.43226 12.3992 5.65718 12.4116 5.65688C12.4241 5.65662 12.521 5.51607 12.6274 5.34422V5.34322ZM15.4923 5.67333C15.1267 5.56785 14.7901 5.45204 14.7445 5.41622C14.5036 5.22597 14.6445 4.81324 14.9504 4.81357C15.0987 4.8137 16.3793 5.19498 16.4466 5.25899C16.5445 5.35231 16.573 5.4587 16.5373 5.59571C16.4567 5.90359 16.3254 5.91352 15.4923 5.67333ZM14.61 3.19575C14.5077 3.08764 14.4776 2.97438 14.5146 2.83355C14.5528 2.68668 14.5021 2.72216 15.6635 2.03677C16.6235 1.4704 16.7094 1.43842 16.8828 1.58253C16.9319 1.62327 16.9782 1.70631 16.9904 1.77466C17.033 2.01551 16.9749 2.0649 15.91 2.69157C14.857 3.31117 14.7563 3.35011 14.61 3.19554V3.19575ZM12.8313 1.94472C12.7769 1.88295 12.7499 1.81068 12.7499 1.72853C12.7499 1.60761 13.0542 0.349701 13.1207 0.195335C13.1627 0.097418 13.3151 0 13.4258 0C13.5321 0 13.7003 0.14784 13.7283 0.266128C13.7469 0.350245 13.4755 1.53688 13.3748 1.80494C13.3132 1.9689 13.2194 2.03798 13.0579 2.03798C12.9438 2.03798 12.8956 2.0182 12.8315 1.94492L12.8313 1.94472Z"/>
</mask>
<path d="M5.61229 16.9562C5.3925 16.8806 5.19087 16.7407 5.03167 16.5537C4.95115 16.4591 4.61001 15.8775 4.27364 15.2616C3.93724 14.6457 3.55232 13.942 3.41846 13.6977L3.1752 13.2535L2.96781 13.3261C2.65342 13.4361 1.98815 13.4342 1.6468 13.3229C0.872622 13.0689 0.278444 12.4205 0.0633781 11.5951C-0.0273985 11.2469 -0.0193004 10.6359 0.0789372 10.296C0.26391 9.66537 0.575871 9.2342 1.10508 8.8777C1.2285 8.79456 1.9238 8.3652 2.64999 7.92368L3.97023 7.12089L6.17773 4.14935C7.39181 2.51494 8.42807 1.13177 8.48067 1.07574C8.7415 0.798094 9.21519 0.718782 9.56601 0.894047C9.66674 0.944319 9.80719 1.05303 9.87758 1.13551C9.94814 1.21798 10.2826 1.79633 10.6208 2.42103L11.2358 3.55693L11.6181 3.53387C11.8283 3.52073 12.1425 3.50094 12.3162 3.49075C12.605 3.47104 12.6395 3.47431 12.7207 3.5443C12.8059 3.6156 13.4829 4.81825 13.5275 4.97702C13.5592 5.09005 13.4918 5.22964 13.1167 5.82634L12.7778 6.36582L12.9423 6.66985C13.0328 6.8371 13.2955 7.31985 13.526 7.74299C13.7564 8.16613 13.9617 8.5772 13.982 8.65649C14.0662 8.98628 13.9458 9.4177 13.6987 9.67127C13.5087 9.86611 13.4285 9.90059 12.9376 9.99916C12.5704 10.0728 7.45402 11.1304 6.90578 11.246C6.80972 11.2657 6.73141 11.2955 6.73141 11.311C6.73141 11.3274 6.82877 11.5183 6.94753 11.7371C7.1754 12.1566 7.21164 12.3136 7.11526 12.4591C7.08728 12.4992 6.86355 12.6548 6.6149 12.8054C6.31926 12.9845 6.1685 13.0953 6.17944 13.1255C6.18877 13.1518 6.41064 13.5638 6.67259 14.043C6.93466 14.5223 7.18199 14.9955 7.22209 15.0947C7.49255 15.7636 7.18348 16.5779 6.54033 16.8908C6.30904 17.0032 5.84309 17.0358 5.61058 16.956L5.61229 16.9562ZM6.39044 16.1765C6.63106 15.9741 6.72565 15.6417 6.61889 15.3721C6.58221 15.2794 4.96029 12.2829 4.91991 12.2333C4.90747 12.2168 3.77583 12.907 3.77499 12.9302C3.77356 12.9785 5.45237 16.0162 5.52615 16.0983C5.67008 16.2583 5.79499 16.3059 6.04112 16.2938C6.23013 16.2839 6.28274 16.2675 6.39025 16.1765H6.39044ZM2.89893 12.6063C3.05935 12.5376 5.43016 11.1197 5.67567 10.9456C5.72572 10.9101 5.64163 10.7401 4.91725 9.41416C4.46925 8.59393 4.09253 7.91219 4.07991 7.89902C4.05815 7.87602 1.81628 9.22526 1.38761 9.51664C0.958443 9.80842 0.648703 10.4148 0.650071 10.9606C0.651345 11.4213 0.813081 11.839 1.12216 12.1791C1.33355 12.4118 1.68037 12.6228 1.95077 12.6831C2.2116 12.7413 2.6705 12.7029 2.89893 12.6063ZM2.00258 11.9653C1.69294 11.8484 1.41418 11.5479 1.41418 11.3304C1.41418 11.2023 1.51891 11.0419 1.63238 10.9963C1.75269 10.948 1.91571 11.0193 2.05343 11.177C2.17094 11.313 2.18819 11.3212 2.32249 11.3051C2.41544 11.2953 2.57092 11.2226 2.76288 11.1024C3.14536 10.8632 3.29653 10.8379 3.44028 10.9901C3.56307 11.1199 3.57619 11.2927 3.47329 11.4307C3.40117 11.5273 2.82508 11.8881 2.61716 11.9665C2.4583 12.0263 2.16295 12.026 2.00239 11.9653H2.00258ZM4.16245 10.7849C4.04991 10.6913 4.01743 10.513 4.08769 10.37C4.15204 10.2389 4.23242 10.1891 4.38008 10.1891C4.51843 10.1891 4.61725 10.26 4.67134 10.3977C4.79632 10.7164 4.42234 11.0008 4.16264 10.7847L4.16245 10.7849ZM6.07887 12.3273C6.21007 12.2472 6.33488 12.1675 6.35571 12.1501C6.38369 12.127 6.35257 12.0394 6.24376 11.8386C6.16138 11.6845 6.08334 11.5522 6.07091 11.544C6.05225 11.5341 5.5709 11.8044 5.50698 11.8613C5.49144 11.8744 5.80669 12.4729 5.82689 12.4729C5.83311 12.4729 5.94718 12.4075 6.07868 12.3273H6.07887ZM9.25104 10.0487C10.8337 9.72045 12.1335 9.44678 12.1393 9.44063C12.1518 9.42749 8.3749 2.50019 8.32963 2.4485C8.31098 2.4255 4.79813 7.10326 4.64421 7.35814C4.60349 7.4255 4.67534 7.56764 5.47529 9.03793C5.95681 9.92148 6.35569 10.6447 6.36197 10.6451C6.36819 10.6455 7.66832 10.3772 9.25104 10.0487ZM13.1875 9.21221C13.2873 9.15175 13.3482 9.03412 13.3482 8.90236C13.3482 8.84913 12.5627 7.37562 11.38 5.21006C9.2933 1.38931 9.32983 1.44905 9.111 1.49248C9.01246 1.5122 8.84888 1.6508 8.79071 1.76383C8.76584 1.81049 9.19592 2.62211 10.7417 5.45292C11.8316 7.44901 12.7525 9.13252 12.7879 9.19396C12.846 9.29516 12.8636 9.30376 12.9755 9.28601C13.0433 9.27615 13.1389 9.24198 13.1877 9.21241L13.1875 9.21221ZM12.6274 5.34322L12.8207 5.03077L12.5915 4.61463L12.3625 4.19849L12.016 4.21153C11.8254 4.2181 11.659 4.23466 11.6464 4.24682C11.6339 4.25996 11.6744 4.35655 11.7335 4.46301C11.7941 4.56914 11.9664 4.88156 12.1164 5.15691C12.2665 5.43226 12.3992 5.65718 12.4116 5.65688C12.4241 5.65662 12.521 5.51607 12.6274 5.34422V5.34322ZM15.4923 5.67333C15.1267 5.56785 14.7901 5.45204 14.7445 5.41622C14.5036 5.22597 14.6445 4.81324 14.9504 4.81357C15.0987 4.8137 16.3793 5.19498 16.4466 5.25899C16.5445 5.35231 16.573 5.4587 16.5373 5.59571C16.4567 5.90359 16.3254 5.91352 15.4923 5.67333ZM14.61 3.19575C14.5077 3.08764 14.4776 2.97438 14.5146 2.83355C14.5528 2.68668 14.5021 2.72216 15.6635 2.03677C16.6235 1.4704 16.7094 1.43842 16.8828 1.58253C16.9319 1.62327 16.9782 1.70631 16.9904 1.77466C17.033 2.01551 16.9749 2.0649 15.91 2.69157C14.857 3.31117 14.7563 3.35011 14.61 3.19554V3.19575ZM12.8313 1.94472C12.7769 1.88295 12.7499 1.81068 12.7499 1.72853C12.7499 1.60761 13.0542 0.349701 13.1207 0.195335C13.1627 0.097418 13.3151 0 13.4258 0C13.5321 0 13.7003 0.14784 13.7283 0.266128C13.7469 0.350245 13.4755 1.53688 13.3748 1.80494C13.3132 1.9689 13.2194 2.03798 13.0579 2.03798C12.9438 2.03798 12.8956 2.0182 12.8315 1.94492L12.8313 1.94472Z" fill="white"/>
<path d="M5.61229 16.9562C5.3925 16.8806 5.19087 16.7407 5.03167 16.5537C4.95115 16.4591 4.61001 15.8775 4.27364 15.2616C3.93724 14.6457 3.55232 13.942 3.41846 13.6977L3.1752 13.2535L2.96781 13.3261C2.65342 13.4361 1.98815 13.4342 1.6468 13.3229C0.872622 13.0689 0.278444 12.4205 0.0633781 11.5951C-0.0273985 11.2469 -0.0193004 10.6359 0.0789372 10.296C0.26391 9.66537 0.575871 9.2342 1.10508 8.8777C1.2285 8.79456 1.9238 8.3652 2.64999 7.92368L3.97023 7.12089L6.17773 4.14935C7.39181 2.51494 8.42807 1.13177 8.48067 1.07574C8.7415 0.798094 9.21519 0.718782 9.56601 0.894047C9.66674 0.944319 9.80719 1.05303 9.87758 1.13551C9.94814 1.21798 10.2826 1.79633 10.6208 2.42103L11.2358 3.55693L11.6181 3.53387C11.8283 3.52073 12.1425 3.50094 12.3162 3.49075C12.605 3.47104 12.6395 3.47431 12.7207 3.5443C12.8059 3.6156 13.4829 4.81825 13.5275 4.97702C13.5592 5.09005 13.4918 5.22964 13.1167 5.82634L12.7778 6.36582L12.9423 6.66985C13.0328 6.8371 13.2955 7.31985 13.526 7.74299C13.7564 8.16613 13.9617 8.5772 13.982 8.65649C14.0662 8.98628 13.9458 9.4177 13.6987 9.67127C13.5087 9.86611 13.4285 9.90059 12.9376 9.99916C12.5704 10.0728 7.45402 11.1304 6.90578 11.246C6.80972 11.2657 6.73141 11.2955 6.73141 11.311C6.73141 11.3274 6.82877 11.5183 6.94753 11.7371C7.1754 12.1566 7.21164 12.3136 7.11526 12.4591C7.08728 12.4992 6.86355 12.6548 6.6149 12.8054C6.31926 12.9845 6.1685 13.0953 6.17944 13.1255C6.18877 13.1518 6.41064 13.5638 6.67259 14.043C6.93466 14.5223 7.18199 14.9955 7.22209 15.0947C7.49255 15.7636 7.18348 16.5779 6.54033 16.8908C6.30904 17.0032 5.84309 17.0358 5.61058 16.956L5.61229 16.9562ZM6.39044 16.1765C6.63106 15.9741 6.72565 15.6417 6.61889 15.3721C6.58221 15.2794 4.96029 12.2829 4.91991 12.2333C4.90747 12.2168 3.77583 12.907 3.77499 12.9302C3.77356 12.9785 5.45237 16.0162 5.52615 16.0983C5.67008 16.2583 5.79499 16.3059 6.04112 16.2938C6.23013 16.2839 6.28274 16.2675 6.39025 16.1765H6.39044ZM2.89893 12.6063C3.05935 12.5376 5.43016 11.1197 5.67567 10.9456C5.72572 10.9101 5.64163 10.7401 4.91725 9.41416C4.46925 8.59393 4.09253 7.91219 4.07991 7.89902C4.05815 7.87602 1.81628 9.22526 1.38761 9.51664C0.958443 9.80842 0.648703 10.4148 0.650071 10.9606C0.651345 11.4213 0.813081 11.839 1.12216 12.1791C1.33355 12.4118 1.68037 12.6228 1.95077 12.6831C2.2116 12.7413 2.6705 12.7029 2.89893 12.6063ZM2.00258 11.9653C1.69294 11.8484 1.41418 11.5479 1.41418 11.3304C1.41418 11.2023 1.51891 11.0419 1.63238 10.9963C1.75269 10.948 1.91571 11.0193 2.05343 11.177C2.17094 11.313 2.18819 11.3212 2.32249 11.3051C2.41544 11.2953 2.57092 11.2226 2.76288 11.1024C3.14536 10.8632 3.29653 10.8379 3.44028 10.9901C3.56307 11.1199 3.57619 11.2927 3.47329 11.4307C3.40117 11.5273 2.82508 11.8881 2.61716 11.9665C2.4583 12.0263 2.16295 12.026 2.00239 11.9653H2.00258ZM4.16245 10.7849C4.04991 10.6913 4.01743 10.513 4.08769 10.37C4.15204 10.2389 4.23242 10.1891 4.38008 10.1891C4.51843 10.1891 4.61725 10.26 4.67134 10.3977C4.79632 10.7164 4.42234 11.0008 4.16264 10.7847L4.16245 10.7849ZM6.07887 12.3273C6.21007 12.2472 6.33488 12.1675 6.35571 12.1501C6.38369 12.127 6.35257 12.0394 6.24376 11.8386C6.16138 11.6845 6.08334 11.5522 6.07091 11.544C6.05225 11.5341 5.5709 11.8044 5.50698 11.8613C5.49144 11.8744 5.80669 12.4729 5.82689 12.4729C5.83311 12.4729 5.94718 12.4075 6.07868 12.3273H6.07887ZM9.25104 10.0487C10.8337 9.72045 12.1335 9.44678 12.1393 9.44063C12.1518 9.42749 8.3749 2.50019 8.32963 2.4485C8.31098 2.4255 4.79813 7.10326 4.64421 7.35814C4.60349 7.4255 4.67534 7.56764 5.47529 9.03793C5.95681 9.92148 6.35569 10.6447 6.36197 10.6451C6.36819 10.6455 7.66832 10.3772 9.25104 10.0487ZM13.1875 9.21221C13.2873 9.15175 13.3482 9.03412 13.3482 8.90236C13.3482 8.84913 12.5627 7.37562 11.38 5.21006C9.2933 1.38931 9.32983 1.44905 9.111 1.49248C9.01246 1.5122 8.84888 1.6508 8.79071 1.76383C8.76584 1.81049 9.19592 2.62211 10.7417 5.45292C11.8316 7.44901 12.7525 9.13252 12.7879 9.19396C12.846 9.29516 12.8636 9.30376 12.9755 9.28601C13.0433 9.27615 13.1389 9.24198 13.1877 9.21241L13.1875 9.21221ZM12.6274 5.34322L12.8207 5.03077L12.5915 4.61463L12.3625 4.19849L12.016 4.21153C11.8254 4.2181 11.659 4.23466 11.6464 4.24682C11.6339 4.25996 11.6744 4.35655 11.7335 4.46301C11.7941 4.56914 11.9664 4.88156 12.1164 5.15691C12.2665 5.43226 12.3992 5.65718 12.4116 5.65688C12.4241 5.65662 12.521 5.51607 12.6274 5.34422V5.34322ZM15.4923 5.67333C15.1267 5.56785 14.7901 5.45204 14.7445 5.41622C14.5036 5.22597 14.6445 4.81324 14.9504 4.81357C15.0987 4.8137 16.3793 5.19498 16.4466 5.25899C16.5445 5.35231 16.573 5.4587 16.5373 5.59571C16.4567 5.90359 16.3254 5.91352 15.4923 5.67333ZM14.61 3.19575C14.5077 3.08764 14.4776 2.97438 14.5146 2.83355C14.5528 2.68668 14.5021 2.72216 15.6635 2.03677C16.6235 1.4704 16.7094 1.43842 16.8828 1.58253C16.9319 1.62327 16.9782 1.70631 16.9904 1.77466C17.033 2.01551 16.9749 2.0649 15.91 2.69157C14.857 3.31117 14.7563 3.35011 14.61 3.19554V3.19575ZM12.8313 1.94472C12.7769 1.88295 12.7499 1.81068 12.7499 1.72853C12.7499 1.60761 13.0542 0.349701 13.1207 0.195335C13.1627 0.097418 13.3151 0 13.4258 0C13.5321 0 13.7003 0.14784 13.7283 0.266128C13.7469 0.350245 13.4755 1.53688 13.3748 1.80494C13.3132 1.9689 13.2194 2.03798 13.0579 2.03798C12.9438 2.03798 12.8956 2.0182 12.8315 1.94492L12.8313 1.94472Z" stroke="white" stroke-width="0.4" mask="url(#path-1-outside-1_1293_538)"/>
</g>
<defs>
<clipPath id="clip0_1293_538">
<rect width="17" height="17" fill="white"/>
</clipPath>
</defs>
</svg>
