<svg width="13" height="13" viewBox="0 0 13 13" fill="none" xmlns="http://www.w3.org/2000/svg">
<g clip-path="url(#clip0_1293_544)">
<mask id="path-1-outside-1_1293_544" maskUnits="userSpaceOnUse" x="-1" y="-1" width="15" height="15" fill="black">
<rect fill="white" x="-1" y="-1" width="15" height="15"/>
<path d="M5.39247 12.9797C2.96059 12.9041 1.62769 12.5433 0.80751 11.7387C-0.0302911 10.9168 -0.219151 9.75409 0.25486 8.33531C0.558027 7.42792 1.25309 6.22361 2.01357 5.28798C2.63455 4.52399 3.58167 3.62459 4.24882 3.16546L4.50554 2.98871L4.31657 2.84673C3.97271 2.58835 3.48973 2.08664 3.38381 1.87776C3.32642 1.76448 3.26978 1.58691 3.25797 1.48293L3.23678 1.29382L3.65307 1.08838C3.88215 0.975566 4.09839 0.883088 4.13365 0.883088C4.18443 0.883088 4.17867 0.846464 4.10641 0.706898C4.0561 0.610132 4.01531 0.511609 4.01531 0.488116C4.01531 0.444385 4.54408 0.263433 4.93409 0.173785C6.14031 -0.103719 7.42421 -0.0480026 8.63399 0.334641C8.82647 0.395585 8.98398 0.46448 8.98398 0.487974C8.98398 0.511467 8.94295 0.609848 8.89288 0.706614C8.82061 0.84618 8.81486 0.882662 8.86563 0.882662C8.90082 0.882662 9.1172 0.975049 9.34621 1.0881L9.76265 1.29353L9.74131 1.48264C9.72951 1.58662 9.67192 1.76637 9.61288 1.88216C9.49881 2.10686 9.07126 2.55386 8.71198 2.82373L8.49302 2.98814L8.75003 3.1649C10.1202 4.10781 11.621 5.87999 12.375 7.44513C13.0945 8.93879 13.1897 10.0968 12.6765 11.1156C12.4786 11.5085 11.9578 12.0198 11.5336 12.2379C10.3543 12.8441 8.44808 13.0742 5.39333 12.9793L5.39247 12.9797ZM8.55428 12.5372C10.5678 12.3762 11.7554 11.9052 12.2687 11.0642C12.5835 10.5485 12.6784 9.728 12.5098 8.98044C12.0939 7.13689 10.3342 4.73456 8.45713 3.44785L8.08898 3.19556L6.60559 3.2072L5.12234 3.2187L4.97632 3.45963C4.76519 3.80769 4.56383 4.30656 4.43736 4.7949C4.32259 5.23819 4.19687 6.2261 4.19607 6.69125C4.19555 6.98176 4.14691 7.06705 3.9823 7.06705C3.79502 7.06705 3.76857 6.91894 3.82619 6.18596C3.88381 5.44917 4.00649 4.78485 4.17358 4.29955C4.23522 4.12091 4.28549 3.95825 4.28572 3.93766C4.28622 3.87625 3.90897 4.35498 3.73033 4.64242C3.54305 4.94379 3.28374 5.52804 3.17754 5.88782C3.10102 6.14708 3.00318 6.21864 2.84226 6.13372C2.79172 6.1072 2.75015 6.05093 2.75015 6.00906C2.74975 5.85694 2.99354 5.18293 3.18446 4.80825C3.29191 4.59727 3.37373 4.41866 3.36594 4.41114C3.34468 4.39021 2.62685 5.17098 2.31281 5.5546C1.63865 6.37818 0.877301 7.68835 0.632231 8.44647C0.318058 9.41834 0.326643 10.2366 0.658032 10.93C0.958507 11.5586 1.79658 12.0865 2.86301 12.319C3.48555 12.4546 4.57726 12.5693 5.55059 12.6013C6.20645 12.6223 7.94708 12.5875 8.55443 12.537L8.55428 12.5372ZM3.52695 11.9524C3.45255 11.8791 3.4587 11.7166 3.53877 11.6515C3.62662 11.5797 3.74258 11.6074 3.81725 11.7186C3.93416 11.8921 3.67673 12.0995 3.52738 11.9522L3.52695 11.9524ZM4.33992 11.9524C4.26553 11.8791 4.27168 11.7166 4.35174 11.6515C4.4396 11.5797 4.55555 11.6074 4.63023 11.7186C4.74713 11.8921 4.48971 12.0995 4.34035 11.9522L4.33992 11.9524ZM5.15304 11.9524C5.07865 11.8791 5.0848 11.7166 5.16486 11.6515C5.25272 11.5797 5.36867 11.6074 5.44335 11.7186C5.56025 11.8921 5.30283 12.0995 5.15347 11.9522L5.15304 11.9524ZM5.96602 11.9524C5.89163 11.8791 5.89801 11.7166 5.97784 11.6515C6.06593 11.5797 6.18165 11.6074 6.25633 11.7186C6.37323 11.8921 6.11578 12.0995 5.96645 11.9522L5.96602 11.9524ZM6.77914 11.9524C6.70475 11.8791 6.71113 11.7166 6.79096 11.6515C6.87881 11.5797 6.99479 11.6074 7.06945 11.7186C7.18635 11.8921 6.92916 12.0995 6.77957 11.9522L6.77914 11.9524ZM7.59226 11.9524C7.51787 11.8791 7.52402 11.7166 7.60408 11.6515C7.69193 11.5797 7.80789 11.6074 7.88257 11.7186C7.99947 11.8921 7.74204 12.0995 7.59269 11.9522L7.59226 11.9524ZM8.40524 11.9524C8.33084 11.8791 8.337 11.7166 8.41706 11.6515C8.50491 11.5797 8.62084 11.6074 8.69554 11.7186C8.81245 11.8921 8.55502 12.0995 8.40567 11.9522L8.40524 11.9524ZM9.21836 11.9524C9.14396 11.8791 9.15035 11.7166 9.23018 11.6515C9.31803 11.5797 9.43399 11.6074 9.50866 11.7186C9.62557 11.8921 9.36814 12.0995 9.21879 11.9522L9.21836 11.9524ZM2.67837 11.7225C2.6642 11.686 2.65946 11.6098 2.66655 11.553C2.67835 11.4674 2.70859 11.4494 2.83966 11.4494C2.99034 11.4494 2.99765 11.4565 2.99765 11.6051C2.99765 11.7484 2.9858 11.7618 2.85047 11.7746C2.75176 11.7839 2.69483 11.7677 2.67736 11.7221L2.67837 11.7225ZM9.99587 11.7225C9.9817 11.686 9.97697 11.6098 9.98405 11.553C9.99586 11.4674 10.0261 11.4494 10.1572 11.4494C10.3078 11.4494 10.3152 11.4565 10.3152 11.6051C10.3152 11.7484 10.3033 11.7618 10.168 11.7746C10.0693 11.7839 10.0123 11.7677 9.99486 11.7221L9.99587 11.7225ZM1.9007 11.5517C1.82631 11.4785 1.8327 11.316 1.91252 11.251C2.00038 11.1792 2.11634 11.2069 2.19101 11.318C2.30791 11.4916 2.05049 11.699 1.90114 11.5517H1.9007ZM10.8445 11.5517C10.7701 11.4785 10.7764 11.316 10.8563 11.251C10.9441 11.1792 11.0601 11.2069 11.1348 11.318C11.2517 11.4916 10.9942 11.699 10.8449 11.5517H10.8445ZM1.31375 10.957C1.14323 10.8393 1.21222 10.6263 1.42099 10.6263C1.62646 10.6263 1.68242 10.8499 1.50575 10.9652C1.4271 11.0166 1.39877 11.0155 1.31375 10.9583V10.957ZM11.477 10.957C11.3064 10.8393 11.3754 10.6263 11.5842 10.6263C11.7897 10.6263 11.8456 10.8499 11.669 10.9652C11.5901 11.0166 11.5617 11.0155 11.477 10.9583V10.957ZM6.30966 10.2612L6.29553 10.0736L6.00321 10.0157C5.35113 9.88615 4.93793 9.5173 4.85596 8.99137L4.82641 8.80226H5.16011C5.48876 8.80226 5.49403 8.80391 5.51874 8.92578C5.5714 9.18526 5.93276 9.46597 6.21755 9.46869L6.32033 9.4694L6.30851 8.77316L6.29438 8.07706L6.02339 8.00252C5.28421 7.79992 4.96176 7.4377 4.96176 6.80937C4.96176 6.13636 5.35361 5.74524 6.19708 5.57618C6.31847 5.55176 6.32468 5.5394 6.3098 5.35215L6.29553 5.15395H6.50786H6.72018L6.73445 5.36422L6.74858 5.57448L6.94981 5.60799C7.45202 5.69196 7.88764 6.04113 8.01432 6.46125C8.11823 6.80586 8.12302 6.79986 7.74231 6.79986C7.41395 6.79986 7.40357 6.79529 7.40357 6.69224C7.40357 6.49918 7.1476 6.25806 6.85525 6.17546L6.72595 6.13883V6.81974V7.5005L6.90628 7.5289C7.41753 7.60938 7.85843 7.88506 8.04819 8.24288C8.16769 8.46828 8.18057 9.00576 8.07241 9.25019C7.90119 9.63732 7.43312 9.96027 6.94837 10.0259L6.72609 10.0562V10.2522V10.4485H6.52544H6.32465L6.30966 10.2612ZM7.17121 9.38322C7.34763 9.28948 7.46087 9.11332 7.4817 8.90008C7.51122 8.59764 7.41749 8.43949 7.12379 8.29527C6.71489 8.09453 6.72494 8.08075 6.72494 8.84201V9.50475L6.91146 9.46329C7.01396 9.44003 7.13088 9.40471 7.17121 9.38308V9.38322ZM6.31845 6.78552C6.31845 6.45926 6.30658 6.18097 6.29265 6.16708C6.2466 6.12172 5.93693 6.22798 5.82836 6.32638C5.58799 6.54387 5.53925 6.84129 5.70353 7.08807C5.7758 7.1967 6.11117 7.37864 6.23932 7.37869C6.31064 7.37873 6.31816 7.32073 6.31816 6.78552H6.31845ZM4.83621 2.01363C4.4216 1.26132 4.40022 1.23203 4.28327 1.25506C4.11111 1.28902 3.731 1.47418 3.71131 1.53375C3.67328 1.6482 4.09869 2.16042 4.49127 2.47291C4.84538 2.75477 4.91866 2.79478 5.08155 2.79548L5.26735 2.79619L4.83621 2.01363ZM7.59413 2.21793C7.76606 1.91207 8.00942 1.47161 8.13525 1.23916C8.26113 1.00678 8.38345 0.791967 8.40725 0.761984C8.45945 0.696387 8.35608 0.647347 7.96718 0.55314C7.45352 0.428926 6.8978 0.381654 6.2507 0.407474C5.65715 0.430968 4.83545 0.561535 4.64349 0.662744C4.57359 0.699496 4.61766 0.799938 5.03946 1.56116C5.30061 2.03247 5.56424 2.50366 5.62526 2.60822L5.73625 2.79832L6.50901 2.78668L7.28177 2.77503L7.59413 2.21793ZM8.34167 2.60935C8.69934 2.34994 9.03329 2.01272 9.18448 1.7585C9.29241 1.57706 9.30263 1.5352 9.24949 1.48747C9.15833 1.40559 8.71692 1.23156 8.64135 1.24768C8.60592 1.25466 8.38637 1.60672 8.15356 2.02882L7.73035 2.79633H7.90722C8.04396 2.79633 8.14242 2.75366 8.34181 2.60921L8.34167 2.60935Z"/>
</mask>
<path d="M5.39247 12.9797C2.96059 12.9041 1.62769 12.5433 0.80751 11.7387C-0.0302911 10.9168 -0.219151 9.75409 0.25486 8.33531C0.558027 7.42792 1.25309 6.22361 2.01357 5.28798C2.63455 4.52399 3.58167 3.62459 4.24882 3.16546L4.50554 2.98871L4.31657 2.84673C3.97271 2.58835 3.48973 2.08664 3.38381 1.87776C3.32642 1.76448 3.26978 1.58691 3.25797 1.48293L3.23678 1.29382L3.65307 1.08838C3.88215 0.975566 4.09839 0.883088 4.13365 0.883088C4.18443 0.883088 4.17867 0.846464 4.10641 0.706898C4.0561 0.610132 4.01531 0.511609 4.01531 0.488116C4.01531 0.444385 4.54408 0.263433 4.93409 0.173785C6.14031 -0.103719 7.42421 -0.0480026 8.63399 0.334641C8.82647 0.395585 8.98398 0.46448 8.98398 0.487974C8.98398 0.511467 8.94295 0.609848 8.89288 0.706614C8.82061 0.84618 8.81486 0.882662 8.86563 0.882662C8.90082 0.882662 9.1172 0.975049 9.34621 1.0881L9.76265 1.29353L9.74131 1.48264C9.72951 1.58662 9.67192 1.76637 9.61288 1.88216C9.49881 2.10686 9.07126 2.55386 8.71198 2.82373L8.49302 2.98814L8.75003 3.1649C10.1202 4.10781 11.621 5.87999 12.375 7.44513C13.0945 8.93879 13.1897 10.0968 12.6765 11.1156C12.4786 11.5085 11.9578 12.0198 11.5336 12.2379C10.3543 12.8441 8.44808 13.0742 5.39333 12.9793L5.39247 12.9797ZM8.55428 12.5372C10.5678 12.3762 11.7554 11.9052 12.2687 11.0642C12.5835 10.5485 12.6784 9.728 12.5098 8.98044C12.0939 7.13689 10.3342 4.73456 8.45713 3.44785L8.08898 3.19556L6.60559 3.2072L5.12234 3.2187L4.97632 3.45963C4.76519 3.80769 4.56383 4.30656 4.43736 4.7949C4.32259 5.23819 4.19687 6.2261 4.19607 6.69125C4.19555 6.98176 4.14691 7.06705 3.9823 7.06705C3.79502 7.06705 3.76857 6.91894 3.82619 6.18596C3.88381 5.44917 4.00649 4.78485 4.17358 4.29955C4.23522 4.12091 4.28549 3.95825 4.28572 3.93766C4.28622 3.87625 3.90897 4.35498 3.73033 4.64242C3.54305 4.94379 3.28374 5.52804 3.17754 5.88782C3.10102 6.14708 3.00318 6.21864 2.84226 6.13372C2.79172 6.1072 2.75015 6.05093 2.75015 6.00906C2.74975 5.85694 2.99354 5.18293 3.18446 4.80825C3.29191 4.59727 3.37373 4.41866 3.36594 4.41114C3.34468 4.39021 2.62685 5.17098 2.31281 5.5546C1.63865 6.37818 0.877301 7.68835 0.632231 8.44647C0.318058 9.41834 0.326643 10.2366 0.658032 10.93C0.958507 11.5586 1.79658 12.0865 2.86301 12.319C3.48555 12.4546 4.57726 12.5693 5.55059 12.6013C6.20645 12.6223 7.94708 12.5875 8.55443 12.537L8.55428 12.5372ZM3.52695 11.9524C3.45255 11.8791 3.4587 11.7166 3.53877 11.6515C3.62662 11.5797 3.74258 11.6074 3.81725 11.7186C3.93416 11.8921 3.67673 12.0995 3.52738 11.9522L3.52695 11.9524ZM4.33992 11.9524C4.26553 11.8791 4.27168 11.7166 4.35174 11.6515C4.4396 11.5797 4.55555 11.6074 4.63023 11.7186C4.74713 11.8921 4.48971 12.0995 4.34035 11.9522L4.33992 11.9524ZM5.15304 11.9524C5.07865 11.8791 5.0848 11.7166 5.16486 11.6515C5.25272 11.5797 5.36867 11.6074 5.44335 11.7186C5.56025 11.8921 5.30283 12.0995 5.15347 11.9522L5.15304 11.9524ZM5.96602 11.9524C5.89163 11.8791 5.89801 11.7166 5.97784 11.6515C6.06593 11.5797 6.18165 11.6074 6.25633 11.7186C6.37323 11.8921 6.11578 12.0995 5.96645 11.9522L5.96602 11.9524ZM6.77914 11.9524C6.70475 11.8791 6.71113 11.7166 6.79096 11.6515C6.87881 11.5797 6.99479 11.6074 7.06945 11.7186C7.18635 11.8921 6.92916 12.0995 6.77957 11.9522L6.77914 11.9524ZM7.59226 11.9524C7.51787 11.8791 7.52402 11.7166 7.60408 11.6515C7.69193 11.5797 7.80789 11.6074 7.88257 11.7186C7.99947 11.8921 7.74204 12.0995 7.59269 11.9522L7.59226 11.9524ZM8.40524 11.9524C8.33084 11.8791 8.337 11.7166 8.41706 11.6515C8.50491 11.5797 8.62084 11.6074 8.69554 11.7186C8.81245 11.8921 8.55502 12.0995 8.40567 11.9522L8.40524 11.9524ZM9.21836 11.9524C9.14396 11.8791 9.15035 11.7166 9.23018 11.6515C9.31803 11.5797 9.43399 11.6074 9.50866 11.7186C9.62557 11.8921 9.36814 12.0995 9.21879 11.9522L9.21836 11.9524ZM2.67837 11.7225C2.6642 11.686 2.65946 11.6098 2.66655 11.553C2.67835 11.4674 2.70859 11.4494 2.83966 11.4494C2.99034 11.4494 2.99765 11.4565 2.99765 11.6051C2.99765 11.7484 2.9858 11.7618 2.85047 11.7746C2.75176 11.7839 2.69483 11.7677 2.67736 11.7221L2.67837 11.7225ZM9.99587 11.7225C9.9817 11.686 9.97697 11.6098 9.98405 11.553C9.99586 11.4674 10.0261 11.4494 10.1572 11.4494C10.3078 11.4494 10.3152 11.4565 10.3152 11.6051C10.3152 11.7484 10.3033 11.7618 10.168 11.7746C10.0693 11.7839 10.0123 11.7677 9.99486 11.7221L9.99587 11.7225ZM1.9007 11.5517C1.82631 11.4785 1.8327 11.316 1.91252 11.251C2.00038 11.1792 2.11634 11.2069 2.19101 11.318C2.30791 11.4916 2.05049 11.699 1.90114 11.5517H1.9007ZM10.8445 11.5517C10.7701 11.4785 10.7764 11.316 10.8563 11.251C10.9441 11.1792 11.0601 11.2069 11.1348 11.318C11.2517 11.4916 10.9942 11.699 10.8449 11.5517H10.8445ZM1.31375 10.957C1.14323 10.8393 1.21222 10.6263 1.42099 10.6263C1.62646 10.6263 1.68242 10.8499 1.50575 10.9652C1.4271 11.0166 1.39877 11.0155 1.31375 10.9583V10.957ZM11.477 10.957C11.3064 10.8393 11.3754 10.6263 11.5842 10.6263C11.7897 10.6263 11.8456 10.8499 11.669 10.9652C11.5901 11.0166 11.5617 11.0155 11.477 10.9583V10.957ZM6.30966 10.2612L6.29553 10.0736L6.00321 10.0157C5.35113 9.88615 4.93793 9.5173 4.85596 8.99137L4.82641 8.80226H5.16011C5.48876 8.80226 5.49403 8.80391 5.51874 8.92578C5.5714 9.18526 5.93276 9.46597 6.21755 9.46869L6.32033 9.4694L6.30851 8.77316L6.29438 8.07706L6.02339 8.00252C5.28421 7.79992 4.96176 7.4377 4.96176 6.80937C4.96176 6.13636 5.35361 5.74524 6.19708 5.57618C6.31847 5.55176 6.32468 5.5394 6.3098 5.35215L6.29553 5.15395H6.50786H6.72018L6.73445 5.36422L6.74858 5.57448L6.94981 5.60799C7.45202 5.69196 7.88764 6.04113 8.01432 6.46125C8.11823 6.80586 8.12302 6.79986 7.74231 6.79986C7.41395 6.79986 7.40357 6.79529 7.40357 6.69224C7.40357 6.49918 7.1476 6.25806 6.85525 6.17546L6.72595 6.13883V6.81974V7.5005L6.90628 7.5289C7.41753 7.60938 7.85843 7.88506 8.04819 8.24288C8.16769 8.46828 8.18057 9.00576 8.07241 9.25019C7.90119 9.63732 7.43312 9.96027 6.94837 10.0259L6.72609 10.0562V10.2522V10.4485H6.52544H6.32465L6.30966 10.2612ZM7.17121 9.38322C7.34763 9.28948 7.46087 9.11332 7.4817 8.90008C7.51122 8.59764 7.41749 8.43949 7.12379 8.29527C6.71489 8.09453 6.72494 8.08075 6.72494 8.84201V9.50475L6.91146 9.46329C7.01396 9.44003 7.13088 9.40471 7.17121 9.38308V9.38322ZM6.31845 6.78552C6.31845 6.45926 6.30658 6.18097 6.29265 6.16708C6.2466 6.12172 5.93693 6.22798 5.82836 6.32638C5.58799 6.54387 5.53925 6.84129 5.70353 7.08807C5.7758 7.1967 6.11117 7.37864 6.23932 7.37869C6.31064 7.37873 6.31816 7.32073 6.31816 6.78552H6.31845ZM4.83621 2.01363C4.4216 1.26132 4.40022 1.23203 4.28327 1.25506C4.11111 1.28902 3.731 1.47418 3.71131 1.53375C3.67328 1.6482 4.09869 2.16042 4.49127 2.47291C4.84538 2.75477 4.91866 2.79478 5.08155 2.79548L5.26735 2.79619L4.83621 2.01363ZM7.59413 2.21793C7.76606 1.91207 8.00942 1.47161 8.13525 1.23916C8.26113 1.00678 8.38345 0.791967 8.40725 0.761984C8.45945 0.696387 8.35608 0.647347 7.96718 0.55314C7.45352 0.428926 6.8978 0.381654 6.2507 0.407474C5.65715 0.430968 4.83545 0.561535 4.64349 0.662744C4.57359 0.699496 4.61766 0.799938 5.03946 1.56116C5.30061 2.03247 5.56424 2.50366 5.62526 2.60822L5.73625 2.79832L6.50901 2.78668L7.28177 2.77503L7.59413 2.21793ZM8.34167 2.60935C8.69934 2.34994 9.03329 2.01272 9.18448 1.7585C9.29241 1.57706 9.30263 1.5352 9.24949 1.48747C9.15833 1.40559 8.71692 1.23156 8.64135 1.24768C8.60592 1.25466 8.38637 1.60672 8.15356 2.02882L7.73035 2.79633H7.90722C8.04396 2.79633 8.14242 2.75366 8.34181 2.60921L8.34167 2.60935Z" fill="white"/>
<path d="M5.39247 12.9797C2.96059 12.9041 1.62769 12.5433 0.80751 11.7387C-0.0302911 10.9168 -0.219151 9.75409 0.25486 8.33531C0.558027 7.42792 1.25309 6.22361 2.01357 5.28798C2.63455 4.52399 3.58167 3.62459 4.24882 3.16546L4.50554 2.98871L4.31657 2.84673C3.97271 2.58835 3.48973 2.08664 3.38381 1.87776C3.32642 1.76448 3.26978 1.58691 3.25797 1.48293L3.23678 1.29382L3.65307 1.08838C3.88215 0.975566 4.09839 0.883088 4.13365 0.883088C4.18443 0.883088 4.17867 0.846464 4.10641 0.706898C4.0561 0.610132 4.01531 0.511609 4.01531 0.488116C4.01531 0.444385 4.54408 0.263433 4.93409 0.173785C6.14031 -0.103719 7.42421 -0.0480026 8.63399 0.334641C8.82647 0.395585 8.98398 0.46448 8.98398 0.487974C8.98398 0.511467 8.94295 0.609848 8.89288 0.706614C8.82061 0.84618 8.81486 0.882662 8.86563 0.882662C8.90082 0.882662 9.1172 0.975049 9.34621 1.0881L9.76265 1.29353L9.74131 1.48264C9.72951 1.58662 9.67192 1.76637 9.61288 1.88216C9.49881 2.10686 9.07126 2.55386 8.71198 2.82373L8.49302 2.98814L8.75003 3.1649C10.1202 4.10781 11.621 5.87999 12.375 7.44513C13.0945 8.93879 13.1897 10.0968 12.6765 11.1156C12.4786 11.5085 11.9578 12.0198 11.5336 12.2379C10.3543 12.8441 8.44808 13.0742 5.39333 12.9793L5.39247 12.9797ZM8.55428 12.5372C10.5678 12.3762 11.7554 11.9052 12.2687 11.0642C12.5835 10.5485 12.6784 9.728 12.5098 8.98044C12.0939 7.13689 10.3342 4.73456 8.45713 3.44785L8.08898 3.19556L6.60559 3.2072L5.12234 3.2187L4.97632 3.45963C4.76519 3.80769 4.56383 4.30656 4.43736 4.7949C4.32259 5.23819 4.19687 6.2261 4.19607 6.69125C4.19555 6.98176 4.14691 7.06705 3.9823 7.06705C3.79502 7.06705 3.76857 6.91894 3.82619 6.18596C3.88381 5.44917 4.00649 4.78485 4.17358 4.29955C4.23522 4.12091 4.28549 3.95825 4.28572 3.93766C4.28622 3.87625 3.90897 4.35498 3.73033 4.64242C3.54305 4.94379 3.28374 5.52804 3.17754 5.88782C3.10102 6.14708 3.00318 6.21864 2.84226 6.13372C2.79172 6.1072 2.75015 6.05093 2.75015 6.00906C2.74975 5.85694 2.99354 5.18293 3.18446 4.80825C3.29191 4.59727 3.37373 4.41866 3.36594 4.41114C3.34468 4.39021 2.62685 5.17098 2.31281 5.5546C1.63865 6.37818 0.877301 7.68835 0.632231 8.44647C0.318058 9.41834 0.326643 10.2366 0.658032 10.93C0.958507 11.5586 1.79658 12.0865 2.86301 12.319C3.48555 12.4546 4.57726 12.5693 5.55059 12.6013C6.20645 12.6223 7.94708 12.5875 8.55443 12.537L8.55428 12.5372ZM3.52695 11.9524C3.45255 11.8791 3.4587 11.7166 3.53877 11.6515C3.62662 11.5797 3.74258 11.6074 3.81725 11.7186C3.93416 11.8921 3.67673 12.0995 3.52738 11.9522L3.52695 11.9524ZM4.33992 11.9524C4.26553 11.8791 4.27168 11.7166 4.35174 11.6515C4.4396 11.5797 4.55555 11.6074 4.63023 11.7186C4.74713 11.8921 4.48971 12.0995 4.34035 11.9522L4.33992 11.9524ZM5.15304 11.9524C5.07865 11.8791 5.0848 11.7166 5.16486 11.6515C5.25272 11.5797 5.36867 11.6074 5.44335 11.7186C5.56025 11.8921 5.30283 12.0995 5.15347 11.9522L5.15304 11.9524ZM5.96602 11.9524C5.89163 11.8791 5.89801 11.7166 5.97784 11.6515C6.06593 11.5797 6.18165 11.6074 6.25633 11.7186C6.37323 11.8921 6.11578 12.0995 5.96645 11.9522L5.96602 11.9524ZM6.77914 11.9524C6.70475 11.8791 6.71113 11.7166 6.79096 11.6515C6.87881 11.5797 6.99479 11.6074 7.06945 11.7186C7.18635 11.8921 6.92916 12.0995 6.77957 11.9522L6.77914 11.9524ZM7.59226 11.9524C7.51787 11.8791 7.52402 11.7166 7.60408 11.6515C7.69193 11.5797 7.80789 11.6074 7.88257 11.7186C7.99947 11.8921 7.74204 12.0995 7.59269 11.9522L7.59226 11.9524ZM8.40524 11.9524C8.33084 11.8791 8.337 11.7166 8.41706 11.6515C8.50491 11.5797 8.62084 11.6074 8.69554 11.7186C8.81245 11.8921 8.55502 12.0995 8.40567 11.9522L8.40524 11.9524ZM9.21836 11.9524C9.14396 11.8791 9.15035 11.7166 9.23018 11.6515C9.31803 11.5797 9.43399 11.6074 9.50866 11.7186C9.62557 11.8921 9.36814 12.0995 9.21879 11.9522L9.21836 11.9524ZM2.67837 11.7225C2.6642 11.686 2.65946 11.6098 2.66655 11.553C2.67835 11.4674 2.70859 11.4494 2.83966 11.4494C2.99034 11.4494 2.99765 11.4565 2.99765 11.6051C2.99765 11.7484 2.9858 11.7618 2.85047 11.7746C2.75176 11.7839 2.69483 11.7677 2.67736 11.7221L2.67837 11.7225ZM9.99587 11.7225C9.9817 11.686 9.97697 11.6098 9.98405 11.553C9.99586 11.4674 10.0261 11.4494 10.1572 11.4494C10.3078 11.4494 10.3152 11.4565 10.3152 11.6051C10.3152 11.7484 10.3033 11.7618 10.168 11.7746C10.0693 11.7839 10.0123 11.7677 9.99486 11.7221L9.99587 11.7225ZM1.9007 11.5517C1.82631 11.4785 1.8327 11.316 1.91252 11.251C2.00038 11.1792 2.11634 11.2069 2.19101 11.318C2.30791 11.4916 2.05049 11.699 1.90114 11.5517H1.9007ZM10.8445 11.5517C10.7701 11.4785 10.7764 11.316 10.8563 11.251C10.9441 11.1792 11.0601 11.2069 11.1348 11.318C11.2517 11.4916 10.9942 11.699 10.8449 11.5517H10.8445ZM1.31375 10.957C1.14323 10.8393 1.21222 10.6263 1.42099 10.6263C1.62646 10.6263 1.68242 10.8499 1.50575 10.9652C1.4271 11.0166 1.39877 11.0155 1.31375 10.9583V10.957ZM11.477 10.957C11.3064 10.8393 11.3754 10.6263 11.5842 10.6263C11.7897 10.6263 11.8456 10.8499 11.669 10.9652C11.5901 11.0166 11.5617 11.0155 11.477 10.9583V10.957ZM6.30966 10.2612L6.29553 10.0736L6.00321 10.0157C5.35113 9.88615 4.93793 9.5173 4.85596 8.99137L4.82641 8.80226H5.16011C5.48876 8.80226 5.49403 8.80391 5.51874 8.92578C5.5714 9.18526 5.93276 9.46597 6.21755 9.46869L6.32033 9.4694L6.30851 8.77316L6.29438 8.07706L6.02339 8.00252C5.28421 7.79992 4.96176 7.4377 4.96176 6.80937C4.96176 6.13636 5.35361 5.74524 6.19708 5.57618C6.31847 5.55176 6.32468 5.5394 6.3098 5.35215L6.29553 5.15395H6.50786H6.72018L6.73445 5.36422L6.74858 5.57448L6.94981 5.60799C7.45202 5.69196 7.88764 6.04113 8.01432 6.46125C8.11823 6.80586 8.12302 6.79986 7.74231 6.79986C7.41395 6.79986 7.40357 6.79529 7.40357 6.69224C7.40357 6.49918 7.1476 6.25806 6.85525 6.17546L6.72595 6.13883V6.81974V7.5005L6.90628 7.5289C7.41753 7.60938 7.85843 7.88506 8.04819 8.24288C8.16769 8.46828 8.18057 9.00576 8.07241 9.25019C7.90119 9.63732 7.43312 9.96027 6.94837 10.0259L6.72609 10.0562V10.2522V10.4485H6.52544H6.32465L6.30966 10.2612ZM7.17121 9.38322C7.34763 9.28948 7.46087 9.11332 7.4817 8.90008C7.51122 8.59764 7.41749 8.43949 7.12379 8.29527C6.71489 8.09453 6.72494 8.08075 6.72494 8.84201V9.50475L6.91146 9.46329C7.01396 9.44003 7.13088 9.40471 7.17121 9.38308V9.38322ZM6.31845 6.78552C6.31845 6.45926 6.30658 6.18097 6.29265 6.16708C6.2466 6.12172 5.93693 6.22798 5.82836 6.32638C5.58799 6.54387 5.53925 6.84129 5.70353 7.08807C5.7758 7.1967 6.11117 7.37864 6.23932 7.37869C6.31064 7.37873 6.31816 7.32073 6.31816 6.78552H6.31845ZM4.83621 2.01363C4.4216 1.26132 4.40022 1.23203 4.28327 1.25506C4.11111 1.28902 3.731 1.47418 3.71131 1.53375C3.67328 1.6482 4.09869 2.16042 4.49127 2.47291C4.84538 2.75477 4.91866 2.79478 5.08155 2.79548L5.26735 2.79619L4.83621 2.01363ZM7.59413 2.21793C7.76606 1.91207 8.00942 1.47161 8.13525 1.23916C8.26113 1.00678 8.38345 0.791967 8.40725 0.761984C8.45945 0.696387 8.35608 0.647347 7.96718 0.55314C7.45352 0.428926 6.8978 0.381654 6.2507 0.407474C5.65715 0.430968 4.83545 0.561535 4.64349 0.662744C4.57359 0.699496 4.61766 0.799938 5.03946 1.56116C5.30061 2.03247 5.56424 2.50366 5.62526 2.60822L5.73625 2.79832L6.50901 2.78668L7.28177 2.77503L7.59413 2.21793ZM8.34167 2.60935C8.69934 2.34994 9.03329 2.01272 9.18448 1.7585C9.29241 1.57706 9.30263 1.5352 9.24949 1.48747C9.15833 1.40559 8.71692 1.23156 8.64135 1.24768C8.60592 1.25466 8.38637 1.60672 8.15356 2.02882L7.73035 2.79633H7.90722C8.04396 2.79633 8.14242 2.75366 8.34181 2.60921L8.34167 2.60935Z" stroke="white" stroke-width="0.4" mask="url(#path-1-outside-1_1293_544)"/>
</g>
<defs>
<clipPath id="clip0_1293_544">
<rect width="13" height="13" fill="white"/>
</clipPath>
</defs>
</svg>
