<svg width="14" height="14" viewBox="0 0 14 14" fill="none" xmlns="http://www.w3.org/2000/svg">
<path d="M12.8455 8.40359C12.6352 8.27722 12.4194 8.15019 12.2036 8.02566C12.2543 7.59323 12.2544 7.15581 12.2038 6.72425C12.4204 6.59925 12.6362 6.4723 12.8454 6.34648C13.1978 6.13476 13.3446 5.68804 13.187 5.3073C13.187 5.3073 13.187 5.3073 13.1869 5.30726L12.7271 4.19718C12.5694 3.81656 12.1499 3.60441 11.7508 3.70382C11.5137 3.76284 11.2714 3.82562 11.0299 3.89038C10.7604 3.54929 10.451 3.24003 10.1095 2.97031C10.1743 2.72882 10.2371 2.4864 10.2962 2.24917C10.3956 1.85031 10.1835 1.43062 9.80283 1.27292L8.69275 0.813118C8.31213 0.655384 7.86529 0.802142 7.65349 1.15456C7.52736 1.36449 7.40029 1.58031 7.2756 1.79648C6.8433 1.74574 6.40595 1.74562 5.97419 1.7962C5.84912 1.57937 5.72212 1.36363 5.59646 1.15456C5.38459 0.80222 4.93787 0.655423 4.5572 0.813118L3.44712 1.27292C3.06658 1.43058 2.85439 1.85031 2.9538 2.24917C3.01298 2.48687 3.07572 2.72921 3.14037 2.97007C2.79931 3.23956 2.49001 3.54898 2.22033 3.8905C1.97829 3.82554 1.73587 3.76281 1.49911 3.70382C1.10013 3.60433 0.680521 3.81663 0.522825 4.19722L0.0630986 5.30726C-0.0945186 5.68792 0.0523174 6.13468 0.404583 6.3464C0.614544 6.47257 0.830365 6.5996 1.0465 6.72433C0.995794 7.15659 0.995677 7.59394 1.04626 8.02573C0.829935 8.15054 0.614232 8.27753 0.404505 8.40355C0.0522392 8.6153 -0.0945968 9.06202 0.0630595 9.44273L0.522903 10.5528C0.68056 10.9334 1.10005 11.1456 1.49919 11.0462C1.73607 10.9872 1.97841 10.9244 2.22001 10.8596C2.48958 11.2007 2.79892 11.5099 3.14044 11.7796C3.0756 12.0214 3.01283 12.2638 2.9538 12.5008C2.85439 12.8996 3.0665 13.3194 3.44712 13.477L4.55724 13.9369C4.66037 13.9796 4.7683 14 4.87509 14C5.16267 14 5.44205 13.8523 5.59662 13.5955C5.72181 13.3871 5.8488 13.1714 5.97451 12.9536C6.40673 13.0042 6.8442 13.0043 7.27591 12.9538C7.40009 13.1691 7.52709 13.3848 7.65365 13.5955C7.86545 13.9478 8.31216 14.0946 8.69291 13.9369L9.80299 13.4771C10.1835 13.3195 10.3957 12.8998 10.2963 12.5009C10.2376 12.2652 10.1749 12.0229 10.1097 11.78C10.4507 11.5105 10.7601 11.2011 11.0298 10.8596C11.2712 10.9243 11.5136 10.9871 11.7509 11.0462C12.1498 11.1457 12.5695 10.9335 12.7272 10.5528L13.187 9.44273C13.3446 9.06206 13.1978 8.6153 12.8455 8.40359ZM11.9186 10.1653C11.6906 10.1082 11.4582 10.0478 11.2271 9.98558C10.8999 9.89757 10.5546 10.0126 10.3474 10.2788C10.1093 10.5847 9.83373 10.8603 9.52838 11.0981C9.26248 11.3052 9.14759 11.6503 9.23568 11.9773C9.2983 12.2099 9.35865 12.4422 9.41541 12.6686L8.39502 13.0912C8.27365 12.8887 8.15213 12.6818 8.03334 12.4754C7.86431 12.1819 7.539 12.0192 7.20459 12.0606C6.82056 12.1083 6.43076 12.1083 6.04623 12.0604C5.71087 12.0188 5.38584 12.1814 5.21685 12.475C5.09662 12.6838 4.97505 12.8908 4.85501 13.0912L3.83462 12.6685C3.89169 12.4409 3.95208 12.2085 4.01443 11.9771C4.10251 11.6499 3.9874 11.3046 3.72119 11.0974C3.41533 10.8593 3.13974 10.5837 2.90193 10.2784C2.6949 10.0125 2.34974 9.89761 2.02263 9.98566C1.79126 10.048 1.55896 10.1084 1.33142 10.1654L0.908763 9.14503C1.11033 9.02417 1.31732 8.90265 1.52458 8.78331C1.81814 8.61429 1.98095 8.28905 1.93939 7.9546C1.89162 7.57054 1.89173 7.18077 1.93951 6.7962C1.98122 6.46144 1.81853 6.13585 1.52482 5.96679C1.31763 5.84749 1.1106 5.72593 0.908724 5.60487L1.33138 4.58452C1.55872 4.64152 1.79107 4.70191 2.02287 4.76429C2.3499 4.85241 2.69521 4.73726 2.90255 4.47105C3.14064 4.16519 3.41622 3.88956 3.7215 3.65183C3.98744 3.44476 4.10232 3.09956 4.01423 2.77245C3.95212 2.54183 3.89173 2.30956 3.83451 2.08128L4.8549 1.65866C4.97537 1.85968 5.09693 2.06663 5.21658 2.27449C5.38564 2.56804 5.71123 2.73109 6.04533 2.68925C6.4292 2.64148 6.81892 2.64148 7.20381 2.68945C7.53877 2.73116 7.86416 2.56827 8.03314 2.27472C8.1524 2.06753 8.274 1.8605 8.39494 1.65866L9.41533 2.08128C9.35822 2.30913 9.29783 2.54152 9.23552 2.77281C9.14744 3.09991 9.26256 3.44523 9.52877 3.65245C9.83459 3.89054 10.1102 4.16609 10.348 4.4714C10.5551 4.7373 10.9001 4.85218 11.2274 4.76413C11.4586 4.70187 11.6908 4.64148 11.9185 4.58441L12.3412 5.60476C12.1399 5.72542 11.9329 5.84694 11.7253 5.96648C11.4318 6.1355 11.2689 6.46077 11.3105 6.79523C11.3583 7.17909 11.3582 7.5689 11.3103 7.9537C11.2687 8.28851 11.4315 8.61401 11.7251 8.78304C11.9319 8.90214 12.139 9.0237 12.3412 9.14487L11.9186 10.1653Z" fill="white"/>
<path d="M9.44383 6.20749C9.44383 6.20749 9.44383 6.20749 9.44379 6.20745C8.80004 4.65319 7.01192 3.91245 5.45743 4.55624C3.90321 5.20007 3.16243 6.98835 3.80625 8.54261C4.11809 9.29558 4.70457 9.88195 5.45747 10.1939C5.83391 10.3498 6.22946 10.4277 6.625 10.4277C7.02055 10.4277 7.4161 10.3498 7.79262 10.1939C9.34684 9.55003 10.0876 7.76179 9.44383 6.20749ZM7.45 9.36675C6.91805 9.5871 6.33215 9.58707 5.80004 9.36675C5.26809 9.1464 4.85375 8.73202 4.63336 8.20003C4.1784 7.10183 4.70184 5.83823 5.80008 5.38335C6.06903 5.27194 6.34778 5.21921 6.62223 5.21921C7.4686 5.21921 8.27321 5.72077 8.61676 6.55007C9.07165 7.64827 8.54821 8.91183 7.45 9.36675Z" fill="white"/>
</svg>
