<svg width="11" height="15" viewBox="0 0 11 15" fill="none" xmlns="http://www.w3.org/2000/svg">
<g clip-path="url(#clip0_1293_596)">
<path d="M0.0787093 14.8685C-0.0336644 14.6669 -0.0223647 1.92814 0.0912632 1.81995C0.151965 1.76172 0.598513 1.73844 1.65086 1.73844H3.12549V2.0172C3.12549 2.3891 3.30184 2.72592 3.58448 2.89343C3.79919 3.02072 3.93503 3.03061 5.50033 3.03061C7.06566 3.03061 7.20135 3.02096 7.41619 2.89343C7.6987 2.72595 7.87517 2.3891 7.87517 2.0172V1.73844H9.3498C10.4022 1.73844 10.8487 1.76244 10.9094 1.81995C11.0223 1.92824 11.0336 14.6669 10.922 14.8685C10.8505 14.9968 10.7155 15.0001 5.50125 15.0001C0.287063 15.0001 0.152109 14.9977 0.0805464 14.8685H0.0787093ZM10.2137 8.32528V2.39877L9.7353 2.4421C9.4721 2.46616 9.10833 2.48562 8.92695 2.48586C8.62068 2.4863 8.59149 2.5028 8.51895 2.70132C8.39779 3.03496 8.11402 3.34952 7.74795 3.55596L7.41359 3.74454H5.49957H3.5854L3.25608 3.55875C2.86202 3.33641 2.59935 3.05206 2.48723 2.72614C2.40671 2.49201 2.39586 2.48645 2.0307 2.48645C1.82501 2.48645 1.46064 2.46708 1.22097 2.44254L0.785252 2.39877V8.32514V14.2516H5.49957H10.2137V8.32528ZM1.56742 13.1682C1.38958 12.8494 1.61592 12.6198 2.10786 12.6198C2.57072 12.6198 2.77015 12.7177 2.77015 12.9445C2.77015 13.235 2.65173 13.2998 2.12041 13.2998C1.71883 13.2998 1.62888 13.2782 1.56742 13.1682ZM3.70588 13.218C3.65898 13.173 3.62091 13.0698 3.62091 12.9883C3.62091 12.6639 3.69061 12.6549 6.34329 12.6337C7.71176 12.6217 8.95899 12.6385 9.11495 12.6703C9.3545 12.7179 9.40214 12.7558 9.42145 12.9151C9.46886 13.3064 9.52151 13.2995 6.53297 13.2995C4.49489 13.2995 3.76927 13.2777 3.70604 13.2178L3.70588 13.218ZM1.55104 10.475C1.49185 10.3504 1.48832 10.2632 1.53849 10.1858C1.63932 10.0326 2.03064 9.94768 2.394 9.9999C2.64458 10.036 2.7061 10.0747 2.74413 10.2201C2.82439 10.5271 2.7017 10.6113 2.14154 10.6334C1.65482 10.6526 1.63162 10.6454 1.55028 10.475H1.55104ZM3.70588 10.5658C3.59226 10.4568 3.59784 10.2062 3.71599 10.1121C3.83865 10.0144 7.70625 9.93864 8.6895 10.0144C9.39815 10.0691 9.39845 10.0693 9.4213 10.2603C9.46846 10.6547 9.52387 10.6473 6.53282 10.6473C4.49474 10.6473 3.76912 10.6256 3.70588 10.5656V10.5658ZM1.56145 7.88893C1.49599 7.81313 1.48869 7.73058 1.53635 7.59989C1.5988 7.42856 1.63402 7.41554 2.08673 7.39677C2.61097 7.37511 2.77 7.44151 2.77 7.68375C2.77 7.92761 2.63059 7.99512 2.12653 7.99512C1.78417 7.99512 1.62767 7.96584 1.5613 7.88908L1.56145 7.88893ZM3.70588 7.91346C3.59652 7.80854 3.59652 7.56954 3.70588 7.46462C3.76909 7.40398 4.48762 7.38296 6.50036 7.38296C7.99052 7.38296 9.26011 7.40224 9.32179 7.42438C9.43567 7.46625 9.46925 7.69176 9.39099 7.88761C9.35286 7.98314 9.03775 7.99527 6.56956 7.99527C4.50307 7.99527 3.7693 7.97352 3.70604 7.91361L3.70588 7.91346ZM1.72297 5.34411C1.51428 5.25844 1.45583 5.10329 1.55411 4.8963C1.62635 4.74422 1.67278 4.73078 2.11643 4.73078C2.39802 4.73078 2.63549 4.76503 2.68503 4.81244C2.78286 4.90628 2.79517 5.13194 2.71014 5.26171C2.63589 5.37385 1.93815 5.43233 1.72389 5.34425L1.72297 5.34411ZM4.0998 5.361C3.72952 5.33934 3.68849 5.32057 3.64633 5.15935C3.54148 4.75876 3.48548 4.76686 6.49133 4.74737C8.51867 4.73534 9.2665 4.74988 9.34062 4.80979C9.39831 4.85575 9.43221 4.97895 9.41992 5.09883C9.39986 5.28436 9.36684 5.31321 9.11511 5.35571C8.83239 5.4036 4.87318 5.40772 4.09996 5.36056L4.0998 5.361ZM3.80907 2.36249C3.72128 2.26961 3.69165 2.10643 3.69165 1.71641C3.69165 1.08716 3.8081 0.922722 4.25321 0.922722C4.50487 0.922722 4.53559 0.903447 4.57823 0.716957C4.64345 0.43188 4.92635 0.130109 5.21358 0.03915C5.70833 -0.117502 6.30561 0.21423 6.41876 0.708585C6.4589 0.884247 6.49978 0.909705 6.79263 0.941228C7.23357 0.988873 7.30718 1.10338 7.30718 1.74108C7.30718 2.51404 7.37392 2.48674 5.48717 2.48674C4.06514 2.48674 3.91598 2.47472 3.80907 2.36235V2.36249ZM5.86715 1.25083C6.20214 0.948909 5.96812 0.378714 5.50937 0.378714C5.22495 0.378714 4.96786 0.616331 4.96786 0.879102C4.96786 1.33005 5.52414 1.55997 5.86715 1.25083Z" fill="white"/>
</g>
<defs>
<clipPath id="clip0_1293_596">
<rect width="11" height="15" fill="white"/>
</clipPath>
</defs>
</svg>
