<svg width="19" height="19" viewBox="0 0 19 19" fill="none" xmlns="http://www.w3.org/2000/svg">
<g clip-path="url(#clip0_1208_157)">
<path d="M16.8809 15.4865C16.778 15.3082 16.55 15.2471 16.3716 15.35L15.0163 16.1324C14.838 16.2354 14.7769 16.4634 14.8799 16.6417C14.9489 16.7613 15.0742 16.8282 15.2031 16.8282C15.2664 16.8282 15.3304 16.8121 15.3891 16.7782L16.7444 15.9958C16.9227 15.8928 16.9839 15.6648 16.8809 15.4865Z" fill="white"/>
<path d="M18.9062 10.8006C18.9061 10.7854 18.9052 10.7702 18.9032 10.7551C18.903 10.754 18.9028 10.753 18.9027 10.752C18.9008 10.7385 18.8979 10.725 18.8945 10.7116C18.8936 10.7078 18.8925 10.7041 18.8915 10.7004C18.8883 10.6896 18.8846 10.6789 18.8805 10.6682C18.879 10.6646 18.8777 10.6608 18.8762 10.6572C18.8704 10.6439 18.8642 10.6308 18.8568 10.618C18.8566 10.6176 18.8563 10.6172 18.8561 10.6169C18.8487 10.6041 18.8405 10.5921 18.8319 10.5806C18.8296 10.5774 18.827 10.5744 18.8245 10.5714C18.8174 10.5625 18.81 10.5539 18.8021 10.5458C18.7995 10.543 18.7968 10.5402 18.794 10.5375C18.7841 10.5278 18.7738 10.5186 18.7629 10.5102C18.7622 10.5096 18.7615 10.5089 18.7607 10.5083C18.7485 10.499 18.7359 10.4906 18.7228 10.4829C18.7218 10.4824 18.721 10.4816 18.72 10.4811L14.3895 7.98104V2.98049C14.3895 2.97941 14.3893 2.97841 14.3892 2.97733C14.3891 2.96208 14.3882 2.94683 14.3862 2.93158C14.3861 2.9308 14.3859 2.93005 14.3858 2.92931C14.3839 2.91543 14.381 2.9017 14.3775 2.88797C14.3766 2.88445 14.3756 2.88092 14.3746 2.8774C14.3714 2.8663 14.3676 2.85528 14.3633 2.84437C14.362 2.84096 14.3607 2.83747 14.3593 2.83413C14.3535 2.82058 14.3471 2.80719 14.3396 2.79409C14.332 2.78102 14.3236 2.76885 14.3148 2.75705C14.3126 2.75404 14.3101 2.75119 14.3078 2.74826C14.3006 2.73916 14.293 2.73048 14.285 2.72224C14.2824 2.71953 14.2798 2.71679 14.2771 2.71415C14.2672 2.70439 14.2568 2.69519 14.246 2.68669C14.2452 2.6861 14.2445 2.68543 14.2438 2.68484C14.2316 2.67552 14.2189 2.66713 14.2058 2.65942C14.2049 2.65886 14.204 2.65815 14.2031 2.65763L9.68636 0.0499448C9.57102 -0.0166297 9.42889 -0.0166668 9.31352 0.0499448L4.79688 2.6576C4.79599 2.65812 4.79525 2.65875 4.79436 2.65927C4.78115 2.66702 4.76838 2.67545 4.7561 2.68487C4.7555 2.68532 4.75498 2.68584 4.75439 2.68632C4.74337 2.69489 4.73283 2.70428 4.72273 2.71415C4.7201 2.71675 4.7175 2.71942 4.71494 2.72209C4.707 2.73037 4.69943 2.73905 4.69219 2.74814C4.68986 2.75108 4.68737 2.75397 4.68511 2.75701C4.67631 2.76878 4.66796 2.78099 4.66043 2.79401C4.65289 2.80707 4.64651 2.8204 4.64072 2.8339C4.63924 2.83739 4.63798 2.84103 4.63657 2.84455C4.63234 2.85532 4.62862 2.86615 4.62547 2.8771C4.62443 2.8807 4.62339 2.88434 4.62243 2.88797C4.61898 2.90152 4.61612 2.91514 4.61423 2.92883C4.61412 2.92976 4.61386 2.93061 4.61374 2.93154C4.61174 2.94672 4.61085 2.96197 4.61074 2.97715C4.61074 2.97822 4.61052 2.9793 4.61052 2.98038V7.98085L0.279907 10.481C0.278979 10.4815 0.2782 10.4822 0.277309 10.4827C0.264136 10.4904 0.25137 10.4988 0.239161 10.5082C0.238567 10.5087 0.23801 10.5092 0.237417 10.5097C0.226395 10.5183 0.215893 10.5276 0.205799 10.5376C0.203127 10.5402 0.200567 10.5429 0.197969 10.5455C0.190065 10.5538 0.182495 10.5624 0.175258 10.5715C0.172883 10.5745 0.17036 10.5774 0.168096 10.5805C0.159412 10.5921 0.151174 10.6041 0.143715 10.617C0.143604 10.6172 0.143455 10.6174 0.143344 10.6176C0.135885 10.6306 0.129502 10.6438 0.123787 10.6572C0.122266 10.6608 0.120967 10.6645 0.11952 10.6681C0.115363 10.6788 0.111652 10.6896 0.108498 10.7004C0.107422 10.7041 0.106383 10.7078 0.105418 10.7115C0.101967 10.725 0.0991465 10.7385 0.0972539 10.7521C0.0971055 10.753 0.0968828 10.754 0.0967344 10.755C0.0947305 10.7702 0.0938398 10.7854 0.0937285 10.8006C0.0937285 10.8017 0.0935059 10.8027 0.0935059 10.8038V16.0195H0.093543C0.093543 16.1527 0.164608 16.2758 0.279944 16.3424L4.79695 18.95C4.79784 18.9506 4.79885 18.9509 4.79974 18.9514C4.81302 18.9589 4.82664 18.9658 4.84085 18.9717C4.84171 18.972 4.84256 18.9723 4.84341 18.9726C4.85622 18.9778 4.86939 18.9821 4.88286 18.9859C4.88654 18.987 4.89025 18.9878 4.89392 18.9887C4.90491 18.9914 4.91611 18.9936 4.92747 18.9953C4.93129 18.9959 4.93511 18.9966 4.93897 18.9971C4.95352 18.9988 4.96829 18.9999 4.98328 18.9999C4.99827 18.9999 5.01304 18.9988 5.02759 18.9971C5.03145 18.9966 5.03527 18.9959 5.03909 18.9953C5.05045 18.9936 5.06162 18.9915 5.0726 18.9887C5.07631 18.9878 5.08003 18.9869 5.08374 18.9859C5.09713 18.9822 5.11023 18.9778 5.12296 18.9726C5.12389 18.9723 5.12482 18.972 5.12574 18.9716C5.13992 18.9657 5.15354 18.9589 5.16671 18.9514C5.16764 18.9509 5.16864 18.9505 5.16961 18.95L9.49981 16.45L13.83 18.95C13.831 18.9506 13.832 18.9509 13.8329 18.9514C13.8462 18.9589 13.8597 18.9657 13.8739 18.9716C13.8748 18.972 13.8758 18.9723 13.8768 18.9727C13.8895 18.9778 13.9026 18.9821 13.9159 18.9859C13.9196 18.9869 13.9234 18.9878 13.9271 18.9887C13.938 18.9914 13.9492 18.9936 13.9606 18.9953C13.9644 18.9959 13.9682 18.9966 13.9721 18.9971C13.9866 18.9988 14.0014 18.9999 14.0164 18.9999C14.0314 18.9999 14.0462 18.9988 14.0607 18.9971C14.0646 18.9966 14.0684 18.9959 14.0723 18.9953C14.0836 18.9936 14.0948 18.9915 14.1057 18.9887C14.1094 18.9878 14.1132 18.9869 14.1169 18.9859C14.1303 18.9822 14.1433 18.9778 14.156 18.9727C14.157 18.9723 14.158 18.972 14.1589 18.9716C14.1731 18.9657 14.1867 18.9589 14.1999 18.9514C14.2008 18.9509 14.2018 18.9506 14.2028 18.95L18.7198 16.3424C18.8352 16.2758 18.9063 16.1527 18.9063 16.0195V10.8039C18.9064 10.8027 18.9062 10.8017 18.9062 10.8006ZM15.5335 9.50246L11.7625 11.6796L10.2456 10.8038L14.0165 8.62671L15.5335 9.50246ZM13.6437 7.98096L9.8728 10.1581V5.80378L13.6437 3.62634V7.98096ZM9.49992 0.803343L11.0168 1.67913L7.24581 3.85635L5.72896 2.98049L9.49992 0.803343ZM4.98328 8.62674L6.50002 9.50242L2.72895 11.6796L1.21206 10.8039L4.98328 8.62674ZM4.61048 17.9815L0.839148 15.8043V11.4496L2.44547 12.377C2.49523 12.4288 2.55776 12.4642 2.62527 12.4808L4.61048 13.6268V17.9815ZM4.98332 12.981L3.4747 12.1101L7.24566 9.93293L8.75424 10.8039L4.98332 12.981ZM9.12708 15.8043L5.35616 17.9814V13.6268L9.12708 11.4496V15.8043ZM9.12708 10.1581L5.35616 7.981V3.6263L6.96148 4.5533C7.0115 4.60566 7.07455 4.64136 7.14261 4.65788L9.12712 5.80378V10.1581H9.12708ZM7.99153 4.28697L11.7625 2.10964L13.2709 2.98049L9.49996 5.15796L7.99153 4.28697ZM13.6437 17.9814L9.8728 15.8043V11.4496L11.4791 12.377C11.5287 12.4287 11.5912 12.464 11.6585 12.4806L13.6437 13.6267V17.9814H13.6437ZM14.0166 12.981L12.5082 12.1102L16.2792 9.93296L17.7878 10.8039L14.0166 12.981ZM18.1607 15.8043L14.3894 17.9815V13.6268L18.1607 11.4496V15.8043Z" fill="white"/>
<path d="M17.4913 14.813C17.0114 14.813 17.0107 15.5587 17.4913 15.5587C17.9711 15.5587 17.9719 14.813 17.4913 14.813Z" fill="white"/>
</g>
<defs>
<clipPath id="clip0_1208_157">
<rect width="19" height="19" fill="white"/>
</clipPath>
</defs>
</svg>
