<svg xmlns="http://www.w3.org/2000/svg" width="391.459" height="302.257" viewBox="0 0 391.459 302.257"><g transform="translate(-904.599 -257.94)"><g transform="translate(904.599 511.375)"><path d="M1151.682,338.763v48h-4.864v-38.4l-18.834,32.3h-2.4l-18.832-32.09v38.192h-4.864v-48h4.177l20.821,35.589,20.615-35.589Z" transform="translate(-1101.892 -338.354)" fill="#fff"/><path d="M1190.463,338.763v48H1185.6v-38.4l-18.834,32.3h-2.4l-18.832-32.09v38.192h-4.862v-48h4.177l20.818,35.589,20.615-35.589Z" transform="translate(-1075.27 -338.354)" fill="#fff"/><path d="M1225.589,362.93h4.862v18.31a23.416,23.416,0,0,1-7.944,4.524,29.5,29.5,0,0,1-9.657,1.579,26.476,26.476,0,0,1-12.943-3.154,23.265,23.265,0,0,1-9.041-8.743,25.467,25.467,0,0,1,0-25.029,23.276,23.276,0,0,1,9.041-8.743,26.634,26.634,0,0,1,13.012-3.153,28.106,28.106,0,0,1,10.067,1.746,20,20,0,0,1,7.739,5.18l-3.15,3.22a19.7,19.7,0,0,0-14.449-5.623,21.489,21.489,0,0,0-10.513,2.573,18.887,18.887,0,0,0-7.363,7.131,20.677,20.677,0,0,0,0,20.331,19.284,19.284,0,0,0,7.327,7.132,21.09,21.09,0,0,0,10.48,2.6,20.865,20.865,0,0,0,12.534-3.7Z" transform="translate(-1043.075 -338.521)" fill="#fff"/><path d="M1254.224,386.764l-10.957-15.428a34.841,34.841,0,0,1-3.836.2h-12.874v15.224h-5.068v-48h17.942q9.177,0,14.382,4.39t5.206,12.068a14.881,14.881,0,0,1-10.959,15.085l11.711,16.458Zm-4.041-22.7q3.766-3.153,3.768-8.846,0-5.828-3.768-8.947t-10.889-3.12h-12.738v24.068h12.738Q1246.414,367.221,1250.182,364.067Z" transform="translate(-1019.799 -338.354)" fill="#fff"/><path d="M1255.808,381.827q-5.2-5.346-5.2-15.565v-27.5h5.069v27.291q0,8.368,3.766,12.481t10.889,4.113q7.192,0,10.957-4.113t3.767-12.481V338.763h4.93v27.5q0,10.217-5.169,15.565t-14.485,5.349Q1261.015,387.176,1255.808,381.827Z" transform="translate(-999.813 -338.354)" fill="#fff"/><path d="M1315.336,343.153q5.2,4.389,5.2,12.068t-5.2,12.036q-5.206,4.354-14.382,4.353h-12.876v15.154h-5.068v-48h17.944Q1310.129,338.763,1315.336,343.153Zm-3.629,20.88q3.766-3.12,3.765-8.812,0-5.828-3.765-8.947t-10.891-3.12h-12.738v24h12.738Q1307.94,367.154,1311.707,364.033Z" transform="translate(-977.568 -338.354)" fill="#fff"/><path d="M1344.087,343.153q5.2,4.389,5.2,12.068t-5.2,12.036q-5.206,4.354-14.382,4.353H1316.83v15.154h-5.068v-48h17.943Q1338.883,338.763,1344.087,343.153Zm-3.629,20.88q3.767-3.12,3.766-8.812,0-5.828-3.766-8.947t-10.891-3.12H1316.83v24h12.737Q1336.691,367.154,1340.458,364.033Z" transform="translate(-957.833 -338.354)" fill="#fff"/></g><g transform="translate(990.508 257.94)"><g transform="translate(45.492 77.317)"><path d="M1035.906,405.289V372.025c0-2.557.617-7.322.617-7.322l-8.724,34.409h-5.113l-8.723-34.409s.617,4.765.617,7.322v33.264h-9.695V337.881h9.52l10.573,37.234a25.213,25.213,0,0,1,.265,3.087,25.34,25.34,0,0,1,.264-3.087l10.576-37.234h9.515v67.408Z" transform="translate(-1004.885 -337.881)" fill="#fff"/><path d="M1057.636,405.289V372.025c0-2.557.616-7.322.616-7.322l-8.723,34.409h-5.111l-8.726-34.409s.616,4.765.616,7.322v33.264h-9.692V337.881h9.518l10.576,37.234a25.678,25.678,0,0,1,.261,3.087,25.829,25.829,0,0,1,.265-3.087l10.576-37.234h9.518v67.408Z" transform="translate(-977.882 -337.881)" fill="#fff"/><path d="M1075.492,405.289H1054.34c-3.876,0-5.993-2.2-5.993-6.177V344.055c0-3.97,2.117-6.174,6.082-6.174h27.231l-3.985,8.646h-19.281v50.115h13.129V377.762h-7.49l3.627-8.559h14v29.91C1081.661,403.084,1079.456,405.289,1075.492,405.289Z" transform="translate(-950.881 -337.881)" fill="#fff"/></g><path d="M1095.48,525.487c-61.14,0-110.881-49.8-110.881-111.019s49.742-111.021,110.881-111.021,110.883,49.805,110.883,111.021S1156.621,525.487,1095.48,525.487Zm0-217.35c-58.558,0-106.2,47.7-106.2,106.331s47.64,106.331,106.2,106.331,106.2-47.7,106.2-106.331S1154.04,308.136,1095.48,308.136Z" transform="translate(-984.599 -303.446)" fill="#fff"/></g></g></svg>